<?xml version="1.0" encoding="utf-8"?>
<!-- Generator: Adobe Illustrator 23.0.1, SVG Export Plug-In . SVG Version: 6.00 Build 0)  -->
<svg version="1.1" id="Capa_1" xmlns="http://www.w3.org/2000/svg" xmlns:xlink="http://www.w3.org/1999/xlink" x="0px" y="0px"
	 viewBox="0 0 64 64" style="enable-background:new 0 0 64 64;" xml:space="preserve">
<style type="text/css">
	.st0{fill:#FCF6E8;}
</style>
<path class="st0" d="M32,7C18.2,7,7,18.2,7,32s11.2,25,25,25c13.8,0,25-11.2,25-25S45.8,7,32,7 M32,52c-11,0-20-9-20-20
	c0-11,9-20,20-20c11,0,20,9,20,20C52,43,43,52,32,52"/>
<path class="st0" d="M25.4,24.3c0.9-1,2-1.8,3.3-2.3c1.3-0.6,2.6-0.9,4-0.9c1.7,0,3.4,0.4,4.8,1.3c1.4,0.8,2.7,2,3.6,3.3l3.6-2.7
	c-1.4-1.8-3.1-3.4-5.1-4.4c-2.1-1.1-4.3-1.6-6.8-1.6c-2,0-4,0.4-5.8,1.2c-1.8,0.8-3.4,1.9-4.7,3.2c-1.3,1.4-2.4,3-3.2,4.8
	c-0.8,1.8-1.2,3.8-1.2,5.8c0,2.1,0.4,4,1.2,5.8c0.7,1.8,1.8,3.4,3.2,4.8c1.4,1.4,3,2.5,4.7,3.2c1.8,0.8,3.7,1.2,5.8,1.2
	c2.5,0,4.8-0.5,6.8-1.6c2-1.1,3.8-2.6,5.1-4.4l-3.6-2.7c-0.9,1.4-2.1,2.5-3.6,3.3c-1.5,0.8-3.1,1.3-4.8,1.3c-1.4,0-2.7-0.3-4-0.9
	c-1.2-0.6-2.3-1.4-3.3-2.3c-0.9-1-1.7-2.1-2.2-3.4c-0.5-1.3-0.8-2.7-0.8-4.2c0-1.5,0.3-2.9,0.8-4.2S24.5,25.3,25.4,24.3"/>
</svg>
