<?xml version="1.0" encoding="utf-8"?>
<!-- Generator: Adobe Illustrator 23.0.1, SVG Export Plug-In . SVG Version: 6.00 Build 0)  -->
<svg version="1.1" id="Capa_1" xmlns="http://www.w3.org/2000/svg" xmlns:xlink="http://www.w3.org/1999/xlink" x="0px" y="0px"
	 viewBox="0 0 452 452" style="enable-background:new 0 0 452 452;" xml:space="preserve">
<path d="M11.15,384.62c5.91-8.17,11.45-16.63,17.83-24.41c4.95-6.02,11.05-11.09,16.41-16.79c1.13-1.2,2.28-4.07,1.67-4.9
	c-2.42-3.33-0.53-5.13,1.57-7.23c12.74-12.71,25.37-25.53,38.24-38.11c3.55-3.47,5.08-5.9,1.14-10.57
	c-5.88-6.96-4.71-16.69,2.06-23.55c13.58-13.76,27.3-27.37,40.96-41.04c11.19-11.2,22.36-22.41,33.59-33.57
	c9.7-9.64,18.82-9.76,28.82-0.49c0.37,0.34,0.67,0.88,1.1,1c1.41,0.4,2.86,0.65,4.29,0.96c-0.27-1.42-0.35-2.92-0.87-4.24
	c-0.34-0.86-1.32-1.46-2.03-2.17c-4-4.01-8.01-8.01-12.02-12.02c-6.48-6.48-6.48-6.48-13.79-0.94c-0.27,0.2-0.49,0.54-0.79,0.6
	c-6.25,1.37-7.44-4.93-11.12-7.46c-2.46-1.68-1.23-3.66,0.45-5.44c2.5-2.65,6.57-5.3,6.78-8.19c0.2-2.66-3.82-5.62-5.98-8.45
	c-2.91-3.82-2.86-8.29,0.13-11.4c3.19-3.33,7.66-3.42,11.73-0.31c2.82,2.15,5.72,5.91,8.53,5.86c2.63-0.04,5.34-4.01,7.76-6.5
	c2.4-2.48,4.45-2.53,6.67,0.07c0.65,0.76,1.43,1.4,2.12,2.12c4.91,5.11,8.08,5.82,0.5,12.45c-2.48,2.17-2.02,4.15,0.17,6.3
	c6.07,5.95,11.96,12.08,18.12,17.93c1,0.95,3.63,1.61,4.53,0.99c2.84-1.96,4.6-0.8,6.48,1.17c1.15,1.21,2.27,2.47,3.55,3.51
	c3.57,2.91,4.89,5.78,0.53,9.19c-2.46,1.92-1.73,3.88,0.24,5.87c2.09,2.11,3.93,2.15,5.94,0c1.25-1.34,2.52-2.67,3.91-3.86
	c2.71-2.32,3.18-4.45,0.84-7.63c-3.78-5.13-3.08-10.71,0.09-15.95c1.1-1.83,2.62-3.46,4.14-4.98c16.35-16.4,32.72-32.79,49.14-49.13
	c7.89-7.85,12.91-8.42,22.64-3.25c1.08,0.57,3.27,0.33,4.27-0.42c8.97-6.73,8.98-7.79,1.08-15.69c-5.66-5.66-11.37-11.25-16.93-17
	c-4.58-4.74-4.9-9.54-1.13-13.18c3.71-3.59,8.47-3.1,13.21,1.43c2.53,2.42,4.89,5.02,7.49,7.35c4.25,3.81,8.61,3.12,11.58-1.66
	c11.71-18.86,34.78-18.78,46.62-0.04c1.25,1.98,4.23,3.19,6.66,4c1.95,0.65,4.29,0.16,6.46,0.18c7.29,0.07,7.87,0.68,7.9,8.11
	c0.03,8.01-0.41,8.73-8.45,8.37c-6.6-0.3-11.5,0.69-15.23,7.34c-2.2,3.93-7.51,6.18-11.56,8.98c-1.44,0.99-3.3,1.36-4.08,1.67
	c16.71,16.76,33.43,33.53,50.14,50.29c-0.25,0.46-0.51,0.92-0.76,1.38c1.1-0.93,2.17-1.9,3.31-2.77c3.65-2.79,7.49-2.98,10.96,0.04
	c3.39,2.94,6.62,6.12,9.54,9.53c3.92,4.58,3.41,7.09-2.08,14.45c1.35,2.38,4.4,5.62,3.72,6.96c-1.81,3.55-5.11,6.41-8.09,9.26
	c-0.89,0.85-2.93,1.36-4.04,0.95c-6.07-2.25-10.18,0.64-14.17,4.64c-15.75,15.83-31.56,31.59-47.35,47.38
	c-10.25,10.25-20.47,20.54-30.76,30.75c-3.72,3.69-5.35,7.65-3.92,13.07c0.46,1.75-1.15,4.68-2.67,6.22
	c-9.26,9.4-6.76,8.78-15.25,0.33c-31.29-31.16-62.46-62.44-93.77-93.58c-1.45-1.45-4.01-3.13-5.64-2.78
	c-3.82,0.82-4.33,4.47-1.56,7.6c10.09,11.37,9.87,19.48-0.88,30.24c-24.03,24.04-48.06,48.09-72.11,72.11
	c-9.11,9.09-17.13,9.77-27.39,1.98c-3.17-2.41-4.79-0.67-6.71,1.25c-12.97,12.95-25.93,25.91-38.88,38.89
	c-2.47,2.47-4.59,5.65-8.66,2.1c-0.5-0.43-2.79,0.55-3.75,1.42c-3.09,2.78-6.16,5.64-8.87,8.79c-8.85,10.26-20.19,17.28-31.36,24.55
	c-0.63,0.41-1.36,0.65-2.04,0.97C11.76,385.2,11.45,384.91,11.15,384.62z M125.03,295.48c1.14-0.85,2.3-1.51,3.21-2.42
	c23.94-23.9,47.83-47.84,71.78-71.72c2.34-2.33,2.7-4.24,0.17-6.7c-6.09-5.92-12.11-11.93-18.02-18.03
	c-2.37-2.44-4.12-1.85-6.25,0.28c-23.88,23.95-47.79,47.88-71.74,71.76c-2.31,2.3-2.79,4.22-0.23,6.7
	c6.1,5.92,12.04,11.99,18.09,17.97C122.85,294.12,123.89,294.67,125.03,295.48z M282.91,210.3c2.13-3.77,3.76-8.01,6.54-11.29
	c4.51-5.32,9.75-10.01,14.69-14.96c12.13-12.12,24.21-24.31,36.43-36.33c6.9-6.79,13.09-7.3,21.64-2.66
	c1.19,0.65,3.45,0.34,4.7-0.39c1.81-1.07,3.07-3.02,4.7-4.43c2.98-2.57,2.67-4.73-0.09-7.41c-7.54-7.3-14.87-14.8-22.28-22.22
	c-7.76-7.77-7.72-7.73-15.11,0.53c-1.66,1.85-2.17,3.24-0.63,5.61c4.79,7.37,4.29,13.35-1.6,19.93c-3.55,3.96-7.44,7.63-11.2,11.4
	c-13.3,13.31-26.55,26.67-39.93,39.9c-7.7,7.61-13.05,8.2-22.32,3.38c-1.21-0.63-3.25-0.07-4.74,0.42c-1,0.33-1.71,1.53-2.53,2.35
	c-5.71,5.69-5.72,5.7-0.18,11.26c6.94,6.96,13.82,13.97,20.85,20.83c7.48,7.3,5.47,8.33,14.31-0.53c2.07-2.08,2.53-3.8,0.7-6.47
	C285.23,216.84,284.44,213.88,282.91,210.3z M383.01,171.22c-2.34,3.95-4.17,8.71-7.39,12.17c-9.18,9.86-18.93,19.2-28.46,28.72
	c-7.42,7.41-14.73,14.93-22.31,22.17c-6.7,6.39-12.84,6.78-20.86,2.51c-1.38-0.73-3.92-0.18-5.5,0.62
	c-1.69,0.85-2.82,2.77-4.32,4.09c-2.68,2.38-2.76,4.53-0.06,7.06c3.89,3.64,7.54,7.52,11.32,11.27c4.85,4.82,4.93,4.84,9.85-0.07
	c20.84-20.82,41.67-41.65,62.5-62.48c8.47-8.47,16.87-17.03,25.46-25.38c2.8-2.72,2.87-4.76-0.03-7.37
	c-3.21-2.89-6.15-6.09-9.21-9.15c-7.29-7.29-7.23-7.24-14.37,0.62c-2,2.2-2.38,3.89-0.57,6.48
	C380.62,164.72,381.38,167.51,383.01,171.22z M318.38,125.68c-2.34-2.49-4.7-4.75-6.77-7.26c-2.96-3.59-5.37-3.17-8.51,0.04
	c-12.93,13.17-26.12,26.07-39.09,39.2c-8.26,8.37-8.93,6.21,0.52,15.84c2.58,2.62,4.51,2.51,7.05-0.05
	c14.63-14.76,29.36-29.42,44.03-44.14C316.52,128.39,317.19,127.25,318.38,125.68z M363.54,170.86c-2.38-2.53-4.74-4.82-6.83-7.33
	c-2.76-3.32-4.97-3.29-8.09-0.11c-12.84,13.05-26,25.79-38.88,38.81c-9.1,9.2-9.72,6.52,0.42,16.91c2.3,2.35,4.05,2.07,6.25-0.14
	c14.78-14.89,29.63-29.69,44.44-44.55C361.76,173.52,362.41,172.37,363.54,170.86z M359.78,63.76c-5.18,0.14-9.41,4.68-9.2,9.89
	c0.2,5.09,4.37,9.09,9.45,9.08c5.25-0.02,9.55-4.37,9.49-9.6C369.47,67.98,364.94,63.62,359.78,63.76z"/>
</svg>
