<svg id="Capa_1" data-name="Capa 1" xmlns="http://www.w3.org/2000/svg" viewBox="0 0 1049.43 1047.51"><defs><style>.cls-1{fill:#fcf6e8;}</style></defs><title>plus-circle-black-03</title><path class="cls-1" d="M852.31,845.06H194.11a12,12,0,0,1-12-12V203.36a12,12,0,0,1,12-12h658.2a12,12,0,0,1,12,12V833A12.06,12.06,0,0,1,852.31,845.06Z"/><path d="M524.71,11.76c-282.7,0-512,229.3-512,512s229.3,512,512,512,512-229.3,512-512S807.41,11.76,524.71,11.76Zm219.4,539.4a9.13,9.13,0,0,1-9.1,9.1H561.31V734a9.13,9.13,0,0,1-9.1,9.1h-54.9a9.13,9.13,0,0,1-9.1-9.1V560.36H314.41a9.13,9.13,0,0,1-9.1-9.1v-54.9a9.13,9.13,0,0,1,9.1-9.1h173.7V313.46a9.13,9.13,0,0,1,9.1-9.1h54.9a9.13,9.13,0,0,1,9.1,9.1v173.7h173.7a9.13,9.13,0,0,1,9.1,9.1v54.9Z"/></svg>