<svg id="Capa_1" data-name="Capa 1" xmlns="http://www.w3.org/2000/svg" viewBox="0 0 1024 1024"><defs><style>.cls-1{fill:#fcf6e8;}</style></defs><title>plus-circle-black</title><path class="cls-1" d="M839.47,833.3H181.27a12,12,0,0,1-12-12V191.6a12,12,0,0,1,12-12h658.2a12,12,0,0,1,12,12V821.2A12.06,12.06,0,0,1,839.47,833.3Z"/><path d="M511.87,0C229.17,0-.13,229.3-.13,512s229.3,512,512,512,512-229.3,512-512S794.57,0,511.87,0Zm219.4,539.4a9.13,9.13,0,0,1-9.1,9.1H548.47V722.2a9.13,9.13,0,0,1-9.1,9.1h-54.9a9.13,9.13,0,0,1-9.1-9.1V548.6H301.57a9.13,9.13,0,0,1-9.1-9.1V484.6a9.13,9.13,0,0,1,9.1-9.1h173.7V301.7a9.13,9.13,0,0,1,9.1-9.1h54.9a9.13,9.13,0,0,1,9.1,9.1V475.4h173.7a9.13,9.13,0,0,1,9.1,9.1v54.9Z"/></svg>