<svg xmlns="http://www.w3.org/2000/svg" viewBox="0 0 797 815"><defs><style>.cls-1,.cls-2,.cls-3{fill:none;}.cls-1,.cls-2{stroke:#000;}.cls-1{stroke-linecap:round;stroke-width:3px;}.cls-2{stroke-width:6px;}.cls-4{fill:#211915;}</style></defs><title>prop-valor-eventos-07-07</title><g id="Capa_9" data-name="Capa 9"><path d="M54.73,555.08a6.77,6.77,0,0,0-1.93.27,4.4,4.4,0,0,0-1.61.86,4.06,4.06,0,0,0-1.1,1.5,5.26,5.26,0,0,0-.4,2.15A5.7,5.7,0,0,0,51,563.28a28.55,28.55,0,0,0,3.14,3.54q1.88,1.83,4.06,3.8a44.32,44.32,0,0,1,4.07,4.16,23.38,23.38,0,0,1,3.14,4.66,11.53,11.53,0,0,1,1.26,5.3,14,14,0,0,1-1.08,5.66,11.68,11.68,0,0,1-3.1,4.2,13.7,13.7,0,0,1-4.86,2.63,20.7,20.7,0,0,1-6.34.91,16.84,16.84,0,0,1-5.53-.86,20.21,20.21,0,0,1-4.4-2.13A19.28,19.28,0,0,1,38,592.48a18.21,18.21,0,0,1-2.12-2.56l1.54-1.11a16.72,16.72,0,0,0,1.46,1.44,14.87,14.87,0,0,0,2,1.43,11.19,11.19,0,0,0,2.32,1.09,7.79,7.79,0,0,0,2.52.42,8.46,8.46,0,0,0,5.22-1.53,5.33,5.33,0,0,0,2-4.53,6.58,6.58,0,0,0-1.11-3.47A27,27,0,0,0,49.07,580q-1.68-1.9-3.63-3.93t-3.62-4.2A24.79,24.79,0,0,1,39,567.37a10.83,10.83,0,0,1-1.11-4.77,10,10,0,0,1,1.13-4.86,10.19,10.19,0,0,1,3-3.45,13.44,13.44,0,0,1,4.29-2.06,18.34,18.34,0,0,1,5-.68,25,25,0,0,1,5.4.53,13.1,13.1,0,0,1,4.17,1.61,7.72,7.72,0,0,1,2.7,2.72,7.47,7.47,0,0,1,1,3.8,4.28,4.28,0,0,1-1.1,2.92,4,4,0,0,1-3.1,1.24,4.46,4.46,0,0,1-2.89-.82,2.73,2.73,0,0,1-1-2.23,2.13,2.13,0,0,1,.47-1.46,4,4,0,0,1,1-.86c.39-.23.73-.42,1-.58a.73.73,0,0,0,.47-.64,2.2,2.2,0,0,0-1.33-2A7.08,7.08,0,0,0,54.73,555.08Z"/><path d="M72,574.8a28.15,28.15,0,0,1,1.68-10.15,21.58,21.58,0,0,1,4.49-7.27A18.14,18.14,0,0,1,84.7,553a20.92,20.92,0,0,1,7.78-1.46,22.62,22.62,0,0,1,7.78,1.35,17.62,17.62,0,0,1,6.52,4.13,20.08,20.08,0,0,1,4.48,7.05,27.5,27.5,0,0,1,1.68,10.1,29,29,0,0,1-1.68,10.25,22.77,22.77,0,0,1-4.48,7.52,18.78,18.78,0,0,1-6.52,4.62,19.92,19.92,0,0,1-7.78,1.57,20.94,20.94,0,0,1-7.78-1.48,18.48,18.48,0,0,1-6.52-4.4,21.53,21.53,0,0,1-4.49-7.3A28.21,28.21,0,0,1,72,574.8Zm27.19-.44c0-2.36-.09-4.64-.25-6.83a30.54,30.54,0,0,0-1-5.86,10.39,10.39,0,0,0-2-4.09,4.38,4.38,0,0,0-3.49-1.52A4.27,4.27,0,0,0,89,557.67a11,11,0,0,0-2,4.24,31.4,31.4,0,0,0-.93,6c-.14,2.24-.22,4.54-.22,6.9s.08,4.66.22,6.92a31.85,31.85,0,0,0,.93,6A11.11,11.11,0,0,0,89,592a4.29,4.29,0,0,0,3.49,1.61A4.23,4.23,0,0,0,96,592a11.85,11.85,0,0,0,2-4.42,34.6,34.6,0,0,0,1-6.19C99.11,579,99.2,576.71,99.2,574.36Z"/><path d="M119.75,536.43a4.06,4.06,0,0,0-.6-2.23,2.16,2.16,0,0,0-2-1,3.24,3.24,0,0,0-1.3.24,5.15,5.15,0,0,0-1.17.73l-.89-1.06a25.92,25.92,0,0,1,2.28-1.66,19,19,0,0,1,2.72-1.44,19.24,19.24,0,0,1,3.14-1,15,15,0,0,1,3.53-.4,9.53,9.53,0,0,1,4.14.77,6.06,6.06,0,0,1,3.47,4.33,12.72,12.72,0,0,1,.26,2.41v19.72c.35-.33.81-.73,1.37-1.22a12.76,12.76,0,0,1,2.12-1.43,14.34,14.34,0,0,1,3.08-1.2,16.4,16.4,0,0,1,4.22-.48,13.44,13.44,0,0,1,5.66,1.3,14.22,14.22,0,0,1,5.08,4.09,22.27,22.27,0,0,1,3.67,7.16,34.52,34.52,0,0,1,1.41,10.52,31.16,31.16,0,0,1-1.3,9.11,22.19,22.19,0,0,1-3.87,7.49,18.26,18.26,0,0,1-6.41,5.06,20.27,20.27,0,0,1-8.93,1.86,21.69,21.69,0,0,1-9.3-1.79,16.18,16.18,0,0,1-6.08-4.82,19.09,19.09,0,0,1-3.29-7,34.89,34.89,0,0,1-1-8.49Zm26.35,39a63,63,0,0,0-.4-7.23,28.35,28.35,0,0,0-1.28-5.92,11.42,11.42,0,0,0-2.26-4,4.58,4.58,0,0,0-5.85-.75,7.12,7.12,0,0,0-1.71,1.66,7.4,7.4,0,0,0-1,1.83,4.71,4.71,0,0,0-.31,1.22v13.22q0,9.63,1.61,14c1.08,2.92,2.66,4.38,4.76,4.38s3.83-1.49,4.86-4.47S146.1,581.72,146.1,575.42Z"/><path d="M182.56,560.87a37.42,37.42,0,0,1,3.58-4.64,23.42,23.42,0,0,1,1.73-1.72,16.62,16.62,0,0,1,1.92-1.5,9.86,9.86,0,0,1,2.06-1.07,6.06,6.06,0,0,1,2.12-.39,4.63,4.63,0,0,1,3.53,1.35,5.21,5.21,0,0,1,1.29,3.77,17,17,0,0,1-.25,2.9,21.13,21.13,0,0,1-.95,3.38h-1.23a4.14,4.14,0,0,0-1.24-2.28,4,4,0,0,0-2.83-.9,7.51,7.51,0,0,0-2.7.51,17.06,17.06,0,0,0-2.58,1.26,22.33,22.33,0,0,0-2.39,1.63c-.75.59-1.44,1.15-2.06,1.68v28.69a7,7,0,0,1-.17,1.37,3.2,3.2,0,0,1-.86,1.5,5.59,5.59,0,0,1-2,1.22,10.75,10.75,0,0,1-3.69.51,9.93,9.93,0,0,1-3.69-.56,5.8,5.8,0,0,1-2.06-1.3,3.37,3.37,0,0,1-.88-1.55,6,6,0,0,1-.18-1.28V559.33a4.2,4.2,0,0,0-.59-2.24,2.2,2.2,0,0,0-2-1,2.83,2.83,0,0,0-1.29.27,7.92,7.92,0,0,0-1.15.75l-.92-1.1a22.63,22.63,0,0,1,2.27-1.66A17.14,17.14,0,0,1,168,553a20.27,20.27,0,0,1,3.14-1,15.61,15.61,0,0,1,3.54-.39,9.14,9.14,0,0,1,3.24.51,6.37,6.37,0,0,1,2.21,1.32,6.11,6.11,0,0,1,1.35,1.84,9.49,9.49,0,0,1,.73,2,11.25,11.25,0,0,1,.29,2C182.55,559.89,182.56,560.43,182.56,560.87Z"/><path d="M214,577.14a12.53,12.53,0,0,0,.42,3.07,18.25,18.25,0,0,0,1.22,3.34,16.92,16.92,0,0,0,2,3.2,14.74,14.74,0,0,0,2.69,2.72,12.9,12.9,0,0,0,3.38,1.9,11.19,11.19,0,0,0,4.07.71,11.34,11.34,0,0,0,2.87-.35,11.74,11.74,0,0,0,2.48-1,18.17,18.17,0,0,0,2.21-1.44c.71-.55,1.41-1.13,2.12-1.75l1.11,1.06a30,30,0,0,1-2.61,3,21.53,21.53,0,0,1-3.85,3.07,22.2,22.2,0,0,1-5.26,2.39,22.82,22.82,0,0,1-6.85.95,21,21,0,0,1-7.49-1.39,18.65,18.65,0,0,1-6.48-4.18,20.53,20.53,0,0,1-4.53-6.94,25.63,25.63,0,0,1-1.7-9.73,25.32,25.32,0,0,1,1-7.38,23.08,23.08,0,0,1,2.76-6,22.14,22.14,0,0,1,4.07-4.73,24.4,24.4,0,0,1,4.88-3.38,24.09,24.09,0,0,1,5.24-2,21,21,0,0,1,5.15-.68,20.57,20.57,0,0,1,5.7.7,13,13,0,0,1,4,1.9,7.86,7.86,0,0,1,2.41,2.77,7.17,7.17,0,0,1,.8,3.29,6.29,6.29,0,0,1-1.19,3.74,11.06,11.06,0,0,1-3.19,2.89Zm8.89-9a7.6,7.6,0,0,0,1-.69,2.31,2.31,0,0,0,.59-.79,4.48,4.48,0,0,0,.34-1.15,11.52,11.52,0,0,0,.11-1.7,13.32,13.32,0,0,0-.25-2.46,9.92,9.92,0,0,0-.81-2.54,6.38,6.38,0,0,0-1.46-2,3.07,3.07,0,0,0-2.12-.79,4,4,0,0,0-2.72,1,7.39,7.39,0,0,0-1.86,2.45,15,15,0,0,0-1.15,3.43c-.28,1.28-.49,2.57-.64,3.86s-.24,2.54-.27,3.74,0,2.2,0,3Z"/><path class="cls-1" d="M695.85,750.06,706,766.66a.47.47,0,0,0,.79,0L717,750.06"/><path class="cls-1" d="M689.74,759.47l16.06,26.19a.75.75,0,0,0,1.25,0l16.05-26.19"/><path d="M100.3,165.06a4.41,4.41,0,0,1,1.52,3.44,4.78,4.78,0,0,1-1.44,3.52h-43c-3.84,0-5.76-1.54-5.76-4.64A4.8,4.8,0,0,1,53,163.86l17.28-.16V68.34h-13c-3.84,0-5.76-1.54-5.76-4.64A5.76,5.76,0,0,1,53,60h43a6.15,6.15,0,0,1,4.24,1.36,4.41,4.41,0,0,1,1.52,3.44,4.78,4.78,0,0,1-1.44,3.52H84.7V163.7H96.06A6.15,6.15,0,0,1,100.3,165.06Z"/><path d="M202.3,134.1q2.88,0,2.88,8.48,0,13.6-5.84,21.76t-17,8.16q-11.2,0-17.2-7.68t-6-21.76V124.34q0-19-9.6-19-8.48,0-13.92,8.64t-5.44,29v27.36c-1.06,1.5-2.93,2.24-5.6,2.24a8.48,8.48,0,0,1-6.4-2.48q-2.4-2.47-2.4-7.28v-60.8c1.07-1.49,3.09-2.24,6.08-2.24q8.33,0,8.32,12,6.72-12,21.28-12,10.4,0,16.56,6.56t6.16,18.88v22.72q0,9.12,2.88,13.76a9.43,9.43,0,0,0,8.56,4.64q5.68,0,10-7.12t4.32-24.08Q200.07,134.1,202.3,134.1Z"/><path d="M238.78,107.54H214.62v123c-1.06,1.5-2.93,2.24-5.6,2.24a8.47,8.47,0,0,1-6.4-2.48q-2.4-2.47-2.4-7.28V82.58q0-20.31,4.32-29.92t15.36-9.6q15.84,0,15.84,21.44,0,24.65-16.64,37.44h14.24c2.24,0,3.71.43,4.4,1.28S238.78,105.52,238.78,107.54Zm-9.92-42.88q0-15.36-7.68-15.36a3.93,3.93,0,0,0-3.2,1.36q-1.11,1.37-1.76,7-1.28,9.6-1.6,41Q228.87,88.19,228.86,64.66Z"/><path d="M277.42,99.7q14.16,0,23.12,9.44t9,25.68q0,16.25-8.4,27T278.62,172.5q-14.08,0-23.44-9.68t-9.36-26.88q0-17.19,8.72-26.72T277.42,99.7ZM261,135.86q0,16.32,4.08,23.36t13.36,7q6.41,0,9.84-3.28T293,152.34a44.39,44.39,0,0,1-19.12-9.44,45.1,45.1,0,0,1-12.72-16C261.08,128.72,261,131.7,261,135.86Zm16.48-29.92a12.74,12.74,0,0,0-7.44,2.16,7.05,7.05,0,0,0-3.12,6.16q0,10.24,8,19.6a37.91,37.91,0,0,0,19,12.4q.31-6.07.32-10.4,0-16.64-3.52-23.28T277.5,105.94Zm-1.44-18.56a5.64,5.64,0,0,1-3.92-1.52,11.3,11.3,0,0,1-2.8-4.56l17.44-31q3-5.28,7.68-5.28a5.66,5.66,0,0,1,3.92,1.52,12.81,12.81,0,0,1,3,4.56l-17.76,31.2Q280.55,87.39,276.06,87.38Z"/><path d="M335.1,144.82v25.44c-1.07,1.5-2.93,2.24-5.6,2.24a8.47,8.47,0,0,1-6.4-2.48q-2.4-2.47-2.4-7.28v-60.8c1.07-1.49,2.93-2.24,5.6-2.24a8.52,8.52,0,0,1,6.4,2.48c1.6,1.66,2.4,4.08,2.4,7.28v12.16q8-19.83,22.08-19.84,10.08,0,14.72,5.36a18.84,18.84,0,0,1,4.64,12.72,8.64,8.64,0,0,1-2.4,6.4q-2.4,2.4-4.64,2.4c-2.77,0-4.59-.64-5.44-1.92a19.26,19.26,0,0,0,1-6.88,12.57,12.57,0,0,0-3-8.16,9.25,9.25,0,0,0-7.36-3.68q-7.53,0-13.52,13.68T335.1,144.82Z"/><path d="M423.42,162.74v-38.4q0-19-9.6-19-8,0-12.24,8.8t-4.24,31v25.12c-1.07,1.5-2.94,2.24-5.6,2.24a8.47,8.47,0,0,1-6.4-2.48q-2.4-2.47-2.4-7.28v-60.8q1.59-2.23,5.6-2.24a8.52,8.52,0,0,1,6.4,2.48c1.6,1.66,2.4,4.08,2.4,7.28q5.43-9.75,18.4-9.76,15.19,0,20.48,13,5.43-13,20.32-13,10.4,0,16.56,6.56t6.16,18.88v22.72q0,9.12,2.88,13.76a9.41,9.41,0,0,0,8.56,4.64q5.67,0,10-7.12T505,135.06q.15-1,2.4-1,2.88,0,2.88,8.48,0,13.6-5.84,21.76t-17,8.16q-11.21,0-17.2-7.68t-6-21.76V124.34q0-19-9.6-19-16.32,0-16.32,40.16v24.8c-1.07,1.5-3,2.24-5.68,2.24A9.1,9.1,0,0,1,426,170Q423.42,167.55,423.42,162.74Z"/><path d="M552.7,104.34c1.38-3.09,3.6-4.64,6.64-4.64s5.3.75,6.8,2.24v45.92q0,9.12,2.88,13.76a8.82,8.82,0,0,0,7.84,4.64q15,0,15-31.2.15-1,2.4-1,2.88,0,2.88,8.48,0,13.6-5.84,21.76t-16.4,8.16q-16.17,0-21.44-14.24a26.12,26.12,0,0,1-8.32,10.4,19.89,19.89,0,0,1-12,3.84q-28,0-28-36.64,0-18.56,8.72-27.36T537,99.7Q548.06,99.7,552.7,104.34Zm-30.08,51.2q2.24,7.05,5.12,8.88a14.08,14.08,0,0,0,7.68,1.84q4.8,0,10.48-6t5.68-15.6V122.74q0-7.51-3.92-12.16t-8.8-4.64a25.27,25.27,0,0,0-7.76,1,12.41,12.41,0,0,0-5.44,4q-5.28,5.76-5.28,25Q520.38,148.51,522.62,155.54Z"/><path d="M594.62,78.5a8.81,8.81,0,0,1,12-.24v23.68h21.92c2.24,0,3.7.43,4.4,1.28a7,7,0,0,1,1,4.32H606.62v40.32q0,8.8,5,13.6a16.32,16.32,0,0,0,11.6,4.8q9.91,0,14.56-7.36t4.64-23.84q.31-1,2.4-1,2.88,0,2.88,8.48,0,13-6.48,21.44t-19.92,8.48q-13.44,0-21.28-7t-7.84-21V85.78C592.22,82.58,593,80.16,594.62,78.5Z"/><path d="M710,136q3.36,0,3.36,5.12a32.69,32.69,0,0,1-8.24,21.6q-8.25,9.76-25,9.76t-27-9q-10.17-9-10.16-26.56t9-27.36q9-9.84,22.88-9.84,10.08,0,14.72,5.36a18.84,18.84,0,0,1,4.64,12.72q0,12-10,19.92t-25.52,7.92q1.44,10.24,7.44,15.44t15.84,5.2q9.84,0,17.76-7.44T707.58,137Q707.73,136,710,136Zm-51.84,2.24v1.44a38.86,38.86,0,0,0,17.2-6.24q7.27-5,7.28-14.72,0-6.24-2.72-9.52a9.46,9.46,0,0,0-7.68-3.28q-7.53,0-10.8,7.36T658.14,138.26Z"/><path d="M88.08,245.18A20.74,20.74,0,0,1,79,254,31.63,31.63,0,0,1,64.47,257H49.13V206.26H64.47q12.81,0,19.76,6.74t7,18.61A28.07,28.07,0,0,1,88.08,245.18ZM80.45,247q5.61-5.5,5.62-15.37t-5.62-15.37q-5.61-5.52-16.34-5.51H54.24v41.76h9.87Q74.84,252.49,80.45,247Z"/><path d="M105.5,210.37v19.15h19.8v4H105.5v19.37h22V257H100.39V206.26h27.07v4.11Z"/><path d="M271.37,335.45a21.46,21.46,0,0,1-8.91-4.66q-6.4-5.67-6.4-17.45,0-9.75,3.71-26.48,1.74-7.92,3.92-16.22l4.59-18.11,4.94-19.64Q260.93,236.1,254,244.82q-7.14,9-7.13,22.33a20.35,20.35,0,0,0,1.09,7.56,6,6,0,0,0,.73,1.61,2.2,2.2,0,0,1,.29,1.09q-7.78,0-11.71-3.06Q233,271.08,233,263.73a25.56,25.56,0,0,1,2.15-10.11,36,36,0,0,1,6.07-9.52,48.1,48.1,0,0,1,9.05-8,65.74,65.74,0,0,1,11.61-6.32,70.37,70.37,0,0,1,27.42-5.53c1.26,0,2.37,0,3.34.14s2.23.3,3.78.59q-4.43,16.29-6.25,23.12l-5.09,18.7q-4.87,18-6.55,26.18a80.83,80.83,0,0,0-2.18,16q0,6.69,2.4,10.07t7.85,3.39a30.79,30.79,0,0,0,6.11-.51,11.87,11.87,0,0,0,4.66-2.11,17.15,17.15,0,0,0,4.4-5.06,55.33,55.33,0,0,0,4.25-9.12q4.23-11.49,9.39-35.06l10-46h21L336.5,271q-2.7,12.57-5,21.49a129.37,129.37,0,0,1-5.09,15.74,62.57,62.57,0,0,1-6.73,12.84,36.47,36.47,0,0,1-8.62,8.84,35.94,35.94,0,0,1-11.45,5.31A56.59,56.59,0,0,1,284.86,337,51.39,51.39,0,0,1,271.37,335.45ZM313.73,187h15.64l-18,28.15H300.21Z"/><path d="M343.84,332.61q-4.65-4.65-4.65-13.6a48.5,48.5,0,0,1,1.16-9.75l15.93-74.62,22-3L361.23,312.1a16.55,16.55,0,0,0-.58,4.8q0,3.06,1.41,4.29c.95.83,2.49,1.24,4.62,1.24a9.9,9.9,0,0,0,4.26-1,14,14,0,0,0,3.82-2.73,22.52,22.52,0,0,0,5.38-9.46h6.25q-4,11.28-10,18a30.21,30.21,0,0,1-11.5,7.85,27.36,27.36,0,0,1-9.74,1.75Q348,336.83,343.84,332.61Z"/><path d="M383.63,332.61Q379,328,379,319a47.87,47.87,0,0,1,1.17-9.75l8.94-41.82h-4.94l1.23-6h4.88l4.51-20.58,22-3-5.09,23.57h8.95l-1.16,6h-8.95L401,312.1a16.55,16.55,0,0,0-.58,4.8c0,2,.47,3.47,1.42,4.29s2.48,1.24,4.62,1.24a9.89,9.89,0,0,0,4.25-1,13.84,13.84,0,0,0,3.82-2.73,22.41,22.41,0,0,0,5.38-9.46h6.26q-4,11.28-10,18a30.18,30.18,0,0,1-11.49,7.85,27.38,27.38,0,0,1-9.75,1.75Q387.78,336.83,383.63,332.61Z"/><path d="M423.41,332.61q-4.65-4.65-4.65-13.6a48.5,48.5,0,0,1,1.16-9.75L430,261.48h21.46L440.8,312.1a16.52,16.52,0,0,0-.59,4.8c0,2,.48,3.47,1.42,4.29s2.49,1.24,4.62,1.24a9.93,9.93,0,0,0,4.26-1,13.79,13.79,0,0,0,3.81-2.73,22.53,22.53,0,0,0,5.39-9.46H466q-4,11.28-10,18a30.1,30.1,0,0,1-11.49,7.85,27.36,27.36,0,0,1-9.74,1.75C429.93,336.83,426.18,335.42,423.41,332.61Zm16.8-80.11a11.84,11.84,0,0,1-3.78-2.51,11,11,0,0,1-2.51-3.71,12,12,0,0,1,0-9.17,12.62,12.62,0,0,1,2.51-3.85,11,11,0,0,1,3.78-2.58,12,12,0,0,1,9.17,0,11.64,11.64,0,0,1,3.85,2.58,11.77,11.77,0,0,1,3.49,8.43,12,12,0,0,1-.9,4.59,10.4,10.4,0,0,1-2.59,3.71,12.62,12.62,0,0,1-3.85,2.51,12.13,12.13,0,0,1-9.17,0Z"/><path d="M536.58,331.59q-3.86-4.5-3.85-11.56a42.61,42.61,0,0,1,.84-7.79q.82-4.42,2.51-11.41,1.67-7.14,2.51-11.39a39.47,39.47,0,0,0,.83-7.38q0-7.63-5.38-7.64c-2.52,0-4.85,1.34-7,4a30.34,30.34,0,0,0-4.66,9.75L512.29,336H490.84l10.91-51.43a15.28,15.28,0,0,0,.43-3.71,9.12,9.12,0,0,0-.94-4.58,4,4,0,0,0-3.57-2q-4.21,0-7.34,4.07a30.25,30.25,0,0,0-4.73,9.82L475.49,336H454l15.79-74.48h21.45l-1.6,7.71a25.39,25.39,0,0,1,9.53-6.91,24.43,24.43,0,0,1,8.66-1.53q6.25,0,10,2.91,4.14,3.27,5.31,9.89,4.8-7.41,11-10.47a21.58,21.58,0,0,1,9.68-2.18q7.49,0,11.85,3.92,4.66,4.29,4.66,12.88a69.45,69.45,0,0,1-1.82,13.45q-.74,3.57-1.75,7.2-1.81,7-3,12.88a27.36,27.36,0,0,0-.58,4.94,7.07,7.07,0,0,0,1.35,4.62q1.33,1.63,4.61,1.64a9.43,9.43,0,0,0,7.5-3.64q2.32-2.76,5-9.53H578q-5.54,16.37-14,22.91a21.65,21.65,0,0,1-13.74,4.66Q541,336.83,536.58,331.59Z"/><path d="M575.86,331.52q-6.11-6.25-6.11-18.62a62.4,62.4,0,0,1,1-11.06,72.64,72.64,0,0,1,3.1-11.49q4.65-12.8,12.72-20.65,9.32-9,21.46-8.95,6,0,9.06,2.07a6.37,6.37,0,0,1,3,5.49v1.1l1.6-7.93h21.46L632.52,312.1a16.48,16.48,0,0,0-.66,4.8q0,6.41,6.11,6.4,4.08,0,7.42-4.15a27.71,27.71,0,0,0,4.66-9.89h6.25q-4,11.36-9.67,18a28.4,28.4,0,0,1-10.84,7.85,25.26,25.26,0,0,1-9.38,1.75q-6.33,0-10.07-3.46t-4.55-10.22a39,39,0,0,1-8.87,9.31,22,22,0,0,1-13.31,4.37Q581.09,336.83,575.86,331.52Zm26.95-10a14.57,14.57,0,0,0,3.6-2.47,18.7,18.7,0,0,0,5.23-9.82l7.13-33.6a5.54,5.54,0,0,0-.33-1.71,7.72,7.72,0,0,0-.9-1.85,6,6,0,0,0-4.88-2.11,9.93,9.93,0,0,0-5.78,2,22.06,22.06,0,0,0-5.27,5.46,55.12,55.12,0,0,0-7.2,16.51,66.68,66.68,0,0,0-2,8.91,55.3,55.3,0,0,0-.65,8q0,7.43,2.76,10a4.35,4.35,0,0,0,2.11,1.31,11.06,11.06,0,0,0,2.62.29A8.23,8.23,0,0,0,602.81,321.55Z"/><path d="M657.47,335.19a19.64,19.64,0,0,1-7-4.54,18.26,18.26,0,0,1-5.23-12.88,16.16,16.16,0,0,1,2.47-8.8,12.81,12.81,0,0,1,5.45-5A179.42,179.42,0,0,0,663.28,283q4.29-10.62,8.22-23.2l22-2.91q.87,18.9,1.6,29,.72,10.4,1.24,15.27.43,5.67.43,9.89a20.54,20.54,0,0,1-.58,5.67,66.84,66.84,0,0,0,10.69-7.49h6.26a78.78,78.78,0,0,1-10.95,10.62,98.49,98.49,0,0,1-11.82,8,26.79,26.79,0,0,1-11.12,6.91,36.91,36.91,0,0,1-12.3,2A25.77,25.77,0,0,1,657.47,335.19ZM671.21,322q4-3.63,4-10.76,0-3-.36-7.49l-.37-4.44q-.65-5.74-1.3-13.31l-.8-10a131.46,131.46,0,0,1-5,13.42q-2.91,6.66-7.06,14.73,3.42,1.89,3.42,5.16a7.58,7.58,0,0,1-1.75,5,5.93,5.93,0,0,1-4.8,2.33,6.37,6.37,0,0,1-2.43-.4,3.07,3.07,0,0,1-1.57-1.57c0,3.59.71,6.22,2.11,7.9s3.74,2.51,7,2.51A12.73,12.73,0,0,0,671.21,322Z"/><path class="cls-2" d="M109.18,385.67v82h-.43l-55.1-49.75L54,464.42H38.24V382.57h.64l55,50.5-.32-47.4Z"/><path class="cls-2" d="M130.1,405.15a40.76,40.76,0,0,1,14.66-14.82,39.27,39.27,0,0,1,40.12,0,41.7,41.7,0,0,1,14.77,14.82,39.27,39.27,0,0,1,0,40.12,41.11,41.11,0,0,1-14.77,14.61,40.07,40.07,0,0,1-40.18,0,40.34,40.34,0,0,1-14.6-14.61,39.9,39.9,0,0,1,0-40.12ZM144,437.78a24.53,24.53,0,0,0,8.88,9.15,23.72,23.72,0,0,0,12.46,3.37,22.49,22.49,0,0,0,12.09-3.37,23.78,23.78,0,0,0,8.56-9.1,27.34,27.34,0,0,0-.1-25.52,24.39,24.39,0,0,0-8.72-9.14,24,24,0,0,0-24.51,0,24.39,24.39,0,0,0-8.72,9.14,26,26,0,0,0-3.21,12.85A25.18,25.18,0,0,0,144,437.78Z"/><path class="cls-2" d="M280.49,385.67l-36,82.39-35.95-82.39H227.2l18,44.41,16.9-44.41Z"/><path class="cls-2" d="M347.79,385.67v15h-38.2v16.8H343.4v15H309.59v17h39.7v15H294.07V385.67Z"/><path class="cls-2" d="M365.33,385.67h23.54q15.09,0,24.83,5.83a35.33,35.33,0,0,1,14.18,15.09,45.45,45.45,0,0,1,4.44,19.85,37.38,37.38,0,0,1-5.35,20,35.94,35.94,0,0,1-14.4,13.32,42.71,42.71,0,0,1-19.84,4.65h-27.4Zm24.72,63.77q12.09,0,19.15-6.2t7.07-17.87q0-9.42-3.91-15a21,21,0,0,0-9.09-7.71,25.89,25.89,0,0,0-9.79-2.14H380.85v48.9Z"/><path class="cls-2" d="M481.43,449H455.32l-6.42,15.4H433.6l35.53-81.85H470l35.53,81.85h-18ZM476.29,436l-7.59-19.15L460.78,436Z"/><path class="cls-2" d="M517,385.67h23.54q15.09,0,24.83,5.83a35.39,35.39,0,0,1,14.18,15.09,45.45,45.45,0,0,1,4.44,19.85,37.38,37.38,0,0,1-5.35,20,35.94,35.94,0,0,1-14.4,13.32,42.71,42.71,0,0,1-19.84,4.65H517Zm24.72,63.77q12.09,0,19.15-6.2t7.07-17.87q0-9.42-3.91-15a21.07,21.07,0,0,0-9.09-7.71,25.93,25.93,0,0,0-9.79-2.14H532.47v48.9Z"/><path class="cls-2" d="M653.16,385.67v15H615v16.8h33.81v15H615v17h39.69v15H599.45V385.67Z"/><path class="cls-2" d="M694.89,399.05q-5.13,0-8,2a7,7,0,0,0-2.83,6.1q0,3.75,4.12,6.58a51.24,51.24,0,0,0,11,5.4,45.74,45.74,0,0,1,9.53,4.66,20.93,20.93,0,0,1,6.58,7.22,23.42,23.42,0,0,1,2.62,11.66A21.36,21.36,0,0,1,714.74,454a22,22,0,0,1-9.25,8.24,32.28,32.28,0,0,1-14.56,3,48.54,48.54,0,0,1-14-2.09A43.74,43.74,0,0,1,664,456.83l6.85-12.09a37.57,37.57,0,0,0,9.31,4.92,27.7,27.7,0,0,0,9.41,1.92,16.91,16.91,0,0,0,8.56-2.08q3.64-2.08,3.64-6.8,0-6.09-11.45-10.59A99.82,99.82,0,0,1,679.06,427a23,23,0,0,1-7.76-7.06A19.43,19.43,0,0,1,668,408.36q0-10.17,6.68-16.38t17.82-6.74a46.55,46.55,0,0,1,14.66,2,50.4,50.4,0,0,1,11.45,5.62l-5.89,11.88Q702.48,399,694.89,399.05Z"/><path d="M314.49,524.71v14.54H290.08v80H275v-80H251.27V524.71Z"/><path d="M359.53,597h-34.4L316,619.21H301.12l41.79-98.39h.91l41.8,98.39H368.23Zm-5.06-13-11.82-29.85L330.45,584Z"/><path d="M435.46,524.71v14.54h-24.4v80H396v-80H372.25V524.71Z"/><path d="M496,524.71v14.54h-24.4v80H456.49v-80H432.74V524.71Z"/><path d="M497,548a49.37,49.37,0,0,1,17.59-17.72,47.34,47.34,0,0,1,48.29,0,50.22,50.22,0,0,1,17.71,17.79,47.32,47.32,0,0,1,.07,48.16,48.88,48.88,0,0,1-17.72,17.52,48.46,48.46,0,0,1-48.35.06A48,48,0,0,1,497,596.37,48.29,48.29,0,0,1,497,548Zm13.5,41a33.45,33.45,0,0,0,12,12.2,31.86,31.86,0,0,0,16.68,4.54,30.92,30.92,0,0,0,16.35-4.48A32.78,32.78,0,0,0,567.28,589a35,35,0,0,0-.07-33.94,33.33,33.33,0,0,0-11.94-12.33,32.25,32.25,0,0,0-33,0,33,33,0,0,0-11.82,12.33,34.27,34.27,0,0,0-4.34,17A33.23,33.23,0,0,0,510.49,589Z"/><path d="M592.79,548a49.35,49.35,0,0,1,17.58-17.72,47.34,47.34,0,0,1,48.29,0,50.25,50.25,0,0,1,17.72,17.79,47.32,47.32,0,0,1,.07,48.16,49,49,0,0,1-17.72,17.52,48.48,48.48,0,0,1-48.36.06,47.92,47.92,0,0,1-17.58-17.45,48.29,48.29,0,0,1,0-48.36Zm13.5,41a33.5,33.5,0,0,0,12,12.2A31.88,31.88,0,0,0,635,605.71a31,31,0,0,0,16.36-4.48A32.86,32.86,0,0,0,663.08,589a35.1,35.1,0,0,0-.07-33.94,33.33,33.33,0,0,0-11.94-12.33,32.27,32.27,0,0,0-33,0,33.07,33.07,0,0,0-11.81,12.33,34.28,34.28,0,0,0-4.35,17A33.14,33.14,0,0,0,606.29,589Z"/><rect class="cls-3" x="38" y="472.5" width="39.59" height="45"/><rect class="cls-4" x="67.32" y="493.41" width="7.35" height="4.5"/><rect class="cls-4" x="54.14" y="493.41" width="7.35" height="4.5"/><rect class="cls-4" x="41" y="493.41" width="7.35" height="4.5"/><rect class="cls-3" x="77.59" y="472.5" width="39.59" height="45"/><rect class="cls-4" x="106.9" y="493.41" width="7.35" height="4.5"/><rect class="cls-4" x="93.72" y="493.41" width="7.35" height="4.5"/><rect class="cls-4" x="80.59" y="493.41" width="7.35" height="4.5"/><rect class="cls-3" x="117.18" y="472.5" width="39.59" height="45"/><rect class="cls-4" x="146.49" y="493.41" width="7.35" height="4.5"/><rect class="cls-4" x="133.31" y="493.41" width="7.35" height="4.5"/><rect class="cls-4" x="120.18" y="493.41" width="7.35" height="4.5"/><rect class="cls-3" x="156.76" y="472.5" width="39.59" height="45"/><rect class="cls-4" x="186.08" y="493.41" width="7.35" height="4.5"/><rect class="cls-4" x="172.9" y="493.41" width="7.35" height="4.5"/><rect class="cls-4" x="159.76" y="493.41" width="7.35" height="4.5"/><rect class="cls-3" x="196.35" y="472.5" width="39.59" height="45"/><rect class="cls-4" x="225.67" y="493.41" width="7.35" height="4.5"/><rect class="cls-4" x="212.49" y="493.41" width="7.35" height="4.5"/><rect class="cls-4" x="199.35" y="493.41" width="7.35" height="4.5"/><rect class="cls-3" x="235.94" y="472.5" width="39.59" height="45"/><rect class="cls-4" x="265.26" y="493.41" width="7.35" height="4.5"/><rect class="cls-4" x="252.08" y="493.41" width="7.35" height="4.5"/><rect class="cls-4" x="238.94" y="493.41" width="7.35" height="4.5"/><rect class="cls-3" x="275.53" y="472.5" width="39.59" height="45"/><rect class="cls-4" x="304.84" y="493.41" width="7.35" height="4.5"/><rect class="cls-4" x="291.67" y="493.41" width="7.35" height="4.5"/><rect class="cls-4" x="278.53" y="493.41" width="7.35" height="4.5"/><rect class="cls-3" x="315.12" y="472.5" width="39.59" height="45"/><rect class="cls-4" x="344.43" y="493.41" width="7.35" height="4.5"/><rect class="cls-4" x="331.25" y="493.41" width="7.35" height="4.5"/><rect class="cls-4" x="318.12" y="493.41" width="7.35" height="4.5"/><rect class="cls-3" x="354.71" y="472.5" width="39.59" height="45"/><rect class="cls-4" x="384.02" y="493.41" width="7.35" height="4.5"/><rect class="cls-4" x="370.84" y="493.41" width="7.35" height="4.5"/><rect class="cls-4" x="357.71" y="493.41" width="7.35" height="4.5"/><rect class="cls-3" x="394.29" y="472.5" width="39.59" height="45"/><rect class="cls-4" x="423.61" y="493.41" width="7.35" height="4.5"/><rect class="cls-4" x="410.43" y="493.41" width="7.35" height="4.5"/><rect class="cls-4" x="397.29" y="493.41" width="7.35" height="4.5"/><rect class="cls-3" x="433.88" y="472.5" width="39.59" height="45"/><rect class="cls-4" x="463.2" y="493.41" width="7.35" height="4.5"/><rect class="cls-4" x="450.02" y="493.41" width="7.35" height="4.5"/><rect class="cls-4" x="436.88" y="493.41" width="7.35" height="4.5"/><rect class="cls-3" x="473.47" y="472.5" width="39.59" height="45"/><rect class="cls-4" x="502.79" y="493.41" width="7.35" height="4.5"/><rect class="cls-4" x="489.61" y="493.41" width="7.35" height="4.5"/><rect class="cls-4" x="476.47" y="493.41" width="7.35" height="4.5"/><rect class="cls-3" x="513.06" y="472.5" width="39.59" height="45"/><rect class="cls-4" x="542.37" y="493.41" width="7.35" height="4.5"/><rect class="cls-4" x="529.19" y="493.41" width="7.35" height="4.5"/><rect class="cls-4" x="516.06" y="493.41" width="7.35" height="4.5"/><rect class="cls-3" x="552.65" y="472.5" width="39.59" height="45"/><rect class="cls-4" x="581.96" y="493.41" width="7.35" height="4.5"/><rect class="cls-4" x="568.78" y="493.41" width="7.35" height="4.5"/><rect class="cls-4" x="555.65" y="493.41" width="7.35" height="4.5"/><rect class="cls-3" x="592.24" y="472.5" width="39.59" height="45"/><rect class="cls-4" x="621.55" y="493.41" width="7.35" height="4.5"/><rect class="cls-4" x="608.37" y="493.41" width="7.35" height="4.5"/><rect class="cls-4" x="595.23" y="493.41" width="7.35" height="4.5"/><rect class="cls-3" x="631.82" y="472.5" width="39.59" height="45"/><rect class="cls-4" x="661.14" y="493.41" width="7.35" height="4.5"/><rect class="cls-4" x="647.96" y="493.41" width="7.35" height="4.5"/><rect class="cls-4" x="634.82" y="493.41" width="7.35" height="4.5"/><rect class="cls-3" x="671.41" y="472.5" width="39.59" height="45"/><rect class="cls-4" x="700.73" y="493.41" width="7.35" height="4.5"/><rect class="cls-4" x="687.55" y="493.41" width="7.35" height="4.5"/><rect class="cls-4" x="674.41" y="493.41" width="7.35" height="4.5"/><rect class="cls-3" x="684" y="498.5" width="45" height="41.33"/><rect class="cls-4" x="703.59" y="529.11" width="4.5" height="7.67"/><rect class="cls-4" x="703.59" y="515.35" width="4.5" height="7.67"/><rect class="cls-4" x="703.59" y="501.63" width="4.5" height="7.67"/><rect class="cls-3" x="684" y="539.83" width="45" height="41.33"/><rect class="cls-4" x="703.59" y="570.44" width="4.5" height="7.67"/><rect class="cls-4" x="703.59" y="556.68" width="4.5" height="7.67"/><rect class="cls-4" x="703.59" y="542.97" width="4.5" height="7.67"/><rect class="cls-3" x="684" y="581.17" width="45" height="41.33"/><rect class="cls-4" x="703.59" y="611.77" width="4.5" height="7.67"/><rect class="cls-4" x="703.59" y="598.01" width="4.5" height="7.67"/><rect class="cls-4" x="703.59" y="584.3" width="4.5" height="7.67"/><rect class="cls-3" x="684" y="622.5" width="45" height="41.33"/><rect class="cls-4" x="703.59" y="653.11" width="4.5" height="7.67"/><rect class="cls-4" x="703.59" y="639.35" width="4.5" height="7.67"/><rect class="cls-4" x="703.59" y="625.63" width="4.5" height="7.67"/><rect class="cls-3" x="684" y="663.83" width="45" height="41.33"/><rect class="cls-4" x="703.59" y="694.44" width="4.5" height="7.67"/><rect class="cls-4" x="703.59" y="680.68" width="4.5" height="7.67"/><rect class="cls-4" x="703.59" y="666.97" width="4.5" height="7.67"/><rect class="cls-3" x="684" y="705.17" width="45" height="41.33"/><rect class="cls-4" x="703.59" y="735.77" width="4.5" height="7.67"/><rect class="cls-4" x="703.59" y="722.01" width="4.5" height="7.67"/><rect class="cls-4" x="703.59" y="708.3" width="4.5" height="7.67"/><path d="M48.62,333.63V271.46h3.57v58.86h33.1v3.31Z"/><path d="M98.77,333.63H94.84l26.72-62.17h3.58l26.72,62.17h-3.93l-25.76-60h2.27Zm7-17.2,1-3.49h33.53l1.14,3.49Z"/><path d="M187.69,334.33a42,42,0,0,1-8.9-.87A26.72,26.72,0,0,1,165.08,326l1.83-3.06a29.07,29.07,0,0,0,9.35,6.07,32.12,32.12,0,0,0,11.43,1.79q8.3,0,12.88-3.53a11.79,11.79,0,0,0,4.59-9.91,8,8,0,0,0-2.45-6.25,17.16,17.16,0,0,0-6.28-3.49c-2.57-.84-5.27-1.59-8.12-2.23q-3.67-.87-7.56-2a35.37,35.37,0,0,1-7.2-2.88,15.26,15.26,0,0,1-5.37-4.76,13.39,13.39,0,0,1-2.05-7.77,15.75,15.75,0,0,1,2.62-9,17.06,17.06,0,0,1,7.42-6,28,28,0,0,1,11.44-2.14,33.42,33.42,0,0,1,7.94.92,26.43,26.43,0,0,1,7,2.8,25.2,25.2,0,0,1,5.9,4.67l-1.84,3.05a29.88,29.88,0,0,0-8.9-6,26.34,26.34,0,0,0-10.13-1.88q-8.38,0-13.06,3.67a12.18,12.18,0,0,0-4.67,10.13,9.48,9.48,0,0,0,2.23,6.59,14.86,14.86,0,0,0,5.76,3.89,57.7,57.7,0,0,0,7.47,2.36q3.84,1,8,1.92a41.88,41.88,0,0,1,7.72,2.57,14.87,14.87,0,0,1,5.77,4.46,12.25,12.25,0,0,1,2.18,7.64,14.84,14.84,0,0,1-2.62,8.73,17.43,17.43,0,0,1-7.42,5.89A27.44,27.44,0,0,1,187.69,334.33Z"/></g></svg>