<svg xmlns="http://www.w3.org/2000/svg" viewBox="0 0 697 815"><defs><style>.cls-1,.cls-2,.cls-3{fill:none;}.cls-1,.cls-2{stroke:#000;}.cls-1{stroke-linecap:round;stroke-width:3px;}.cls-2{stroke-width:6px;}.cls-4{fill:#211915;}</style></defs><title>prop-valor-eventos</title><g id="Capa_9" data-name="Capa 9"><path d="M23.73,570a7.14,7.14,0,0,0-1.93.26,4.42,4.42,0,0,0-1.61.87,3.91,3.91,0,0,0-1.1,1.5,5.21,5.21,0,0,0-.4,2.14A5.75,5.75,0,0,0,20,578.2a29.25,29.25,0,0,0,3.14,3.53c1.25,1.23,2.6,2.49,4.06,3.81a44.22,44.22,0,0,1,4.07,4.15,23.67,23.67,0,0,1,3.14,4.66,11.57,11.57,0,0,1,1.26,5.31,13.87,13.87,0,0,1-1.09,5.66,11.54,11.54,0,0,1-3.09,4.2,13.85,13.85,0,0,1-4.86,2.63,21,21,0,0,1-6.34.9,16.59,16.59,0,0,1-5.53-.86,19.74,19.74,0,0,1-4.4-2.12A18.85,18.85,0,0,1,7,607.39a17,17,0,0,1-2.12-2.56l1.54-1.1a15.42,15.42,0,0,0,1.46,1.43,14.07,14.07,0,0,0,2,1.44,11.44,11.44,0,0,0,2.32,1.08,7.75,7.75,0,0,0,2.52.42,8.53,8.53,0,0,0,5.22-1.52,5.33,5.33,0,0,0,2-4.53,6.58,6.58,0,0,0-1.11-3.47,25.83,25.83,0,0,0-2.78-3.69Q16.39,593,14.44,591a52.85,52.85,0,0,1-3.62-4.2A25,25,0,0,1,8,582.29a11,11,0,0,1-1.1-4.78,10.08,10.08,0,0,1,1.13-4.86,10.39,10.39,0,0,1,3-3.45,13.42,13.42,0,0,1,4.29-2.05,18,18,0,0,1,5-.69,25.61,25.61,0,0,1,5.4.53,13.11,13.11,0,0,1,4.17,1.62,7.69,7.69,0,0,1,2.7,2.71,7.51,7.51,0,0,1,.95,3.81,4.24,4.24,0,0,1-1.1,2.91,3.93,3.93,0,0,1-3.1,1.24,4.41,4.41,0,0,1-2.89-.82,2.71,2.71,0,0,1-1-2.23,2.15,2.15,0,0,1,.47-1.46,4,4,0,0,1,1-.86l1-.57a.74.74,0,0,0,.47-.64,2.2,2.2,0,0,0-1.33-2A7,7,0,0,0,23.73,570Z"/><path d="M41,589.71a28.06,28.06,0,0,1,1.68-10.14,21.49,21.49,0,0,1,4.49-7.27,18,18,0,0,1,6.52-4.38,21.12,21.12,0,0,1,7.78-1.46,22.62,22.62,0,0,1,7.78,1.35,18,18,0,0,1,6.52,4.13,20.26,20.26,0,0,1,4.48,7,27.53,27.53,0,0,1,1.68,10.1,29,29,0,0,1-1.68,10.26,22.72,22.72,0,0,1-4.48,7.51,18.61,18.61,0,0,1-6.52,4.62,19.74,19.74,0,0,1-7.78,1.57,20.74,20.74,0,0,1-7.78-1.48,18.35,18.35,0,0,1-6.52-4.4,21.39,21.39,0,0,1-4.49-7.29A28.3,28.3,0,0,1,41,589.71Zm27.19-.44c0-2.36-.09-4.63-.25-6.83a30.43,30.43,0,0,0-1-5.85,10.32,10.32,0,0,0-2-4.09A4.41,4.41,0,0,0,61.48,571a4.33,4.33,0,0,0-3.5,1.61,11.22,11.22,0,0,0-2,4.25,31.28,31.28,0,0,0-.93,6c-.14,2.24-.22,4.54-.22,6.89s.08,4.67.22,6.92a31.83,31.83,0,0,0,.93,6,11.2,11.2,0,0,0,2,4.26,4.3,4.3,0,0,0,3.5,1.61A4.24,4.24,0,0,0,65,606.86a11.85,11.85,0,0,0,2-4.42,34.48,34.48,0,0,0,1-6.18C68.11,594,68.2,591.63,68.2,589.27Z"/><path d="M88.75,551.34a4.11,4.11,0,0,0-.6-2.23,2.18,2.18,0,0,0-2-1,3.08,3.08,0,0,0-1.3.25,5.46,5.46,0,0,0-1.17.72l-.89-1.06a24,24,0,0,1,2.28-1.65A17.14,17.14,0,0,1,87.78,545a20.27,20.27,0,0,1,3.14-1,15.52,15.52,0,0,1,3.53-.39,9.38,9.38,0,0,1,4.14.77,6.26,6.26,0,0,1,2.38,1.9,6.19,6.19,0,0,1,1.09,2.43,12.63,12.63,0,0,1,.26,2.41v19.71c.35-.32.81-.72,1.37-1.21a12.18,12.18,0,0,1,2.12-1.44,13.85,13.85,0,0,1,3.08-1.19,15.94,15.94,0,0,1,4.22-.49,13.38,13.38,0,0,1,5.65,1.31,14.25,14.25,0,0,1,5.09,4.09,22.16,22.16,0,0,1,3.67,7.16,34.48,34.48,0,0,1,1.41,10.52,31.09,31.09,0,0,1-1.3,9.1,22.24,22.24,0,0,1-3.87,7.5,18.37,18.37,0,0,1-6.41,5.06,20.41,20.41,0,0,1-8.93,1.85,21.55,21.55,0,0,1-9.3-1.79A16.08,16.08,0,0,1,93,606.44a19.12,19.12,0,0,1-3.3-7.05,35.37,35.37,0,0,1-1-8.48Zm26.35,39a63,63,0,0,0-.4-7.22,28.45,28.45,0,0,0-1.28-5.93,11.45,11.45,0,0,0-2.26-4,4.59,4.59,0,0,0-5.86-.75,6.89,6.89,0,0,0-1.7,1.66,7.23,7.23,0,0,0-1,1.83,4.61,4.61,0,0,0-.31,1.22v13.21q0,9.64,1.61,14c1.08,2.92,2.66,4.38,4.76,4.38s3.83-1.49,4.86-4.46S115.1,596.64,115.1,590.33Z"/><path d="M151.56,575.79a36.68,36.68,0,0,1,3.58-4.64,23.53,23.53,0,0,1,1.73-1.73,16.62,16.62,0,0,1,1.92-1.5,10.31,10.31,0,0,1,2.06-1.06,6.08,6.08,0,0,1,2.12-.4,4.63,4.63,0,0,1,3.53,1.35,5.25,5.25,0,0,1,1.29,3.78,17.1,17.1,0,0,1-.25,2.9,21.72,21.72,0,0,1-.95,3.38h-1.24a3.73,3.73,0,0,0-4.06-3.19,7.47,7.47,0,0,0-2.7.51,17.06,17.06,0,0,0-2.58,1.26,22.4,22.4,0,0,0-2.39,1.64c-.75.59-1.44,1.15-2.06,1.68v28.69a7,7,0,0,1-.17,1.37,3.14,3.14,0,0,1-.87,1.5,5.32,5.32,0,0,1-2,1.21,10.75,10.75,0,0,1-3.69.51,10,10,0,0,1-3.69-.55,5.84,5.84,0,0,1-2.06-1.3,3.37,3.37,0,0,1-.88-1.55,6.13,6.13,0,0,1-.18-1.28V574.24a4.17,4.17,0,0,0-.59-2.23,2.21,2.21,0,0,0-2-1,3,3,0,0,0-1.28.26,7.29,7.29,0,0,0-1.15.76L132,571a24.3,24.3,0,0,1,2.27-1.66,18,18,0,0,1,2.72-1.43,19.25,19.25,0,0,1,3.14-1,15.61,15.61,0,0,1,3.54-.4,9.18,9.18,0,0,1,3.24.51,6.38,6.38,0,0,1,2.21,1.33,6,6,0,0,1,1.35,1.83,9.57,9.57,0,0,1,.73,2.06,11.12,11.12,0,0,1,.29,2C151.55,574.81,151.56,575.35,151.56,575.79Z"/><path d="M183,592.06a12.6,12.6,0,0,0,.42,3.07,18.52,18.52,0,0,0,1.22,3.34,17.73,17.73,0,0,0,2,3.2,15.11,15.11,0,0,0,2.7,2.72,13,13,0,0,0,3.38,1.9,11.41,11.41,0,0,0,4.07.71,10.9,10.9,0,0,0,2.87-.36,11.22,11.22,0,0,0,2.48-1,16.07,16.07,0,0,0,2.21-1.44c.71-.54,1.41-1.12,2.12-1.74l1.11,1.06a32.39,32.39,0,0,1-2.61,3,21.53,21.53,0,0,1-3.85,3.07A22.18,22.18,0,0,1,189,613a20.8,20.8,0,0,1-7.49-1.39,18.65,18.65,0,0,1-6.48-4.18,20.39,20.39,0,0,1-4.53-6.93,25.71,25.71,0,0,1-1.7-9.73,25.32,25.32,0,0,1,1-7.38,23.3,23.3,0,0,1,2.76-6.06,22.63,22.63,0,0,1,4.06-4.73,25.62,25.62,0,0,1,4.89-3.38,23.55,23.55,0,0,1,5.24-2,21.33,21.33,0,0,1,10.85,0,12.53,12.53,0,0,1,4,1.9,7.92,7.92,0,0,1,2.41,2.76,7.24,7.24,0,0,1,.8,3.3,6.26,6.26,0,0,1-1.19,3.73,11.08,11.08,0,0,1-3.19,2.9Zm8.89-9a6.72,6.72,0,0,0,1-.68,2.35,2.35,0,0,0,.59-.8,4.37,4.37,0,0,0,.34-1.15,11.32,11.32,0,0,0,.11-1.7,14.13,14.13,0,0,0-.25-2.45,9.79,9.79,0,0,0-.81-2.54,6.38,6.38,0,0,0-1.46-2,3.08,3.08,0,0,0-2.13-.8,4.07,4.07,0,0,0-2.71.95,7.36,7.36,0,0,0-1.86,2.45,15.34,15.34,0,0,0-1.15,3.43,39,39,0,0,0-.64,3.87c-.15,1.3-.24,2.54-.27,3.73s0,2.21,0,3Z"/><path class="cls-1" d="M664.85,767,675,783.58a.47.47,0,0,0,.79,0L686,767"/><path class="cls-1" d="M658.74,776.39l16.06,26.18a.74.74,0,0,0,1.25,0l16.05-26.18"/><path d="M57.14,156.63a4.57,4.57,0,0,1,1.56,3.54,4.93,4.93,0,0,1-1.48,3.63H12.93Q7,163.8,7,159a4.91,4.91,0,0,1,1.48-3.62l17.78-.17V57.1H12.93Q7,57.1,7,52.32a5.9,5.9,0,0,1,1.48-3.78H52.77a6.35,6.35,0,0,1,4.37,1.4,4.54,4.54,0,0,1,1.56,3.54,4.93,4.93,0,0,1-1.48,3.62H41.08v98.13H52.77A6.35,6.35,0,0,1,57.14,156.63Z"/><path d="M162.1,124.77q3,0,3,8.73,0,14-6,22.39t-17.54,8.4q-11.52,0-17.7-7.9T117.65,134V114.73q0-19.59-9.88-19.6-8.73,0-14.33,8.9t-5.6,29.8V162c-1.09,1.54-3,2.31-5.76,2.31a8.73,8.73,0,0,1-6.58-2.55Q73,159.19,73,154.24V91.68c1.09-1.54,3.18-2.31,6.25-2.31q8.56,0,8.56,12.35,6.91-12.34,21.9-12.35,10.71,0,17,6.75t6.34,19.43v23.38q0,9.39,3,14.16a9.69,9.69,0,0,0,8.81,4.78q5.83,0,10.29-7.33t4.44-24.78C159.74,125.1,160.56,124.77,162.1,124.77Z"/><path d="M199.64,97.44H174.78V224.06q-1.65,2.3-5.76,2.3a8.75,8.75,0,0,1-6.59-2.55c-1.64-1.7-2.47-4.2-2.47-7.49V71.75q0-20.91,4.45-30.79t15.81-9.88q16.29,0,16.3,22.07,0,25.35-17.13,38.53h14.66c2.3,0,3.81.44,4.52,1.31S199.64,95.36,199.64,97.44Zm-10.2-44.13q0-15.81-7.91-15.8a4,4,0,0,0-3.29,1.39c-.77.94-1.38,3.33-1.81,7.17q-1.32,9.87-1.65,42.15Q189.44,77.53,189.44,53.31Z"/><path d="M239.41,89.37q14.57,0,23.79,9.72t9.22,26.42q0,16.72-8.64,27.75t-23.14,11q-14.49,0-24.12-10t-9.63-27.66q0-17.7,9-27.5T239.41,89.37Zm-16.88,37.21q0,16.8,4.2,24t13.75,7.25q6.59,0,10.12-3.38t4.86-11a45.57,45.57,0,0,1-19.67-9.71,46.22,46.22,0,0,1-13.09-16.47C222.58,119.23,222.53,122.3,222.53,126.58Zm17-30.79A13.08,13.08,0,0,0,231.83,98a7.24,7.24,0,0,0-3.21,6.34q0,10.53,8.24,20.16a39,39,0,0,0,19.59,12.77q.33-6.25.33-10.71,0-17.11-3.62-24T239.49,95.79ZM238,76.69a5.85,5.85,0,0,1-4-1.56,11.7,11.7,0,0,1-2.88-4.69L249,38.49q3.12-5.43,7.9-5.43a5.85,5.85,0,0,1,4,1.56,13.22,13.22,0,0,1,3,4.7l-18.27,32.1Q242.62,76.7,238,76.69Z"/><path d="M298.76,135.8V162q-1.65,2.31-5.76,2.31a8.75,8.75,0,0,1-6.59-2.55c-1.64-1.7-2.47-4.2-2.47-7.5V91.68q1.65-2.31,5.77-2.31a8.73,8.73,0,0,1,6.58,2.55c1.65,1.71,2.47,4.2,2.47,7.5v12.51Q307,91.51,321.49,91.51q10.36,0,15.14,5.52a19.32,19.32,0,0,1,4.78,13.09,8.87,8.87,0,0,1-2.47,6.58q-2.47,2.47-4.78,2.47c-2.85,0-4.72-.65-5.59-2a20.08,20.08,0,0,0,1-7.08,12.87,12.87,0,0,0-3.13-8.4,9.51,9.51,0,0,0-7.57-3.79q-7.74,0-13.91,14.08T298.76,135.8Z"/><path d="M389.65,154.24V114.73q0-19.59-9.88-19.6-8.24,0-12.6,9.06t-4.36,31.94V162q-1.65,2.31-5.76,2.31a8.75,8.75,0,0,1-6.59-2.55c-1.64-1.7-2.47-4.2-2.47-7.5V91.68q1.65-2.31,5.77-2.31a8.73,8.73,0,0,1,6.58,2.55c1.65,1.71,2.47,4.2,2.47,7.5q5.6-10,18.94-10,15.63,0,21.07,13.34,5.6-13.33,20.91-13.34,10.71,0,17,6.75t6.33,19.43v23.38q0,9.39,3,14.16a9.69,9.69,0,0,0,8.81,4.78q5.83,0,10.29-7.33t4.44-24.78c.11-.66.94-1,2.47-1q3,0,3,8.73,0,14-6,22.39t-17.54,8.4q-11.52,0-17.7-7.9T431.64,134V114.73q0-19.59-9.88-19.6-16.8,0-16.8,41.33V162c-1.1,1.54-3,2.31-5.84,2.31a9.39,9.39,0,0,1-6.83-2.55Q389.65,159.19,389.65,154.24Z"/><path d="M522.69,94.15q2.14-4.79,6.83-4.78t7,2.31v47.25q0,9.39,3,14.16t8.06,4.78q15.48,0,15.48-32.11c.11-.66.93-1,2.47-1,2,0,3,2.91,3,8.73q0,14-6,22.39t-16.87,8.4q-16.64,0-22.07-14.65a26.9,26.9,0,0,1-8.56,10.7,20.49,20.49,0,0,1-12.35,3.95q-28.82,0-28.81-37.71,0-19.1,9-28.15t23.79-9.06Q517.92,89.37,522.69,94.15Zm-31,52.69Q494,154.08,497,156a14.47,14.47,0,0,0,7.91,1.9q4.93,0,10.78-6.18t5.85-16.05V113.08q0-7.74-4-12.51t-9.05-4.78a26,26,0,0,0-8,1,12.8,12.8,0,0,0-5.6,4.12q-5.43,5.92-5.43,25.68Q489.43,139.6,491.74,146.84Z"/><path d="M565.83,67.56a9.05,9.05,0,0,1,12.35-.25V91.68h22.55c2.31,0,3.82.44,4.53,1.31s1.07,2.37,1.07,4.45H578.18v41.49q0,9.06,5.18,14a16.83,16.83,0,0,0,11.94,4.94q10.22,0,15-7.58t4.78-24.53c.22-.66,1-1,2.47-1,2,0,3,2.91,3,8.73q0,13.33-6.67,22.06t-20.49,8.73q-13.83,0-21.9-7.25t-8.07-21.56V75.05C563.36,71.75,564.18,69.26,565.83,67.56Z"/><path d="M684.54,126.75c2.31,0,3.46,1.75,3.46,5.27q0,12.18-8.48,22.22t-25.77,10q-17.28,0-27.74-9.3t-10.46-27.34q0-18,9.22-28.15t23.55-10.13q10.36,0,15.15,5.52A19.36,19.36,0,0,1,668.24,108q0,12.34-10.29,20.5t-26.26,8.15q1.48,10.53,7.66,15.89t16.3,5.35q10.13,0,18.27-7.66t8.15-22.47C682.18,127.08,683,126.75,684.54,126.75Zm-53.35,2.3v1.48a39.89,39.89,0,0,0,17.71-6.42q7.49-5.1,7.49-15.14,0-6.43-2.8-9.8a9.71,9.71,0,0,0-7.91-3.38q-7.74,0-11.11,7.58T631.19,129.05Z"/><path d="M227.48,333.32a22.17,22.17,0,0,1-9.16-4.79q-6.6-5.83-6.59-18,0-10,3.82-27.24,1.78-8.16,4-16.7L224.3,248l5.09-20.22q-12.64,3.3-19.83,12.28-7.34,9.28-7.34,23a21.3,21.3,0,0,0,1.12,7.79,6.12,6.12,0,0,0,.75,1.64,2.24,2.24,0,0,1,.3,1.12q-8,0-12-3.14Q188,267.07,188,259.51a26.28,26.28,0,0,1,2.21-10.4,37,37,0,0,1,6.25-9.81,48.94,48.94,0,0,1,9.32-8.23,66.52,66.52,0,0,1,11.94-6.51,72.41,72.41,0,0,1,28.22-5.69c1.29,0,2.44,0,3.44.15s2.29.3,3.89.6q-4.56,16.75-6.44,23.8l-5.24,19.24q-5,18.55-6.73,26.94a82.81,82.81,0,0,0-2.25,16.47q0,6.89,2.47,10.37c1.65,2.32,4.34,3.48,8.09,3.48a31.64,31.64,0,0,0,6.28-.53,12,12,0,0,0,4.79-2.17,17.46,17.46,0,0,0,4.53-5.2,56.22,56.22,0,0,0,4.38-9.39q4.35-11.83,9.66-36.08l10.25-47.38H304.7L294.52,267q-2.77,12.94-5.17,22.12a133.48,133.48,0,0,1-5.24,16.2,64.64,64.64,0,0,1-6.92,13.21,37.69,37.69,0,0,1-8.87,9.1,36.87,36.87,0,0,1-11.79,5.46,58,58,0,0,1-15.16,1.8A53,53,0,0,1,227.48,333.32Zm43.61-152.78h16.09l-18.56,29H257.16Z"/><path d="M302.08,330.4q-4.8-4.8-4.8-14a50.06,50.06,0,0,1,1.2-10l16.4-76.8,22.68-3.07L320,309.29a17.07,17.07,0,0,0-.6,4.94c0,2.1.48,3.57,1.46,4.42s2.55,1.27,4.75,1.27a10.16,10.16,0,0,0,4.38-1,14.22,14.22,0,0,0,3.93-2.81,23.17,23.17,0,0,0,5.54-9.73h6.43q-4.11,11.61-10.33,18.49a30.89,30.89,0,0,1-11.82,8.08,28.32,28.32,0,0,1-10,1.8Q306.35,334.74,302.08,330.4Z"/><path d="M343,330.4q-4.78-4.8-4.79-14a49.34,49.34,0,0,1,1.2-10l9.2-43h-5.09l1.28-6.14h5L354.47,236l22.68-3.07-5.24,24.25h9.21l-1.2,6.14h-9.2l-9.81,46a17.07,17.07,0,0,0-.6,4.94c0,2.1.49,3.57,1.46,4.42s2.56,1.27,4.75,1.27a10.16,10.16,0,0,0,4.38-1,14.22,14.22,0,0,0,3.93-2.81,23.06,23.06,0,0,0,5.54-9.73h6.44q-4.12,11.61-10.33,18.49a30.92,30.92,0,0,1-11.83,8.08,28.28,28.28,0,0,1-10,1.8Q347.29,334.74,343,330.4Z"/><path d="M384,330.4q-4.79-4.8-4.79-14a49.34,49.34,0,0,1,1.2-10l10.41-49.18h22.08l-11,52.1a17.11,17.11,0,0,0-.59,4.94c0,2.1.48,3.57,1.46,4.42s2.55,1.27,4.75,1.27a10.2,10.2,0,0,0,4.38-1,14.22,14.22,0,0,0,3.93-2.81,23.17,23.17,0,0,0,5.54-9.73h6.43q-4.11,11.61-10.33,18.49a30.89,30.89,0,0,1-11.82,8.08,28.32,28.32,0,0,1-10,1.8Q388.24,334.74,384,330.4ZM401.26,248a12.17,12.17,0,0,1-3.9-2.58,11.26,11.26,0,0,1-2.58-3.82,12.42,12.42,0,0,1,0-9.43,12.89,12.89,0,0,1,2.58-4,11.46,11.46,0,0,1,3.9-2.66,12.28,12.28,0,0,1,16.05,16.06,10.65,10.65,0,0,1-2.66,3.82,13,13,0,0,1-4,2.58,12.42,12.42,0,0,1-9.43,0Z"/><path d="M500.44,329.35q-4-4.64-4-11.9a43.32,43.32,0,0,1,.86-8q.85-4.56,2.58-11.75T502.49,286a39.65,39.65,0,0,0,.86-7.6q0-7.85-5.53-7.85c-2.6,0-5,1.37-7.19,4.11a31.36,31.36,0,0,0-4.79,10l-10.41,49.18H453.35l11.23-52.92a15.68,15.68,0,0,0,.45-3.82,9.46,9.46,0,0,0-1-4.71,4.08,4.08,0,0,0-3.67-2c-2.9,0-5.42,1.39-7.56,4.19a31.16,31.16,0,0,0-4.87,10.1l-10.4,49.18H415.48l16.24-76.65H453.8l-1.64,7.94A25.9,25.9,0,0,1,462,258a25.13,25.13,0,0,1,8.91-1.58q6.44,0,10.25,3,4.28,3.36,5.47,10.18Q491.53,262,498,258.84a22.19,22.19,0,0,1,9.95-2.25q7.71,0,12.2,4.05,4.78,4.41,4.79,13.24A71.1,71.1,0,0,1,523,287.73q-.75,3.67-1.8,7.41c-1.24,4.79-2.27,9.21-3.06,13.25a28.46,28.46,0,0,0-.6,5.09,7.29,7.29,0,0,0,1.38,4.75c.92,1.13,2.51,1.69,4.75,1.69a9.7,9.7,0,0,0,7.71-3.74q2.4-2.85,5.17-9.81H543q-5.7,16.85-14.38,23.58a22.35,22.35,0,0,1-14.14,4.79Q505,334.74,500.44,329.35Z"/><path d="M540.86,329.27q-6.3-6.43-6.29-19.16a64.3,64.3,0,0,1,1.08-11.38,75.41,75.41,0,0,1,3.18-11.82q4.8-13.17,13.1-21.26,9.59-9.21,22.09-9.21,6.21,0,9.31,2.14a6.53,6.53,0,0,1,3.11,5.65v1.12l1.65-8.16h22.08l-11,52.1a17.1,17.1,0,0,0-.68,4.94q0,6.58,6.29,6.59c2.79,0,5.34-1.43,7.63-4.27a28.41,28.41,0,0,0,4.8-10.18h6.43q-4.11,11.69-9.95,18.49a29.16,29.16,0,0,1-11.16,8.08,26.06,26.06,0,0,1-9.65,1.8q-6.51,0-10.37-3.56t-4.68-10.51a40.32,40.32,0,0,1-9.13,9.58,22.67,22.67,0,0,1-13.7,4.49Q546.24,334.74,540.86,329.27ZM568.59,319a15,15,0,0,0,3.7-2.54,19.26,19.26,0,0,0,5.39-10.11L585,271.79a5.53,5.53,0,0,0-.34-1.76,7.85,7.85,0,0,0-.93-1.91,6.15,6.15,0,0,0-5-2.17,10.2,10.2,0,0,0-6,2,23.14,23.14,0,0,0-5.43,5.61,57.09,57.09,0,0,0-7.41,17,69.32,69.32,0,0,0-2,9.17,56,56,0,0,0-.67,8.19q0,7.63,2.84,10.33a4.45,4.45,0,0,0,2.17,1.35,11.15,11.15,0,0,0,2.7.3A8.5,8.5,0,0,0,568.59,319Z"/><path d="M624.84,333.06a20.55,20.55,0,0,1-7.19-4.68,18.82,18.82,0,0,1-4-6.18,19,19,0,0,1-1.34-7.07,16.64,16.64,0,0,1,2.54-9.06,13.22,13.22,0,0,1,5.61-5.16,186,186,0,0,0,10.41-21.56q4.41-10.94,8.46-23.88l22.68-3q.9,19.46,1.64,29.86.75,10.71,1.28,15.72c.3,3.89.45,7.29.45,10.18a21.2,21.2,0,0,1-.6,5.84,69.08,69.08,0,0,0,11-7.71h6.44a81.08,81.08,0,0,1-11.27,10.93,102.17,102.17,0,0,1-12.16,8.23,27.64,27.64,0,0,1-11.45,7.11,38,38,0,0,1-12.65,2.1A26.6,26.6,0,0,1,624.84,333.06ZM639,319.47q4.11-3.74,4.11-11.08,0-3.06-.37-7.71l-.37-4.56q-.68-5.92-1.35-13.7l-.82-10.33A134.41,134.41,0,0,1,635,285.9q-3,6.84-7.26,15.16,3.53,1.94,3.52,5.31a7.85,7.85,0,0,1-1.8,5.17,6.11,6.11,0,0,1-4.94,2.39,6.8,6.8,0,0,1-2.51-.41,3.15,3.15,0,0,1-1.61-1.61c0,3.69.73,6.4,2.17,8.12s3.85,2.58,7.19,2.58Q635.54,322.61,639,319.47Z"/><path class="cls-2" d="M78.18,383.59v82h-.43l-55.1-49.76L23,462.34H7.24V380.48h.64l55,50.51-.32-47.4Z"/><path class="cls-2" d="M99.1,403.06a40.84,40.84,0,0,1,14.66-14.82,39.27,39.27,0,0,1,40.12,0,41.86,41.86,0,0,1,14.77,14.82,39.29,39.29,0,0,1,0,40.13,41.17,41.17,0,0,1-14.77,14.6,40,40,0,0,1-40.18,0,40.39,40.39,0,0,1-14.6-14.6,39.91,39.91,0,0,1,0-40.13ZM113,435.7a24.53,24.53,0,0,0,8.88,9.15,23.81,23.81,0,0,0,12.46,3.37,22.57,22.57,0,0,0,12.09-3.37,23.86,23.86,0,0,0,8.56-9.1,27.34,27.34,0,0,0-.1-25.52,24.5,24.5,0,0,0-8.72-9.15,24,24,0,0,0-24.51,0,24.5,24.5,0,0,0-8.72,9.15,26,26,0,0,0-3.21,12.84A25.22,25.22,0,0,0,113,435.7Z"/><path class="cls-2" d="M249.49,383.59l-36,82.39-35.95-82.39H196.2l18,44.4,16.9-44.4Z"/><path class="cls-2" d="M316.79,383.59v15h-38.2v16.8H312.4v15H278.59v17h39.7v15H263.07V383.59Z"/><path class="cls-2" d="M334.33,383.59h23.54q15.09,0,24.83,5.83a35.39,35.39,0,0,1,14.18,15.09,45.41,45.41,0,0,1,4.44,19.84,37.33,37.33,0,0,1-5.35,20,36,36,0,0,1-14.4,13.33,42.71,42.71,0,0,1-19.84,4.65h-27.4Zm24.72,63.77q12.09,0,19.15-6.21t7.07-17.87q0-9.4-3.91-15a21.11,21.11,0,0,0-9.09-7.7,25.74,25.74,0,0,0-9.79-2.14H349.85v48.9Z"/><path class="cls-2" d="M450.43,446.93H424.32l-6.42,15.41H402.6l35.52-81.86H439l35.52,81.86h-18Zm-5.14-13.05-7.59-19.16-7.92,19.16Z"/><path class="cls-2" d="M486,383.59h23.54q15.09,0,24.83,5.83a35.39,35.39,0,0,1,14.18,15.09,45.41,45.41,0,0,1,4.44,19.84,37.33,37.33,0,0,1-5.35,20,36,36,0,0,1-14.4,13.33,42.71,42.71,0,0,1-19.84,4.65H486Zm24.72,63.77q12.09,0,19.15-6.21t7.07-17.87q0-9.4-3.91-15a21.11,21.11,0,0,0-9.09-7.7,25.75,25.75,0,0,0-9.8-2.14H501.47v48.9Z"/><path class="cls-2" d="M622.16,383.59v15H584v16.8h33.81v15H584v17h39.69v15H568.45V383.59Z"/><path class="cls-2" d="M663.89,397q-5.13,0-8,2a7,7,0,0,0-2.83,6.09q0,3.75,4.12,6.59a51.24,51.24,0,0,0,11,5.4,45.74,45.74,0,0,1,9.53,4.65,21,21,0,0,1,6.58,7.23,23.37,23.37,0,0,1,2.62,11.66,21.39,21.39,0,0,1-3.16,11.29,22.06,22.06,0,0,1-9.25,8.24,32.28,32.28,0,0,1-14.56,3.05,48.54,48.54,0,0,1-14-2.09A43.53,43.53,0,0,1,633,454.74l6.85-12.09a36.92,36.92,0,0,0,9.31,4.92,27.5,27.5,0,0,0,9.41,1.93,16.91,16.91,0,0,0,8.56-2.09q3.64-2.09,3.64-6.79,0-6.11-11.45-10.59a103.53,103.53,0,0,1-11.23-5.14,23,23,0,0,1-7.76-7.06A19.46,19.46,0,0,1,637,406.27q0-10.15,6.68-16.37t17.82-6.74a46.55,46.55,0,0,1,14.66,2,50,50,0,0,1,11.45,5.62l-5.89,11.87Q671.48,397,663.89,397Z"/><path d="M283.49,539.63v14.54H259.08v80H244v-80H220.27V539.63Z"/><path d="M328.53,611.93h-34.4L285,634.13H270.12l41.79-98.4h.91l41.8,98.4H337.23Zm-5.06-13-11.82-29.86L299.45,599Z"/><path d="M404.46,539.63v14.54h-24.4v80H365v-80H341.25V539.63Z"/><path d="M465,539.63v14.54h-24.4v80H425.49v-80H401.74V539.63Z"/><path d="M466,562.93a49.3,49.3,0,0,1,17.59-17.72,47.34,47.34,0,0,1,48.29,0A50.19,50.19,0,0,1,549.58,563a47.32,47.32,0,0,1,.07,48.16,48.82,48.82,0,0,1-17.72,17.53,48.46,48.46,0,0,1-48.35.06A47.9,47.9,0,0,1,466,611.28a48.27,48.27,0,0,1,0-48.35Zm13.5,41a33.3,33.3,0,0,0,12,12.2,31.87,31.87,0,0,0,16.68,4.55,31,31,0,0,0,16.35-4.48A32.86,32.86,0,0,0,536.28,604a35,35,0,0,0-.07-34,33.33,33.33,0,0,0-11.94-12.33,32.31,32.31,0,0,0-33,0A33,33,0,0,0,479.42,570a34.31,34.31,0,0,0-4.34,17A33.19,33.19,0,0,0,479.49,603.88Z"/><path d="M561.79,562.93a49.19,49.19,0,0,1,17.58-17.72,47.34,47.34,0,0,1,48.29,0A50.14,50.14,0,0,1,645.38,563a47.29,47.29,0,0,1,.06,48.16,48.8,48.8,0,0,1-17.71,17.53A48.14,48.14,0,0,1,555.29,587,46.84,46.84,0,0,1,561.79,562.93Zm13.49,41a33.45,33.45,0,0,0,12,12.2A31.87,31.87,0,0,0,604,620.63a31.07,31.07,0,0,0,16.36-4.48A32.83,32.83,0,0,0,632.07,604a35.08,35.08,0,0,0-.06-34,33.33,33.33,0,0,0-11.94-12.33,32.33,32.33,0,0,0-33,0A33,33,0,0,0,575.22,570a34.31,34.31,0,0,0-4.35,17A33.19,33.19,0,0,0,575.28,603.88Z"/><rect class="cls-3" x="7" y="470.42" width="39.59" height="45"/><rect class="cls-4" x="36.31" y="491.32" width="7.35" height="4.5"/><rect class="cls-4" x="23.14" y="491.32" width="7.35" height="4.5"/><rect class="cls-4" x="10" y="491.32" width="7.35" height="4.5"/><rect class="cls-3" x="46.59" y="470.42" width="39.59" height="45"/><rect class="cls-4" x="75.9" y="491.32" width="7.35" height="4.5"/><rect class="cls-4" x="62.72" y="491.32" width="7.35" height="4.5"/><rect class="cls-4" x="49.59" y="491.32" width="7.35" height="4.5"/><rect class="cls-3" x="86.18" y="470.42" width="39.59" height="45"/><rect class="cls-4" x="115.49" y="491.32" width="7.35" height="4.5"/><rect class="cls-4" x="102.31" y="491.32" width="7.35" height="4.5"/><rect class="cls-4" x="89.18" y="491.32" width="7.35" height="4.5"/><rect class="cls-3" x="125.76" y="470.42" width="39.59" height="45"/><rect class="cls-4" x="155.08" y="491.32" width="7.35" height="4.5"/><rect class="cls-4" x="141.9" y="491.32" width="7.35" height="4.5"/><rect class="cls-4" x="128.76" y="491.32" width="7.35" height="4.5"/><rect class="cls-3" x="165.35" y="470.42" width="39.59" height="45"/><rect class="cls-4" x="194.67" y="491.32" width="7.35" height="4.5"/><rect class="cls-4" x="181.49" y="491.32" width="7.35" height="4.5"/><rect class="cls-4" x="168.35" y="491.32" width="7.35" height="4.5"/><rect class="cls-3" x="204.94" y="470.42" width="39.59" height="45"/><rect class="cls-4" x="234.26" y="491.32" width="7.35" height="4.5"/><rect class="cls-4" x="221.08" y="491.32" width="7.35" height="4.5"/><rect class="cls-4" x="207.94" y="491.32" width="7.35" height="4.5"/><rect class="cls-3" x="244.53" y="470.42" width="39.59" height="45"/><rect class="cls-4" x="273.84" y="491.32" width="7.35" height="4.5"/><rect class="cls-4" x="260.66" y="491.32" width="7.35" height="4.5"/><rect class="cls-4" x="247.53" y="491.32" width="7.35" height="4.5"/><rect class="cls-3" x="284.12" y="470.42" width="39.59" height="45"/><rect class="cls-4" x="313.43" y="491.32" width="7.35" height="4.5"/><rect class="cls-4" x="300.25" y="491.32" width="7.35" height="4.5"/><rect class="cls-4" x="287.12" y="491.32" width="7.35" height="4.5"/><rect class="cls-3" x="323.71" y="470.42" width="39.59" height="45"/><rect class="cls-4" x="353.02" y="491.32" width="7.35" height="4.5"/><rect class="cls-4" x="339.84" y="491.32" width="7.35" height="4.5"/><rect class="cls-4" x="326.7" y="491.32" width="7.35" height="4.5"/><rect class="cls-3" x="363.29" y="470.42" width="39.59" height="45"/><rect class="cls-4" x="392.61" y="491.32" width="7.35" height="4.5"/><rect class="cls-4" x="379.43" y="491.32" width="7.35" height="4.5"/><rect class="cls-4" x="366.29" y="491.32" width="7.35" height="4.5"/><rect class="cls-3" x="402.88" y="470.42" width="39.59" height="45"/><rect class="cls-4" x="432.2" y="491.32" width="7.35" height="4.5"/><rect class="cls-4" x="419.02" y="491.32" width="7.35" height="4.5"/><rect class="cls-4" x="405.88" y="491.32" width="7.35" height="4.5"/><rect class="cls-3" x="442.47" y="470.42" width="39.59" height="45"/><rect class="cls-4" x="471.79" y="491.32" width="7.35" height="4.5"/><rect class="cls-4" x="458.61" y="491.32" width="7.35" height="4.5"/><rect class="cls-4" x="445.47" y="491.32" width="7.35" height="4.5"/><rect class="cls-3" x="482.06" y="470.42" width="39.59" height="45"/><rect class="cls-4" x="511.37" y="491.32" width="7.35" height="4.5"/><rect class="cls-4" x="498.19" y="491.32" width="7.35" height="4.5"/><rect class="cls-4" x="485.06" y="491.32" width="7.35" height="4.5"/><rect class="cls-3" x="521.65" y="470.42" width="39.59" height="45"/><rect class="cls-4" x="550.96" y="491.32" width="7.35" height="4.5"/><rect class="cls-4" x="537.78" y="491.32" width="7.35" height="4.5"/><rect class="cls-4" x="524.65" y="491.32" width="7.35" height="4.5"/><rect class="cls-3" x="561.23" y="470.42" width="39.59" height="45"/><rect class="cls-4" x="590.55" y="491.32" width="7.35" height="4.5"/><rect class="cls-4" x="577.37" y="491.32" width="7.35" height="4.5"/><rect class="cls-4" x="564.23" y="491.32" width="7.35" height="4.5"/><rect class="cls-3" x="600.82" y="470.42" width="39.59" height="45"/><rect class="cls-4" x="630.14" y="491.32" width="7.35" height="4.5"/><rect class="cls-4" x="616.96" y="491.32" width="7.35" height="4.5"/><rect class="cls-4" x="603.82" y="491.32" width="7.35" height="4.5"/><rect class="cls-3" x="640.41" y="470.42" width="39.59" height="45"/><rect class="cls-4" x="669.73" y="491.32" width="7.35" height="4.5"/><rect class="cls-4" x="656.55" y="491.32" width="7.35" height="4.5"/><rect class="cls-4" x="643.41" y="491.32" width="7.35" height="4.5"/><rect class="cls-3" x="7" y="665" width="41.09" height="45"/><rect class="cls-4" x="37.43" y="685.91" width="7.63" height="4.5"/><rect class="cls-4" x="23.75" y="685.91" width="7.63" height="4.5"/><rect class="cls-4" x="10.11" y="685.91" width="7.63" height="4.5"/><rect class="cls-3" x="48.09" y="665" width="41.09" height="45"/><rect class="cls-4" x="78.52" y="685.91" width="7.63" height="4.5"/><rect class="cls-4" x="64.84" y="685.91" width="7.63" height="4.5"/><rect class="cls-4" x="51.21" y="685.91" width="7.63" height="4.5"/><rect class="cls-3" x="89.19" y="665" width="41.09" height="45"/><rect class="cls-4" x="119.62" y="685.91" width="7.63" height="4.5"/><rect class="cls-4" x="105.94" y="685.91" width="7.63" height="4.5"/><rect class="cls-4" x="92.3" y="685.91" width="7.63" height="4.5"/><rect class="cls-3" x="130.28" y="665" width="41.09" height="45"/><rect class="cls-4" x="160.71" y="685.91" width="7.63" height="4.5"/><rect class="cls-4" x="147.03" y="685.91" width="7.63" height="4.5"/><rect class="cls-4" x="133.39" y="685.91" width="7.63" height="4.5"/><rect class="cls-3" x="171.37" y="665" width="41.09" height="45"/><rect class="cls-4" x="201.8" y="685.91" width="7.63" height="4.5"/><rect class="cls-4" x="188.12" y="685.91" width="7.63" height="4.5"/><rect class="cls-4" x="174.49" y="685.91" width="7.63" height="4.5"/><rect class="cls-3" x="212.47" y="665" width="41.09" height="45"/><rect class="cls-4" x="242.9" y="685.91" width="7.63" height="4.5"/><rect class="cls-4" x="229.22" y="685.91" width="7.63" height="4.5"/><rect class="cls-4" x="215.58" y="685.91" width="7.63" height="4.5"/><rect class="cls-3" x="253.56" y="665" width="41.09" height="45"/><rect class="cls-4" x="283.99" y="685.91" width="7.63" height="4.5"/><rect class="cls-4" x="270.31" y="685.91" width="7.63" height="4.5"/><rect class="cls-4" x="256.68" y="685.91" width="7.63" height="4.5"/><rect class="cls-3" x="294.66" y="665" width="41.09" height="45"/><rect class="cls-4" x="325.09" y="685.91" width="7.63" height="4.5"/><rect class="cls-4" x="311.41" y="685.91" width="7.63" height="4.5"/><rect class="cls-4" x="297.77" y="685.91" width="7.63" height="4.5"/><rect class="cls-3" x="335.75" y="665" width="41.09" height="45"/><rect class="cls-4" x="366.18" y="685.91" width="7.63" height="4.5"/><rect class="cls-4" x="352.5" y="685.91" width="7.63" height="4.5"/><rect class="cls-4" x="338.86" y="685.91" width="7.63" height="4.5"/><rect class="cls-3" x="376.84" y="665" width="41.09" height="45"/><rect class="cls-4" x="407.27" y="685.91" width="7.63" height="4.5"/><rect class="cls-4" x="393.59" y="685.91" width="7.63" height="4.5"/><rect class="cls-4" x="379.96" y="685.91" width="7.63" height="4.5"/><rect class="cls-3" x="417.94" y="665" width="41.09" height="45"/><rect class="cls-4" x="448.37" y="685.91" width="7.63" height="4.5"/><rect class="cls-4" x="434.69" y="685.91" width="7.63" height="4.5"/><rect class="cls-4" x="421.05" y="685.91" width="7.63" height="4.5"/><rect class="cls-3" x="459.03" y="665" width="41.09" height="45"/><rect class="cls-4" x="489.46" y="685.91" width="7.63" height="4.5"/><rect class="cls-4" x="475.78" y="685.91" width="7.63" height="4.5"/><rect class="cls-4" x="462.14" y="685.91" width="7.63" height="4.5"/><rect class="cls-3" x="500.12" y="665" width="41.09" height="45"/><rect class="cls-4" x="530.55" y="685.91" width="7.63" height="4.5"/><rect class="cls-4" x="516.87" y="685.91" width="7.63" height="4.5"/><rect class="cls-4" x="503.24" y="685.91" width="7.63" height="4.5"/><rect class="cls-3" x="541.22" y="665" width="41.09" height="45"/><rect class="cls-4" x="571.65" y="685.91" width="7.63" height="4.5"/><rect class="cls-4" x="557.97" y="685.91" width="7.63" height="4.5"/><rect class="cls-4" x="544.33" y="685.91" width="7.63" height="4.5"/><rect class="cls-3" x="582.31" y="665" width="41.09" height="45"/><rect class="cls-4" x="612.74" y="685.91" width="7.63" height="4.5"/><rect class="cls-4" x="599.06" y="685.91" width="7.63" height="4.5"/><rect class="cls-4" x="585.43" y="685.91" width="7.63" height="4.5"/><rect class="cls-3" x="623.41" y="665" width="41.09" height="45"/><rect class="cls-4" x="653.84" y="685.91" width="7.63" height="4.5"/><rect class="cls-4" x="640.16" y="685.91" width="7.63" height="4.5"/><rect class="cls-4" x="626.52" y="685.91" width="7.63" height="4.5"/><rect class="cls-3" x="653" y="496.42" width="45" height="38.01"/><rect class="cls-4" x="672.59" y="524.56" width="4.5" height="7.06"/><rect class="cls-4" x="672.59" y="511.91" width="4.5" height="7.06"/><rect class="cls-4" x="672.59" y="499.3" width="4.5" height="7.06"/><rect class="cls-3" x="653" y="534.43" width="45" height="38.01"/><rect class="cls-4" x="672.59" y="562.58" width="4.5" height="7.06"/><rect class="cls-4" x="672.59" y="549.92" width="4.5" height="7.06"/><rect class="cls-4" x="672.59" y="537.31" width="4.5" height="7.06"/><rect class="cls-3" x="653" y="572.44" width="45" height="38.01"/><rect class="cls-4" x="672.59" y="600.59" width="4.5" height="7.06"/><rect class="cls-4" x="672.59" y="587.93" width="4.5" height="7.06"/><rect class="cls-4" x="672.59" y="575.32" width="4.5" height="7.06"/><rect class="cls-3" x="653" y="610.45" width="45" height="38.01"/><rect class="cls-4" x="672.59" y="638.6" width="4.5" height="7.06"/><rect class="cls-4" x="672.59" y="625.94" width="4.5" height="7.06"/><rect class="cls-4" x="672.59" y="613.33" width="4.5" height="7.06"/><rect class="cls-3" x="653" y="648.46" width="45" height="38.01"/><rect class="cls-4" x="672.59" y="676.61" width="4.5" height="7.06"/><rect class="cls-4" x="672.59" y="663.96" width="4.5" height="7.06"/><rect class="cls-4" x="672.59" y="651.34" width="4.5" height="7.06"/><rect class="cls-3" x="653" y="686.48" width="45" height="38.01"/><rect class="cls-4" x="672.59" y="714.62" width="4.5" height="7.06"/><rect class="cls-4" x="672.59" y="701.97" width="4.5" height="7.06"/><rect class="cls-4" x="672.59" y="689.36" width="4.5" height="7.06"/><rect class="cls-3" x="653" y="724.49" width="45" height="38.01"/><rect class="cls-4" x="672.59" y="752.64" width="4.5" height="7.06"/><rect class="cls-4" x="672.59" y="739.98" width="4.5" height="7.06"/><rect class="cls-4" x="672.59" y="727.37" width="4.5" height="7.06"/><path d="M8.61,331.55V269.38h3.58v58.85h33.1v3.32Z"/><path d="M58.77,331.55H54.84l26.72-62.17h3.58l26.71,62.17h-3.92l-25.76-60h2.27Zm7-17.2,1-3.5h33.53l1.14,3.5Z"/><path d="M147.69,332.25a42,42,0,0,1-8.9-.87,26.72,26.72,0,0,1-13.71-7.51l1.83-3.06a29.31,29.31,0,0,0,9.34,6.07,32.44,32.44,0,0,0,11.44,1.79q8.3,0,12.88-3.54a11.79,11.79,0,0,0,4.59-9.91,8,8,0,0,0-2.45-6.24,17.17,17.17,0,0,0-6.28-3.5c-2.57-.84-5.27-1.58-8.12-2.22q-3.67-.87-7.56-2a34.26,34.26,0,0,1-7.2-2.88,15.16,15.16,0,0,1-5.37-4.76,13.37,13.37,0,0,1-2.05-7.77,15.86,15.86,0,0,1,2.61-9,17.2,17.2,0,0,1,7.43-6,27.88,27.88,0,0,1,11.44-2.14,33.42,33.42,0,0,1,7.94.92,26.88,26.88,0,0,1,7,2.79,25.47,25.47,0,0,1,5.9,4.67l-1.84,3.06a29.69,29.69,0,0,0-8.9-6,26.34,26.34,0,0,0-10.13-1.88q-8.38,0-13.06,3.67a12.17,12.17,0,0,0-4.67,10.13,9.5,9.5,0,0,0,2.23,6.59,14.84,14.84,0,0,0,5.76,3.88,56.2,56.2,0,0,0,7.47,2.36q3.84,1,8,1.92a41.15,41.15,0,0,1,7.72,2.58,14.85,14.85,0,0,1,5.77,4.45,12.27,12.27,0,0,1,2.18,7.64,14.89,14.89,0,0,1-2.62,8.74,17.5,17.5,0,0,1-7.42,5.89A27.44,27.44,0,0,1,147.69,332.25Z"/><path d="M9.41,251V199.69H25.18a28.93,28.93,0,0,1,13.61,2.95,19.81,19.81,0,0,1,8.56,8.67,34.45,34.45,0,0,1,0,27.94A20,20,0,0,1,38.79,248a28.68,28.68,0,0,1-13.61,3Zm2.95-2.74H25.11q10.86,0,16.38-5.79T47,225.25q0-22.83-21.89-22.83H12.36Z"/><path d="M62.19,251V199.69H93v2.8H65.21v21H91.56v2.88H65.21v21.74H93V251Z"/></g></svg>