<svg xmlns="http://www.w3.org/2000/svg" viewBox="0 0 851 346"><defs><style>.cls-1,.cls-5{fill:none;}.cls-2{fill:#211915;}.cls-3,.cls-4{fill:#242424;}.cls-3{fill-rule:evenodd;}.cls-5{stroke:#000;stroke-width:3px;}</style></defs><title>graphics-elements-homepage</title><g id="Capa_9" data-name="Capa 9"><rect class="cls-1" x="19.5" y="18.5" width="45.39" height="30"/><rect class="cls-2" x="22.03" y="31.49" width="12.09" height="4"/><rect class="cls-2" x="39.15" y="31.49" width="6.04" height="4"/><rect class="cls-2" x="50.23" y="31.49" width="12.09" height="4"/><rect class="cls-1" x="64.89" y="18.5" width="45.39" height="30"/><rect class="cls-2" x="67.42" y="31.49" width="12.09" height="4"/><rect class="cls-2" x="84.54" y="31.49" width="6.04" height="4"/><rect class="cls-2" x="95.62" y="31.49" width="12.09" height="4"/><rect class="cls-1" x="110.28" y="18.5" width="45.39" height="30"/><rect class="cls-2" x="112.81" y="31.49" width="12.09" height="4"/><rect class="cls-2" x="129.93" y="31.49" width="6.04" height="4"/><rect class="cls-2" x="141.01" y="31.49" width="12.09" height="4"/><rect class="cls-1" x="155.67" y="18.5" width="45.39" height="30"/><rect class="cls-2" x="158.2" y="31.49" width="12.09" height="4"/><rect class="cls-2" x="175.32" y="31.49" width="6.04" height="4"/><rect class="cls-2" x="186.4" y="31.49" width="12.09" height="4"/><rect class="cls-1" x="201.06" y="18.5" width="45.39" height="30"/><rect class="cls-2" x="203.59" y="31.49" width="12.09" height="4"/><rect class="cls-2" x="220.71" y="31.49" width="6.04" height="4"/><rect class="cls-2" x="231.79" y="31.49" width="12.09" height="4"/><rect class="cls-1" x="246.44" y="18.5" width="45.39" height="30"/><rect class="cls-2" x="248.97" y="31.49" width="12.09" height="4"/><rect class="cls-2" x="266.1" y="31.49" width="6.04" height="4"/><rect class="cls-2" x="277.18" y="31.49" width="12.09" height="4"/><rect class="cls-1" x="291.83" y="18.5" width="45.39" height="30"/><rect class="cls-2" x="294.36" y="31.49" width="12.09" height="4"/><rect class="cls-2" x="311.49" y="31.49" width="6.04" height="4"/><rect class="cls-2" x="322.57" y="31.49" width="12.09" height="4"/><rect class="cls-1" x="337.22" y="18.5" width="45.39" height="30"/><rect class="cls-2" x="339.75" y="31.49" width="12.09" height="4"/><rect class="cls-2" x="356.88" y="31.49" width="6.04" height="4"/><rect class="cls-2" x="367.96" y="31.49" width="12.09" height="4"/><rect class="cls-1" x="382.61" y="18.5" width="45.39" height="30"/><rect class="cls-2" x="385.14" y="31.49" width="12.09" height="4"/><rect class="cls-2" x="402.26" y="31.49" width="6.04" height="4"/><rect class="cls-2" x="413.34" y="31.49" width="12.09" height="4"/><rect class="cls-1" x="428" y="18.5" width="45.39" height="30"/><rect class="cls-2" x="430.53" y="31.49" width="12.09" height="4"/><rect class="cls-2" x="447.65" y="31.49" width="6.04" height="4"/><rect class="cls-2" x="458.73" y="31.49" width="12.09" height="4"/><rect class="cls-1" x="473.39" y="18.5" width="45.39" height="30"/><rect class="cls-2" x="475.92" y="31.49" width="12.09" height="4"/><rect class="cls-2" x="493.04" y="31.49" width="6.04" height="4"/><rect class="cls-2" x="504.12" y="31.49" width="12.09" height="4"/><rect class="cls-1" x="518.78" y="18.5" width="45.39" height="30"/><rect class="cls-2" x="521.31" y="31.49" width="12.09" height="4"/><rect class="cls-2" x="538.43" y="31.49" width="6.04" height="4"/><rect class="cls-2" x="549.51" y="31.49" width="12.09" height="4"/><rect class="cls-1" x="564.17" y="18.5" width="45.39" height="30"/><rect class="cls-2" x="566.7" y="31.49" width="12.09" height="4"/><rect class="cls-2" x="583.82" y="31.49" width="6.04" height="4"/><rect class="cls-2" x="594.9" y="31.49" width="12.09" height="4"/><rect class="cls-1" x="609.56" y="18.5" width="45.39" height="30"/><rect class="cls-2" x="612.09" y="31.49" width="12.09" height="4"/><rect class="cls-2" x="629.21" y="31.49" width="6.04" height="4"/><rect class="cls-2" x="640.29" y="31.49" width="12.09" height="4"/><rect class="cls-1" x="654.94" y="18.5" width="45.39" height="30"/><rect class="cls-2" x="657.47" y="31.49" width="12.09" height="4"/><rect class="cls-2" x="674.6" y="31.49" width="6.04" height="4"/><rect class="cls-2" x="685.68" y="31.49" width="12.09" height="4"/><rect class="cls-1" x="700.33" y="18.5" width="45.39" height="30"/><rect class="cls-2" x="702.86" y="31.49" width="12.09" height="4"/><rect class="cls-2" x="719.99" y="31.49" width="6.04" height="4"/><rect class="cls-2" x="731.07" y="31.49" width="12.09" height="4"/><rect class="cls-1" x="745.72" y="18.5" width="45.39" height="30"/><rect class="cls-2" x="748.25" y="31.49" width="12.09" height="4"/><rect class="cls-2" x="765.38" y="31.49" width="6.04" height="4"/><rect class="cls-2" x="776.46" y="31.49" width="12.09" height="4"/><rect class="cls-1" x="791.11" y="18.5" width="45.39" height="30"/><rect class="cls-2" x="793.64" y="31.49" width="12.09" height="4"/><rect class="cls-2" x="810.76" y="31.49" width="6.04" height="4"/><rect class="cls-2" x="821.84" y="31.49" width="12.09" height="4"/><polygon class="cls-1" points="32.02 44.51 20 44.49 20 59.49 32.02 59.51 32.02 44.51"/><rect class="cls-2" x="21.07" y="53.04" width="9.93" height="2.5"/><rect class="cls-2" x="21.07" y="48.53" width="9.93" height="2.5"/><polygon class="cls-1" points="44.03 44.51 32.02 44.49 32.02 59.49 44.03 59.51 44.03 44.51"/><rect class="cls-2" x="33.08" y="53.04" width="9.93" height="2.5"/><rect class="cls-2" x="33.08" y="48.53" width="9.93" height="2.5"/><polygon class="cls-1" points="56.04 44.51 44.03 44.49 44.03 59.49 56.04 59.51 56.04 44.51"/><rect class="cls-2" x="45.1" y="53.04" width="9.93" height="2.5"/><rect class="cls-2" x="45.1" y="48.53" width="9.93" height="2.5"/><polygon class="cls-1" points="68.06 44.51 56.04 44.49 56.04 59.49 68.06 59.51 68.06 44.51"/><rect class="cls-2" x="57.11" y="53.04" width="9.93" height="2.5"/><rect class="cls-2" x="57.11" y="48.53" width="9.93" height="2.5"/><polygon class="cls-1" points="80.07 44.51 68.06 44.49 68.06 59.49 80.07 59.51 80.07 44.51"/><rect class="cls-2" x="69.13" y="53.04" width="9.93" height="2.5"/><rect class="cls-2" x="69.13" y="48.53" width="9.93" height="2.5"/><polygon class="cls-1" points="92.09 44.51 80.07 44.49 80.07 59.49 92.09 59.51 92.09 44.51"/><rect class="cls-2" x="81.14" y="53.04" width="9.93" height="2.5"/><rect class="cls-2" x="81.14" y="48.53" width="9.93" height="2.5"/><polygon class="cls-1" points="104.1 44.51 92.09 44.49 92.09 59.49 104.1 59.51 104.1 44.51"/><rect class="cls-2" x="93.16" y="53.04" width="9.93" height="2.5"/><rect class="cls-2" x="93.16" y="48.53" width="9.93" height="2.5"/><polygon class="cls-1" points="116.12 44.51 104.1 44.49 104.1 59.49 116.12 59.51 116.12 44.51"/><rect class="cls-2" x="105.17" y="53.04" width="9.93" height="2.5"/><rect class="cls-2" x="105.17" y="48.53" width="9.93" height="2.5"/><polygon class="cls-1" points="128.13 44.51 116.12 44.49 116.12 59.49 128.13 59.51 128.13 44.51"/><rect class="cls-2" x="117.19" y="53.04" width="9.93" height="2.5"/><rect class="cls-2" x="117.19" y="48.53" width="9.93" height="2.5"/><polygon class="cls-1" points="140.15 44.51 128.13 44.49 128.13 59.49 140.15 59.51 140.15 44.51"/><rect class="cls-2" x="129.2" y="53.04" width="9.93" height="2.5"/><rect class="cls-2" x="129.2" y="48.53" width="9.93" height="2.5"/><polygon class="cls-1" points="152.16 44.51 140.15 44.49 140.15 59.49 152.16 59.51 152.16 44.51"/><rect class="cls-2" x="141.21" y="53.04" width="9.93" height="2.5"/><rect class="cls-2" x="141.21" y="48.53" width="9.93" height="2.5"/><polygon class="cls-1" points="164.18 44.51 152.16 44.49 152.16 59.49 164.18 59.51 164.18 44.51"/><rect class="cls-2" x="153.23" y="53.04" width="9.93" height="2.5"/><rect class="cls-2" x="153.23" y="48.53" width="9.93" height="2.5"/><polygon class="cls-1" points="176.19 44.51 164.18 44.49 164.18 59.49 176.19 59.51 176.19 44.51"/><rect class="cls-2" x="165.24" y="53.04" width="9.93" height="2.5"/><rect class="cls-2" x="165.24" y="48.53" width="9.93" height="2.5"/><polygon class="cls-1" points="188.21 44.51 176.19 44.49 176.19 59.49 188.21 59.51 188.21 44.51"/><rect class="cls-2" x="177.26" y="53.04" width="9.93" height="2.5"/><rect class="cls-2" x="177.26" y="48.53" width="9.93" height="2.5"/><polygon class="cls-1" points="200.22 44.51 188.21 44.49 188.21 59.49 200.22 59.51 200.22 44.51"/><rect class="cls-2" x="189.27" y="53.04" width="9.93" height="2.5"/><rect class="cls-2" x="189.27" y="48.53" width="9.93" height="2.5"/><polygon class="cls-1" points="212.24 44.51 200.22 44.49 200.22 59.49 212.24 59.51 212.24 44.51"/><rect class="cls-2" x="201.29" y="53.04" width="9.93" height="2.5"/><rect class="cls-2" x="201.29" y="48.53" width="9.93" height="2.5"/><polygon class="cls-1" points="224.25 44.51 212.24 44.49 212.24 59.49 224.25 59.51 224.25 44.51"/><rect class="cls-2" x="213.3" y="53.04" width="9.93" height="2.5"/><rect class="cls-2" x="213.3" y="48.53" width="9.93" height="2.5"/><polygon class="cls-1" points="236.26 44.51 224.25 44.49 224.25 59.49 236.26 59.51 236.26 44.51"/><rect class="cls-2" x="225.32" y="53.04" width="9.93" height="2.5"/><rect class="cls-2" x="225.32" y="48.53" width="9.93" height="2.5"/><polygon class="cls-1" points="248.28 44.51 236.26 44.49 236.26 59.49 248.28 59.51 248.28 44.51"/><rect class="cls-2" x="237.33" y="53.04" width="9.93" height="2.5"/><rect class="cls-2" x="237.33" y="48.53" width="9.93" height="2.5"/><polygon class="cls-1" points="260.29 44.51 248.28 44.49 248.28 59.49 260.29 59.51 260.29 44.51"/><rect class="cls-2" x="249.35" y="53.04" width="9.93" height="2.5"/><rect class="cls-2" x="249.35" y="48.53" width="9.93" height="2.5"/><polygon class="cls-1" points="272.31 44.51 260.29 44.49 260.29 59.49 272.31 59.51 272.31 44.51"/><rect class="cls-2" x="261.36" y="53.04" width="9.93" height="2.5"/><rect class="cls-2" x="261.36" y="48.53" width="9.93" height="2.5"/><polygon class="cls-1" points="284.32 44.51 272.31 44.49 272.31 59.49 284.32 59.51 284.32 44.51"/><rect class="cls-2" x="273.38" y="53.04" width="9.93" height="2.5"/><rect class="cls-2" x="273.38" y="48.53" width="9.93" height="2.5"/><polygon class="cls-1" points="296.34 44.51 284.32 44.49 284.32 59.49 296.34 59.51 296.34 44.51"/><rect class="cls-2" x="285.39" y="53.04" width="9.93" height="2.5"/><rect class="cls-2" x="285.39" y="48.53" width="9.93" height="2.5"/><polygon class="cls-1" points="308.35 44.51 296.34 44.49 296.34 59.49 308.35 59.51 308.35 44.51"/><rect class="cls-2" x="297.41" y="53.04" width="9.93" height="2.5"/><rect class="cls-2" x="297.41" y="48.53" width="9.93" height="2.5"/><polygon class="cls-1" points="320.37 44.51 308.35 44.49 308.35 59.49 320.37 59.51 320.37 44.51"/><rect class="cls-2" x="309.42" y="53.04" width="9.93" height="2.5"/><rect class="cls-2" x="309.42" y="48.53" width="9.93" height="2.5"/><polygon class="cls-1" points="332.38 44.51 320.37 44.49 320.37 59.49 332.38 59.51 332.38 44.51"/><rect class="cls-2" x="321.44" y="53.04" width="9.93" height="2.5"/><rect class="cls-2" x="321.44" y="48.53" width="9.93" height="2.5"/><polygon class="cls-1" points="344.4 44.51 332.38 44.49 332.38 59.49 344.4 59.51 344.4 44.51"/><rect class="cls-2" x="333.45" y="53.04" width="9.93" height="2.5"/><rect class="cls-2" x="333.45" y="48.53" width="9.93" height="2.5"/><polygon class="cls-1" points="356.41 44.51 344.4 44.49 344.4 59.49 356.41 59.51 356.41 44.51"/><rect class="cls-2" x="345.46" y="53.04" width="9.93" height="2.5"/><rect class="cls-2" x="345.46" y="48.53" width="9.93" height="2.5"/><polygon class="cls-1" points="368.43 44.51 356.41 44.49 356.41 59.49 368.43 59.51 368.43 44.51"/><rect class="cls-2" x="357.48" y="53.04" width="9.93" height="2.5"/><rect class="cls-2" x="357.48" y="48.53" width="9.93" height="2.5"/><polygon class="cls-1" points="380.44 44.51 368.43 44.49 368.43 59.49 380.44 59.51 380.44 44.51"/><rect class="cls-2" x="369.49" y="53.04" width="9.93" height="2.5"/><rect class="cls-2" x="369.49" y="48.53" width="9.93" height="2.5"/><polygon class="cls-1" points="392.46 44.51 380.44 44.49 380.44 59.49 392.46 59.51 392.46 44.51"/><rect class="cls-2" x="381.51" y="53.04" width="9.93" height="2.5"/><rect class="cls-2" x="381.51" y="48.53" width="9.93" height="2.5"/><polygon class="cls-1" points="404.47 44.51 392.46 44.49 392.46 59.49 404.47 59.51 404.47 44.51"/><rect class="cls-2" x="393.52" y="53.04" width="9.93" height="2.5"/><rect class="cls-2" x="393.52" y="48.53" width="9.93" height="2.5"/><polygon class="cls-1" points="416.49 44.51 404.47 44.49 404.47 59.49 416.49 59.51 416.49 44.51"/><rect class="cls-2" x="405.54" y="53.04" width="9.93" height="2.5"/><rect class="cls-2" x="405.54" y="48.53" width="9.93" height="2.5"/><polygon class="cls-1" points="428.5 44.51 416.49 44.49 416.49 59.49 428.5 59.51 428.5 44.51"/><rect class="cls-2" x="417.55" y="53.04" width="9.93" height="2.5"/><rect class="cls-2" x="417.55" y="48.53" width="9.93" height="2.5"/><polygon class="cls-1" points="440.51 44.51 428.5 44.49 428.5 59.49 440.51 59.51 440.51 44.51"/><rect class="cls-2" x="429.57" y="53.04" width="9.93" height="2.5"/><rect class="cls-2" x="429.57" y="48.53" width="9.93" height="2.5"/><polygon class="cls-1" points="452.53 44.51 440.51 44.49 440.51 59.49 452.53 59.51 452.53 44.51"/><rect class="cls-2" x="441.58" y="53.04" width="9.93" height="2.5"/><rect class="cls-2" x="441.58" y="48.53" width="9.93" height="2.5"/><polygon class="cls-1" points="464.54 44.51 452.53 44.49 452.53 59.49 464.54 59.51 464.54 44.51"/><rect class="cls-2" x="453.6" y="53.04" width="9.93" height="2.5"/><rect class="cls-2" x="453.6" y="48.53" width="9.93" height="2.5"/><polygon class="cls-1" points="476.56 44.51 464.54 44.49 464.54 59.49 476.56 59.51 476.56 44.51"/><rect class="cls-2" x="465.61" y="53.04" width="9.93" height="2.5"/><rect class="cls-2" x="465.61" y="48.53" width="9.93" height="2.5"/><polygon class="cls-1" points="488.57 44.51 476.56 44.49 476.56 59.49 488.57 59.51 488.57 44.51"/><rect class="cls-2" x="477.63" y="53.04" width="9.93" height="2.5"/><rect class="cls-2" x="477.63" y="48.53" width="9.93" height="2.5"/><polygon class="cls-1" points="500.59 44.51 488.57 44.49 488.57 59.49 500.59 59.51 500.59 44.51"/><rect class="cls-2" x="489.64" y="53.04" width="9.93" height="2.5"/><rect class="cls-2" x="489.64" y="48.53" width="9.93" height="2.5"/><polygon class="cls-1" points="512.6 44.51 500.59 44.49 500.59 59.49 512.6 59.51 512.6 44.51"/><rect class="cls-2" x="501.66" y="53.04" width="9.93" height="2.5"/><rect class="cls-2" x="501.66" y="48.53" width="9.93" height="2.5"/><polygon class="cls-1" points="524.62 44.51 512.6 44.49 512.6 59.49 524.62 59.51 524.62 44.51"/><rect class="cls-2" x="513.67" y="53.04" width="9.93" height="2.5"/><rect class="cls-2" x="513.67" y="48.53" width="9.93" height="2.5"/><polygon class="cls-1" points="536.63 44.51 524.62 44.49 524.62 59.49 536.63 59.51 536.63 44.51"/><rect class="cls-2" x="525.69" y="53.04" width="9.93" height="2.5"/><rect class="cls-2" x="525.69" y="48.53" width="9.93" height="2.5"/><polygon class="cls-1" points="548.65 44.51 536.63 44.49 536.63 59.49 548.65 59.51 548.65 44.51"/><rect class="cls-2" x="537.7" y="53.04" width="9.93" height="2.5"/><rect class="cls-2" x="537.7" y="48.53" width="9.93" height="2.5"/><polygon class="cls-1" points="560.66 44.51 548.65 44.49 548.65 59.49 560.66 59.51 560.66 44.51"/><rect class="cls-2" x="549.71" y="53.04" width="9.93" height="2.5"/><rect class="cls-2" x="549.71" y="48.53" width="9.93" height="2.5"/><polygon class="cls-1" points="572.68 44.51 560.66 44.49 560.66 59.49 572.68 59.51 572.68 44.51"/><rect class="cls-2" x="561.73" y="53.04" width="9.93" height="2.5"/><rect class="cls-2" x="561.73" y="48.53" width="9.93" height="2.5"/><polygon class="cls-1" points="584.69 44.51 572.68 44.49 572.68 59.49 584.69 59.51 584.69 44.51"/><rect class="cls-2" x="573.74" y="53.04" width="9.93" height="2.5"/><rect class="cls-2" x="573.74" y="48.53" width="9.93" height="2.5"/><polygon class="cls-1" points="596.71 44.51 584.69 44.49 584.69 59.49 596.71 59.51 596.71 44.51"/><rect class="cls-2" x="585.76" y="53.04" width="9.93" height="2.5"/><rect class="cls-2" x="585.76" y="48.53" width="9.93" height="2.5"/><polygon class="cls-1" points="608.72 44.51 596.71 44.49 596.71 59.49 608.72 59.51 608.72 44.51"/><rect class="cls-2" x="597.77" y="53.04" width="9.93" height="2.5"/><rect class="cls-2" x="597.77" y="48.53" width="9.93" height="2.5"/><polygon class="cls-1" points="620.74 44.51 608.72 44.49 608.72 59.49 620.74 59.51 620.74 44.51"/><rect class="cls-2" x="609.79" y="53.04" width="9.93" height="2.5"/><rect class="cls-2" x="609.79" y="48.53" width="9.93" height="2.5"/><polygon class="cls-1" points="632.75 44.51 620.74 44.49 620.74 59.49 632.75 59.51 632.75 44.51"/><rect class="cls-2" x="621.8" y="53.04" width="9.93" height="2.5"/><rect class="cls-2" x="621.8" y="48.53" width="9.93" height="2.5"/><polygon class="cls-1" points="644.76 44.51 632.75 44.49 632.75 59.49 644.76 59.51 644.76 44.51"/><rect class="cls-2" x="633.82" y="53.04" width="9.93" height="2.5"/><rect class="cls-2" x="633.82" y="48.53" width="9.93" height="2.5"/><polygon class="cls-1" points="656.78 44.51 644.76 44.49 644.76 59.49 656.78 59.51 656.78 44.51"/><rect class="cls-2" x="645.83" y="53.04" width="9.93" height="2.5"/><rect class="cls-2" x="645.83" y="48.53" width="9.93" height="2.5"/><polygon class="cls-1" points="668.79 44.51 656.78 44.49 656.78 59.49 668.79 59.51 668.79 44.51"/><rect class="cls-2" x="657.85" y="53.04" width="9.93" height="2.5"/><rect class="cls-2" x="657.85" y="48.53" width="9.93" height="2.5"/><polygon class="cls-1" points="680.81 44.51 668.79 44.49 668.79 59.49 680.81 59.51 680.81 44.51"/><rect class="cls-2" x="669.86" y="53.04" width="9.93" height="2.5"/><rect class="cls-2" x="669.86" y="48.53" width="9.93" height="2.5"/><polygon class="cls-1" points="692.82 44.51 680.81 44.49 680.81 59.49 692.82 59.51 692.82 44.51"/><rect class="cls-2" x="681.88" y="53.04" width="9.93" height="2.5"/><rect class="cls-2" x="681.88" y="48.53" width="9.93" height="2.5"/><polygon class="cls-1" points="704.84 44.51 692.82 44.49 692.82 59.49 704.84 59.51 704.84 44.51"/><rect class="cls-2" x="693.89" y="53.04" width="9.93" height="2.5"/><rect class="cls-2" x="693.89" y="48.53" width="9.93" height="2.5"/><polygon class="cls-1" points="716.85 44.51 704.84 44.49 704.84 59.49 716.85 59.51 716.85 44.51"/><rect class="cls-2" x="705.91" y="53.04" width="9.93" height="2.5"/><rect class="cls-2" x="705.91" y="48.53" width="9.93" height="2.5"/><polygon class="cls-1" points="728.87 44.51 716.85 44.49 716.85 59.49 728.87 59.51 728.87 44.51"/><rect class="cls-2" x="717.92" y="53.04" width="9.93" height="2.5"/><rect class="cls-2" x="717.92" y="48.53" width="9.93" height="2.5"/><polygon class="cls-1" points="740.88 44.51 728.87 44.49 728.87 59.49 740.88 59.51 740.88 44.51"/><rect class="cls-2" x="729.94" y="53.04" width="9.93" height="2.5"/><rect class="cls-2" x="729.94" y="48.53" width="9.93" height="2.5"/><polygon class="cls-1" points="752.9 44.51 740.88 44.49 740.88 59.49 752.9 59.51 752.9 44.51"/><rect class="cls-2" x="741.95" y="53.04" width="9.93" height="2.5"/><rect class="cls-2" x="741.95" y="48.53" width="9.93" height="2.5"/><polygon class="cls-1" points="764.91 44.51 752.9 44.49 752.9 59.49 764.91 59.51 764.91 44.51"/><rect class="cls-2" x="753.96" y="53.04" width="9.93" height="2.5"/><rect class="cls-2" x="753.96" y="48.53" width="9.93" height="2.5"/><polygon class="cls-1" points="776.93 44.51 764.91 44.49 764.91 59.49 776.93 59.51 776.93 44.51"/><rect class="cls-2" x="765.98" y="53.04" width="9.93" height="2.5"/><rect class="cls-2" x="765.98" y="48.53" width="9.93" height="2.5"/><polygon class="cls-1" points="788.94 44.51 776.93 44.49 776.93 59.49 788.94 59.51 788.94 44.51"/><rect class="cls-2" x="777.99" y="53.04" width="9.93" height="2.5"/><rect class="cls-2" x="777.99" y="48.53" width="9.93" height="2.5"/><polygon class="cls-1" points="800.96 44.51 788.94 44.49 788.94 59.49 800.96 59.51 800.96 44.51"/><rect class="cls-2" x="790.01" y="53.04" width="9.93" height="2.5"/><rect class="cls-2" x="790.01" y="48.53" width="9.93" height="2.5"/><polygon class="cls-1" points="812.97 44.51 800.96 44.49 800.96 59.49 812.97 59.51 812.97 44.51"/><rect class="cls-2" x="802.02" y="53.04" width="9.93" height="2.5"/><rect class="cls-2" x="802.02" y="48.53" width="9.93" height="2.5"/><polygon class="cls-1" points="824.99 44.51 812.97 44.49 812.97 59.49 824.99 59.51 824.99 44.51"/><rect class="cls-2" x="814.04" y="53.04" width="9.93" height="2.5"/><rect class="cls-2" x="814.04" y="48.53" width="9.93" height="2.5"/><polygon class="cls-1" points="837 44.51 824.99 44.49 824.99 59.49 837 59.51 837 44.51"/><rect class="cls-2" x="826.05" y="53.04" width="9.93" height="2.5"/><rect class="cls-2" x="826.05" y="48.53" width="9.93" height="2.5"/><rect class="cls-1" x="23.61" y="70.5" width="3.98" height="4"/><path class="cls-3" d="M27.59,72.5a2,2,0,1,1-2-2A2,2,0,0,1,27.59,72.5Z"/><rect class="cls-1" x="34.8" y="70.5" width="3.98" height="4"/><path class="cls-3" d="M38.78,72.5a2,2,0,1,1-2-2A2,2,0,0,1,38.78,72.5Z"/><rect class="cls-1" x="45.99" y="70.5" width="3.98" height="4"/><path class="cls-3" d="M50,72.5a2,2,0,1,1-2-2A2,2,0,0,1,50,72.5Z"/><rect class="cls-1" x="57.18" y="70.5" width="3.98" height="4"/><path class="cls-3" d="M61.16,72.5a2,2,0,1,1-2-2A2,2,0,0,1,61.16,72.5Z"/><rect class="cls-1" x="68.37" y="70.5" width="3.98" height="4"/><path class="cls-3" d="M72.35,72.5a2,2,0,1,1-2-2A2,2,0,0,1,72.35,72.5Z"/><rect class="cls-1" x="79.56" y="70.5" width="3.98" height="4"/><path class="cls-3" d="M83.54,72.5a2,2,0,1,1-2-2A2,2,0,0,1,83.54,72.5Z"/><rect class="cls-1" x="90.76" y="70.5" width="3.98" height="4"/><path class="cls-3" d="M94.74,72.5a2,2,0,1,1-2-2A2,2,0,0,1,94.74,72.5Z"/><rect class="cls-1" x="101.95" y="70.5" width="3.98" height="4"/><path class="cls-3" d="M105.93,72.5a2,2,0,1,1-2-2A2,2,0,0,1,105.93,72.5Z"/><rect class="cls-1" x="113.14" y="70.5" width="3.98" height="4"/><ellipse class="cls-4" cx="115.13" cy="72.5" rx="1.99" ry="2"/><rect class="cls-1" x="124.33" y="70.5" width="3.98" height="4"/><ellipse class="cls-4" cx="126.32" cy="72.5" rx="1.99" ry="2"/><rect class="cls-1" x="135.52" y="70.5" width="3.98" height="4"/><path class="cls-3" d="M139.5,72.5a2,2,0,1,1-2-2A2,2,0,0,1,139.5,72.5Z"/><rect class="cls-1" x="146.72" y="70.5" width="3.98" height="4"/><path class="cls-3" d="M150.7,72.5a2,2,0,1,1-2-2A2,2,0,0,1,150.7,72.5Z"/><rect class="cls-1" x="157.91" y="70.5" width="3.98" height="4"/><path class="cls-3" d="M161.89,72.5a2,2,0,1,1-2-2A2,2,0,0,1,161.89,72.5Z"/><rect class="cls-1" x="169.1" y="70.5" width="3.98" height="4"/><path class="cls-3" d="M173.08,72.5a2,2,0,1,1-2-2A2,2,0,0,1,173.08,72.5Z"/><rect class="cls-1" x="180.29" y="70.5" width="3.98" height="4"/><path class="cls-3" d="M184.27,72.5a2,2,0,1,1-2-2A2,2,0,0,1,184.27,72.5Z"/><rect class="cls-1" x="191.48" y="70.5" width="3.98" height="4"/><path class="cls-3" d="M195.46,72.5a2,2,0,1,1-2-2A2,2,0,0,1,195.46,72.5Z"/><rect class="cls-1" x="202.67" y="70.5" width="3.98" height="4"/><path class="cls-3" d="M206.65,72.5a2,2,0,1,1-2-2A2,2,0,0,1,206.65,72.5Z"/><rect class="cls-1" x="213.87" y="70.5" width="3.98" height="4"/><path class="cls-3" d="M217.85,72.5a2,2,0,1,1-2-2A2,2,0,0,1,217.85,72.5Z"/><rect class="cls-1" x="225.06" y="70.5" width="3.98" height="4"/><path class="cls-3" d="M229,72.5a2,2,0,1,1-2-2A2,2,0,0,1,229,72.5Z"/><rect class="cls-1" x="236.25" y="70.5" width="3.98" height="4"/><path class="cls-3" d="M240.23,72.5a2,2,0,1,1-2-2A2,2,0,0,1,240.23,72.5Z"/><rect class="cls-1" x="247.44" y="70.5" width="3.98" height="4"/><path class="cls-3" d="M251.42,72.5a2,2,0,1,1-2-2A2,2,0,0,1,251.42,72.5Z"/><rect class="cls-1" x="258.63" y="70.5" width="3.98" height="4"/><path class="cls-3" d="M262.61,72.5a2,2,0,1,1-2-2A2,2,0,0,1,262.61,72.5Z"/><rect class="cls-1" x="269.82" y="70.5" width="3.98" height="4"/><path class="cls-3" d="M273.81,72.5a2,2,0,1,1-2-2A2,2,0,0,1,273.81,72.5Z"/><rect class="cls-1" x="281.02" y="70.5" width="3.98" height="4"/><ellipse class="cls-4" cx="283.01" cy="72.5" rx="1.99" ry="2"/><rect class="cls-1" x="292.21" y="70.5" width="3.98" height="4"/><path class="cls-3" d="M296.19,72.5a2,2,0,1,1-2-2A2,2,0,0,1,296.19,72.5Z"/><rect class="cls-1" x="303.4" y="70.5" width="3.98" height="4"/><path class="cls-3" d="M307.38,72.5a2,2,0,1,1-2-2A2,2,0,0,1,307.38,72.5Z"/><rect class="cls-1" x="314.59" y="70.5" width="3.98" height="4"/><path class="cls-3" d="M318.57,72.5a2,2,0,1,1-2-2A2,2,0,0,1,318.57,72.5Z"/><rect class="cls-1" x="325.78" y="70.5" width="3.98" height="4"/><path class="cls-3" d="M329.76,72.5a2,2,0,1,1-2-2A2,2,0,0,1,329.76,72.5Z"/><rect class="cls-1" x="336.98" y="70.5" width="3.98" height="4"/><path class="cls-3" d="M341,72.5a2,2,0,1,1-2-2A2,2,0,0,1,341,72.5Z"/><rect class="cls-1" x="348.17" y="70.5" width="3.98" height="4"/><path class="cls-3" d="M352.15,72.5a2,2,0,1,1-2-2A2,2,0,0,1,352.15,72.5Z"/><rect class="cls-1" x="359.36" y="70.5" width="3.98" height="4"/><path class="cls-3" d="M363.34,72.5a2,2,0,1,1-2-2A2,2,0,0,1,363.34,72.5Z"/><rect class="cls-1" x="370.55" y="70.5" width="3.98" height="4"/><path class="cls-3" d="M374.53,72.5a2,2,0,1,1-2-2A2,2,0,0,1,374.53,72.5Z"/><rect class="cls-1" x="381.74" y="70.5" width="3.98" height="4"/><path class="cls-3" d="M385.72,72.5a2,2,0,1,1-2-2A2,2,0,0,1,385.72,72.5Z"/><rect class="cls-1" x="392.93" y="70.5" width="3.98" height="4"/><path class="cls-3" d="M396.91,72.5a2,2,0,1,1-2-2A2,2,0,0,1,396.91,72.5Z"/><rect class="cls-1" x="404.13" y="70.5" width="3.98" height="4"/><path class="cls-3" d="M408.11,72.5a2,2,0,1,1-2-2A2,2,0,0,1,408.11,72.5Z"/><rect class="cls-1" x="415.32" y="70.5" width="3.98" height="4"/><path class="cls-3" d="M419.3,72.5a2,2,0,1,1-2-2A2,2,0,0,1,419.3,72.5Z"/><rect class="cls-1" x="426.51" y="70.5" width="3.98" height="4"/><path class="cls-3" d="M430.49,72.5a2,2,0,1,1-2-2A2,2,0,0,1,430.49,72.5Z"/><rect class="cls-1" x="437.7" y="70.5" width="3.98" height="4"/><ellipse class="cls-4" cx="439.69" cy="72.5" rx="1.99" ry="2"/><rect class="cls-1" x="448.89" y="70.5" width="3.98" height="4"/><ellipse class="cls-4" cx="450.88" cy="72.5" rx="1.99" ry="2"/><rect class="cls-1" x="460.09" y="70.5" width="3.98" height="4"/><path class="cls-3" d="M464.07,72.5a2,2,0,1,1-2-2A2,2,0,0,1,464.07,72.5Z"/><rect class="cls-1" x="471.28" y="70.5" width="3.98" height="4"/><path class="cls-3" d="M475.26,72.5a2,2,0,1,1-2-2A2,2,0,0,1,475.26,72.5Z"/><rect class="cls-1" x="482.47" y="70.5" width="3.98" height="4"/><path class="cls-3" d="M486.45,72.5a2,2,0,1,1-2-2A2,2,0,0,1,486.45,72.5Z"/><rect class="cls-1" x="493.66" y="70.5" width="3.98" height="4"/><path class="cls-3" d="M497.64,72.5a2,2,0,1,1-2-2A2,2,0,0,1,497.64,72.5Z"/><rect class="cls-1" x="504.85" y="70.5" width="3.98" height="4"/><path class="cls-3" d="M508.83,72.5a2,2,0,1,1-2-2A2,2,0,0,1,508.83,72.5Z"/><rect class="cls-1" x="516.04" y="70.5" width="3.98" height="4"/><path class="cls-3" d="M520,72.5a2,2,0,1,1-2-2A2,2,0,0,1,520,72.5Z"/><rect class="cls-1" x="527.24" y="70.5" width="3.98" height="4"/><path class="cls-3" d="M531.22,72.5a2,2,0,1,1-2-2A2,2,0,0,1,531.22,72.5Z"/><rect class="cls-1" x="538.43" y="70.5" width="3.98" height="4"/><path class="cls-3" d="M542.41,72.5a2,2,0,1,1-2-2A2,2,0,0,1,542.41,72.5Z"/><rect class="cls-1" x="549.62" y="70.5" width="3.98" height="4"/><path class="cls-3" d="M553.6,72.5a2,2,0,1,1-2-2A2,2,0,0,1,553.6,72.5Z"/><rect class="cls-1" x="560.81" y="70.5" width="3.98" height="4"/><path class="cls-3" d="M564.79,72.5a2,2,0,1,1-2-2A2,2,0,0,1,564.79,72.5Z"/><rect class="cls-1" x="572" y="70.5" width="3.98" height="4"/><path class="cls-3" d="M576,72.5a2,2,0,1,1-2-2A2,2,0,0,1,576,72.5Z"/><rect class="cls-1" x="583.19" y="70.5" width="3.98" height="4"/><path class="cls-3" d="M587.18,72.5a2,2,0,1,1-2-2A2,2,0,0,1,587.18,72.5Z"/><rect class="cls-1" x="594.39" y="70.5" width="3.98" height="4"/><path class="cls-3" d="M598.37,72.5a2,2,0,1,1-2-2A2,2,0,0,1,598.37,72.5Z"/><rect class="cls-1" x="605.58" y="70.5" width="3.98" height="4"/><ellipse class="cls-4" cx="607.57" cy="72.5" rx="1.99" ry="2"/><rect class="cls-1" x="616.77" y="70.5" width="3.98" height="4"/><path class="cls-3" d="M620.75,72.5a2,2,0,1,1-2-2A2,2,0,0,1,620.75,72.5Z"/><rect class="cls-1" x="627.96" y="70.5" width="3.98" height="4"/><path class="cls-3" d="M631.94,72.5a2,2,0,1,1-2-2A2,2,0,0,1,631.94,72.5Z"/><rect class="cls-1" x="639.15" y="70.5" width="3.98" height="4"/><path class="cls-3" d="M643.13,72.5a2,2,0,1,1-2-2A2,2,0,0,1,643.13,72.5Z"/><rect class="cls-1" x="650.35" y="70.5" width="3.98" height="4"/><path class="cls-3" d="M654.33,72.5a2,2,0,1,1-2-2A2,2,0,0,1,654.33,72.5Z"/><rect class="cls-1" x="661.54" y="70.5" width="3.98" height="4"/><path class="cls-3" d="M665.52,72.5a2,2,0,1,1-2-2A2,2,0,0,1,665.52,72.5Z"/><rect class="cls-1" x="672.73" y="70.5" width="3.98" height="4"/><path class="cls-3" d="M676.71,72.5a2,2,0,1,1-2-2A2,2,0,0,1,676.71,72.5Z"/><rect class="cls-1" x="683.92" y="70.5" width="3.98" height="4"/><path class="cls-3" d="M687.9,72.5a2,2,0,1,1-2-2A2,2,0,0,1,687.9,72.5Z"/><rect class="cls-1" x="695.11" y="70.5" width="3.98" height="4"/><path class="cls-3" d="M699.09,72.5a2,2,0,1,1-2-2A2,2,0,0,1,699.09,72.5Z"/><rect class="cls-1" x="706.3" y="70.5" width="3.98" height="4"/><path class="cls-3" d="M710.28,72.5a2,2,0,1,1-2-2A2,2,0,0,1,710.28,72.5Z"/><rect class="cls-1" x="717.5" y="70.5" width="3.98" height="4"/><path class="cls-3" d="M721.48,72.5a2,2,0,1,1-2-2A2,2,0,0,1,721.48,72.5Z"/><rect class="cls-1" x="728.69" y="70.5" width="3.98" height="4"/><path class="cls-3" d="M732.67,72.5a2,2,0,1,1-2-2A2,2,0,0,1,732.67,72.5Z"/><rect class="cls-1" x="739.88" y="70.5" width="3.98" height="4"/><path class="cls-3" d="M743.86,72.5a2,2,0,1,1-2-2A2,2,0,0,1,743.86,72.5Z"/><rect class="cls-1" x="751.07" y="70.5" width="3.98" height="4"/><path class="cls-3" d="M755.05,72.5a2,2,0,1,1-2-2A2,2,0,0,1,755.05,72.5Z"/><rect class="cls-1" x="762.26" y="70.5" width="3.98" height="4"/><ellipse class="cls-4" cx="764.25" cy="72.5" rx="1.99" ry="2"/><rect class="cls-1" x="773.46" y="70.5" width="3.98" height="4"/><ellipse class="cls-4" cx="775.45" cy="72.5" rx="1.99" ry="2"/><rect class="cls-1" x="784.65" y="70.5" width="3.98" height="4"/><path class="cls-3" d="M788.63,72.5a2,2,0,1,1-2-2A2,2,0,0,1,788.63,72.5Z"/><rect class="cls-1" x="795.84" y="70.5" width="3.98" height="4"/><path class="cls-3" d="M799.82,72.5a2,2,0,1,1-2-2A2,2,0,0,1,799.82,72.5Z"/><rect class="cls-1" x="807.03" y="70.5" width="3.98" height="4"/><path class="cls-3" d="M811,72.5a2,2,0,1,1-2-2A2,2,0,0,1,811,72.5Z"/><rect class="cls-1" x="818.22" y="70.5" width="3.98" height="4"/><path class="cls-3" d="M822.2,72.5a2,2,0,1,1-2-2A2,2,0,0,1,822.2,72.5Z"/><rect class="cls-1" x="829.41" y="70.5" width="3.98" height="4"/><path class="cls-3" d="M833.39,72.5a2,2,0,1,1-2-2A2,2,0,0,1,833.39,72.5Z"/><rect class="cls-1" x="791.61" y="309.5" width="45.39" height="30"/><rect class="cls-2" x="822.38" y="322.51" width="12.09" height="4"/><rect class="cls-2" x="811.3" y="322.51" width="6.04" height="4"/><rect class="cls-2" x="794.18" y="322.51" width="12.09" height="4"/><rect class="cls-1" x="746.22" y="309.5" width="45.39" height="30"/><rect class="cls-2" x="776.99" y="322.51" width="12.09" height="4"/><rect class="cls-2" x="765.91" y="322.51" width="6.04" height="4"/><rect class="cls-2" x="748.79" y="322.51" width="12.09" height="4"/><rect class="cls-1" x="700.83" y="309.5" width="45.39" height="30"/><rect class="cls-2" x="731.61" y="322.51" width="12.09" height="4"/><rect class="cls-2" x="720.53" y="322.51" width="6.04" height="4"/><rect class="cls-2" x="703.4" y="322.51" width="12.09" height="4"/><rect class="cls-1" x="655.44" y="309.5" width="45.39" height="30"/><rect class="cls-2" x="686.22" y="322.51" width="12.09" height="4"/><rect class="cls-2" x="675.14" y="322.51" width="6.04" height="4"/><rect class="cls-2" x="658.01" y="322.51" width="12.09" height="4"/><rect class="cls-1" x="610.06" y="309.5" width="45.39" height="30"/><rect class="cls-2" x="640.83" y="322.51" width="12.09" height="4"/><rect class="cls-2" x="629.75" y="322.51" width="6.04" height="4"/><rect class="cls-2" x="612.62" y="322.51" width="12.09" height="4"/><rect class="cls-1" x="564.67" y="309.5" width="45.39" height="30"/><rect class="cls-2" x="595.44" y="322.51" width="12.09" height="4"/><rect class="cls-2" x="584.36" y="322.51" width="6.04" height="4"/><rect class="cls-2" x="567.24" y="322.51" width="12.09" height="4"/><rect class="cls-1" x="519.28" y="309.5" width="45.39" height="30"/><rect class="cls-2" x="550.05" y="322.51" width="12.09" height="4"/><rect class="cls-2" x="538.97" y="322.51" width="6.04" height="4"/><rect class="cls-2" x="521.85" y="322.51" width="12.09" height="4"/><rect class="cls-1" x="473.89" y="309.5" width="45.39" height="30"/><rect class="cls-2" x="504.66" y="322.51" width="12.09" height="4"/><rect class="cls-2" x="493.58" y="322.51" width="6.04" height="4"/><rect class="cls-2" x="476.46" y="322.51" width="12.09" height="4"/><rect class="cls-1" x="428.5" y="309.5" width="45.39" height="30"/><rect class="cls-2" x="459.27" y="322.51" width="12.09" height="4"/><rect class="cls-2" x="448.19" y="322.51" width="6.04" height="4"/><rect class="cls-2" x="431.07" y="322.51" width="12.09" height="4"/><rect class="cls-1" x="383.11" y="309.5" width="45.39" height="30"/><rect class="cls-2" x="413.88" y="322.51" width="12.09" height="4"/><rect class="cls-2" x="402.8" y="322.51" width="6.04" height="4"/><rect class="cls-2" x="385.68" y="322.51" width="12.09" height="4"/><rect class="cls-1" x="337.72" y="309.5" width="45.39" height="30"/><rect class="cls-2" x="368.49" y="322.51" width="12.09" height="4"/><rect class="cls-2" x="357.41" y="322.51" width="6.04" height="4"/><rect class="cls-2" x="340.29" y="322.51" width="12.09" height="4"/><rect class="cls-1" x="292.33" y="309.5" width="45.39" height="30"/><rect class="cls-2" x="323.11" y="322.51" width="12.09" height="4"/><rect class="cls-2" x="312.03" y="322.51" width="6.04" height="4"/><rect class="cls-2" x="294.9" y="322.51" width="12.09" height="4"/><rect class="cls-1" x="246.94" y="309.5" width="45.39" height="30"/><rect class="cls-2" x="277.72" y="322.51" width="12.09" height="4"/><rect class="cls-2" x="266.64" y="322.51" width="6.04" height="4"/><rect class="cls-2" x="249.51" y="322.51" width="12.09" height="4"/><rect class="cls-1" x="201.56" y="309.5" width="45.39" height="30"/><rect class="cls-2" x="232.33" y="322.51" width="12.09" height="4"/><rect class="cls-2" x="221.25" y="322.51" width="6.04" height="4"/><rect class="cls-2" x="204.12" y="322.51" width="12.09" height="4"/><rect class="cls-1" x="156.17" y="309.5" width="45.39" height="30"/><rect class="cls-2" x="186.94" y="322.51" width="12.09" height="4"/><rect class="cls-2" x="175.86" y="322.51" width="6.04" height="4"/><rect class="cls-2" x="158.74" y="322.51" width="12.09" height="4"/><rect class="cls-1" x="110.78" y="309.5" width="45.39" height="30"/><rect class="cls-2" x="141.55" y="322.51" width="12.09" height="4"/><rect class="cls-2" x="130.47" y="322.51" width="6.04" height="4"/><rect class="cls-2" x="113.35" y="322.51" width="12.09" height="4"/><rect class="cls-1" x="65.39" y="309.5" width="45.39" height="30"/><rect class="cls-2" x="96.16" y="322.51" width="12.09" height="4"/><rect class="cls-2" x="85.08" y="322.51" width="6.04" height="4"/><rect class="cls-2" x="67.96" y="322.51" width="12.09" height="4"/><rect class="cls-1" x="20" y="309.5" width="45.39" height="30"/><rect class="cls-2" x="50.77" y="322.51" width="12.09" height="4"/><rect class="cls-2" x="39.69" y="322.51" width="6.04" height="4"/><rect class="cls-2" x="22.57" y="322.51" width="12.09" height="4"/><polygon class="cls-1" points="824.49 313.49 836.5 313.51 836.5 298.51 824.49 298.49 824.49 313.49"/><rect class="cls-2" x="825.5" y="302.46" width="9.93" height="2.5"/><rect class="cls-2" x="825.5" y="306.96" width="9.93" height="2.5"/><polygon class="cls-1" points="812.47 313.49 824.49 313.51 824.49 298.51 812.47 298.49 812.47 313.49"/><rect class="cls-2" x="813.49" y="302.46" width="9.93" height="2.5"/><rect class="cls-2" x="813.49" y="306.96" width="9.93" height="2.5"/><polygon class="cls-1" points="800.46 313.49 812.47 313.51 812.47 298.51 800.46 298.49 800.46 313.49"/><rect class="cls-2" x="801.47" y="302.46" width="9.93" height="2.5"/><rect class="cls-2" x="801.47" y="306.96" width="9.93" height="2.5"/><polygon class="cls-1" points="788.44 313.49 800.46 313.51 800.46 298.51 788.44 298.49 788.44 313.49"/><rect class="cls-2" x="789.46" y="302.46" width="9.93" height="2.5"/><rect class="cls-2" x="789.46" y="306.96" width="9.93" height="2.5"/><polygon class="cls-1" points="776.43 313.49 788.44 313.51 788.44 298.51 776.43 298.49 776.43 313.49"/><rect class="cls-2" x="777.44" y="302.46" width="9.93" height="2.5"/><rect class="cls-2" x="777.44" y="306.96" width="9.93" height="2.5"/><polygon class="cls-1" points="764.41 313.49 776.43 313.51 776.43 298.51 764.41 298.49 764.41 313.49"/><rect class="cls-2" x="765.43" y="302.46" width="9.93" height="2.5"/><rect class="cls-2" x="765.43" y="306.96" width="9.93" height="2.5"/><polygon class="cls-1" points="752.4 313.49 764.41 313.51 764.41 298.51 752.4 298.49 752.4 313.49"/><rect class="cls-2" x="753.42" y="302.46" width="9.93" height="2.5"/><rect class="cls-2" x="753.42" y="306.96" width="9.93" height="2.5"/><polygon class="cls-1" points="740.38 313.49 752.4 313.51 752.4 298.51 740.38 298.49 740.38 313.49"/><rect class="cls-2" x="741.4" y="302.46" width="9.93" height="2.5"/><rect class="cls-2" x="741.4" y="306.96" width="9.93" height="2.5"/><polygon class="cls-1" points="728.37 313.49 740.38 313.51 740.38 298.51 728.37 298.49 728.37 313.49"/><rect class="cls-2" x="729.39" y="302.46" width="9.93" height="2.5"/><rect class="cls-2" x="729.39" y="306.96" width="9.93" height="2.5"/><polygon class="cls-1" points="716.35 313.49 728.37 313.51 728.37 298.51 716.35 298.49 716.35 313.49"/><rect class="cls-2" x="717.37" y="302.46" width="9.93" height="2.5"/><rect class="cls-2" x="717.37" y="306.96" width="9.93" height="2.5"/><polygon class="cls-1" points="704.34 313.49 716.35 313.51 716.35 298.51 704.34 298.49 704.34 313.49"/><rect class="cls-2" x="705.36" y="302.46" width="9.93" height="2.5"/><rect class="cls-2" x="705.36" y="306.96" width="9.93" height="2.5"/><polygon class="cls-1" points="692.32 313.49 704.34 313.51 704.34 298.51 692.32 298.49 692.32 313.49"/><rect class="cls-2" x="693.34" y="302.46" width="9.93" height="2.5"/><rect class="cls-2" x="693.34" y="306.96" width="9.93" height="2.5"/><polygon class="cls-1" points="680.31 313.49 692.32 313.51 692.32 298.51 680.31 298.49 680.31 313.49"/><rect class="cls-2" x="681.33" y="302.46" width="9.93" height="2.5"/><rect class="cls-2" x="681.33" y="306.96" width="9.93" height="2.5"/><polygon class="cls-1" points="668.29 313.49 680.31 313.51 680.31 298.51 668.29 298.49 668.29 313.49"/><rect class="cls-2" x="669.31" y="302.46" width="9.93" height="2.5"/><rect class="cls-2" x="669.31" y="306.96" width="9.93" height="2.5"/><polygon class="cls-1" points="656.28 313.49 668.29 313.51 668.29 298.51 656.28 298.49 656.28 313.49"/><rect class="cls-2" x="657.3" y="302.46" width="9.93" height="2.5"/><rect class="cls-2" x="657.3" y="306.96" width="9.93" height="2.5"/><polygon class="cls-1" points="644.26 313.49 656.28 313.51 656.28 298.51 644.26 298.49 644.26 313.49"/><rect class="cls-2" x="645.28" y="302.46" width="9.93" height="2.5"/><rect class="cls-2" x="645.28" y="306.96" width="9.93" height="2.5"/><polygon class="cls-1" points="632.25 313.49 644.26 313.51 644.26 298.51 632.25 298.49 632.25 313.49"/><rect class="cls-2" x="633.27" y="302.46" width="9.93" height="2.5"/><rect class="cls-2" x="633.27" y="306.96" width="9.93" height="2.5"/><polygon class="cls-1" points="620.24 313.49 632.25 313.51 632.25 298.51 620.24 298.49 620.24 313.49"/><rect class="cls-2" x="621.25" y="302.46" width="9.93" height="2.5"/><rect class="cls-2" x="621.25" y="306.96" width="9.93" height="2.5"/><polygon class="cls-1" points="608.22 313.49 620.24 313.51 620.24 298.51 608.22 298.49 608.22 313.49"/><rect class="cls-2" x="609.24" y="302.46" width="9.93" height="2.5"/><rect class="cls-2" x="609.24" y="306.96" width="9.93" height="2.5"/><polygon class="cls-1" points="596.21 313.49 608.22 313.51 608.22 298.51 596.21 298.49 596.21 313.49"/><rect class="cls-2" x="597.22" y="302.46" width="9.93" height="2.5"/><rect class="cls-2" x="597.22" y="306.96" width="9.93" height="2.5"/><polygon class="cls-1" points="584.19 313.49 596.21 313.51 596.21 298.51 584.19 298.49 584.19 313.49"/><rect class="cls-2" x="585.21" y="302.46" width="9.93" height="2.5"/><rect class="cls-2" x="585.21" y="306.96" width="9.93" height="2.5"/><polygon class="cls-1" points="572.18 313.49 584.19 313.51 584.19 298.51 572.18 298.49 572.18 313.49"/><rect class="cls-2" x="573.19" y="302.46" width="9.93" height="2.5"/><rect class="cls-2" x="573.19" y="306.96" width="9.93" height="2.5"/><polygon class="cls-1" points="560.16 313.49 572.18 313.51 572.18 298.51 560.16 298.49 560.16 313.49"/><rect class="cls-2" x="561.18" y="302.46" width="9.93" height="2.5"/><rect class="cls-2" x="561.18" y="306.96" width="9.93" height="2.5"/><polygon class="cls-1" points="548.15 313.49 560.16 313.51 560.16 298.51 548.15 298.49 548.15 313.49"/><rect class="cls-2" x="549.17" y="302.46" width="9.93" height="2.5"/><rect class="cls-2" x="549.17" y="306.96" width="9.93" height="2.5"/><polygon class="cls-1" points="536.13 313.49 548.15 313.51 548.15 298.51 536.13 298.49 536.13 313.49"/><rect class="cls-2" x="537.15" y="302.46" width="9.93" height="2.5"/><rect class="cls-2" x="537.15" y="306.96" width="9.93" height="2.5"/><polygon class="cls-1" points="524.12 313.49 536.13 313.51 536.13 298.51 524.12 298.49 524.12 313.49"/><rect class="cls-2" x="525.14" y="302.46" width="9.93" height="2.5"/><rect class="cls-2" x="525.14" y="306.96" width="9.93" height="2.5"/><polygon class="cls-1" points="512.1 313.49 524.12 313.51 524.12 298.51 512.1 298.49 512.1 313.49"/><rect class="cls-2" x="513.12" y="302.46" width="9.93" height="2.5"/><rect class="cls-2" x="513.12" y="306.96" width="9.93" height="2.5"/><polygon class="cls-1" points="500.09 313.49 512.1 313.51 512.1 298.51 500.09 298.49 500.09 313.49"/><rect class="cls-2" x="501.11" y="302.46" width="9.93" height="2.5"/><rect class="cls-2" x="501.11" y="306.96" width="9.93" height="2.5"/><polygon class="cls-1" points="488.07 313.49 500.09 313.51 500.09 298.51 488.07 298.49 488.07 313.49"/><rect class="cls-2" x="489.09" y="302.46" width="9.93" height="2.5"/><rect class="cls-2" x="489.09" y="306.96" width="9.93" height="2.5"/><polygon class="cls-1" points="476.06 313.49 488.07 313.51 488.07 298.51 476.06 298.49 476.06 313.49"/><rect class="cls-2" x="477.08" y="302.46" width="9.93" height="2.5"/><rect class="cls-2" x="477.08" y="306.96" width="9.93" height="2.5"/><polygon class="cls-1" points="464.04 313.49 476.06 313.51 476.06 298.51 464.04 298.49 464.04 313.49"/><rect class="cls-2" x="465.06" y="302.46" width="9.93" height="2.5"/><rect class="cls-2" x="465.06" y="306.96" width="9.93" height="2.5"/><polygon class="cls-1" points="452.03 313.49 464.04 313.51 464.04 298.51 452.03 298.49 452.03 313.49"/><rect class="cls-2" x="453.05" y="302.46" width="9.93" height="2.5"/><rect class="cls-2" x="453.05" y="306.96" width="9.93" height="2.5"/><polygon class="cls-1" points="440.01 313.49 452.03 313.51 452.03 298.51 440.01 298.49 440.01 313.49"/><rect class="cls-2" x="441.03" y="302.46" width="9.93" height="2.5"/><rect class="cls-2" x="441.03" y="306.96" width="9.93" height="2.5"/><polygon class="cls-1" points="428 313.49 440.01 313.51 440.01 298.51 428 298.49 428 313.49"/><rect class="cls-2" x="429.02" y="302.46" width="9.93" height="2.5"/><rect class="cls-2" x="429.02" y="306.96" width="9.93" height="2.5"/><polygon class="cls-1" points="415.99 313.49 428 313.51 428 298.51 415.99 298.49 415.99 313.49"/><rect class="cls-2" x="417" y="302.46" width="9.93" height="2.5"/><rect class="cls-2" x="417" y="306.96" width="9.93" height="2.5"/><polygon class="cls-1" points="403.97 313.49 415.99 313.51 415.99 298.51 403.97 298.49 403.97 313.49"/><rect class="cls-2" x="404.99" y="302.46" width="9.93" height="2.5"/><rect class="cls-2" x="404.99" y="306.96" width="9.93" height="2.5"/><polygon class="cls-1" points="391.96 313.49 403.97 313.51 403.97 298.51 391.96 298.49 391.96 313.49"/><rect class="cls-2" x="392.97" y="302.46" width="9.93" height="2.5"/><rect class="cls-2" x="392.97" y="306.96" width="9.93" height="2.5"/><polygon class="cls-1" points="379.94 313.49 391.96 313.51 391.96 298.51 379.94 298.49 379.94 313.49"/><rect class="cls-2" x="380.96" y="302.46" width="9.93" height="2.5"/><rect class="cls-2" x="380.96" y="306.96" width="9.93" height="2.5"/><polygon class="cls-1" points="367.93 313.49 379.94 313.51 379.94 298.51 367.93 298.49 367.93 313.49"/><rect class="cls-2" x="368.94" y="302.46" width="9.93" height="2.5"/><rect class="cls-2" x="368.94" y="306.96" width="9.93" height="2.5"/><polygon class="cls-1" points="355.91 313.49 367.93 313.51 367.93 298.51 355.91 298.49 355.91 313.49"/><rect class="cls-2" x="356.93" y="302.46" width="9.93" height="2.5"/><rect class="cls-2" x="356.93" y="306.96" width="9.93" height="2.5"/><polygon class="cls-1" points="343.9 313.49 355.91 313.51 355.91 298.51 343.9 298.49 343.9 313.49"/><rect class="cls-2" x="344.92" y="302.46" width="9.93" height="2.5"/><rect class="cls-2" x="344.92" y="306.96" width="9.93" height="2.5"/><polygon class="cls-1" points="331.88 313.49 343.9 313.51 343.9 298.51 331.88 298.49 331.88 313.49"/><rect class="cls-2" x="332.9" y="302.46" width="9.93" height="2.5"/><rect class="cls-2" x="332.9" y="306.96" width="9.93" height="2.5"/><polygon class="cls-1" points="319.87 313.49 331.88 313.51 331.88 298.51 319.87 298.49 319.87 313.49"/><rect class="cls-2" x="320.89" y="302.46" width="9.93" height="2.5"/><rect class="cls-2" x="320.89" y="306.96" width="9.93" height="2.5"/><polygon class="cls-1" points="307.85 313.49 319.87 313.51 319.87 298.51 307.85 298.49 307.85 313.49"/><rect class="cls-2" x="308.87" y="302.46" width="9.93" height="2.5"/><rect class="cls-2" x="308.87" y="306.96" width="9.93" height="2.5"/><polygon class="cls-1" points="295.84 313.49 307.85 313.51 307.85 298.51 295.84 298.49 295.84 313.49"/><rect class="cls-2" x="296.86" y="302.46" width="9.93" height="2.5"/><rect class="cls-2" x="296.86" y="306.96" width="9.93" height="2.5"/><polygon class="cls-1" points="283.82 313.49 295.84 313.51 295.84 298.51 283.82 298.49 283.82 313.49"/><rect class="cls-2" x="284.84" y="302.46" width="9.93" height="2.5"/><rect class="cls-2" x="284.84" y="306.96" width="9.93" height="2.5"/><polygon class="cls-1" points="271.81 313.49 283.82 313.51 283.82 298.51 271.81 298.49 271.81 313.49"/><rect class="cls-2" x="272.83" y="302.46" width="9.93" height="2.5"/><rect class="cls-2" x="272.83" y="306.96" width="9.93" height="2.5"/><polygon class="cls-1" points="259.79 313.49 271.81 313.51 271.81 298.51 259.79 298.49 259.79 313.49"/><rect class="cls-2" x="260.81" y="302.46" width="9.93" height="2.5"/><rect class="cls-2" x="260.81" y="306.96" width="9.93" height="2.5"/><polygon class="cls-1" points="247.78 313.49 259.79 313.51 259.79 298.51 247.78 298.49 247.78 313.49"/><rect class="cls-2" x="248.8" y="302.46" width="9.93" height="2.5"/><rect class="cls-2" x="248.8" y="306.96" width="9.93" height="2.5"/><polygon class="cls-1" points="235.76 313.49 247.78 313.51 247.78 298.51 235.76 298.49 235.76 313.49"/><rect class="cls-2" x="236.78" y="302.46" width="9.93" height="2.5"/><rect class="cls-2" x="236.78" y="306.96" width="9.93" height="2.5"/><polygon class="cls-1" points="223.75 313.49 235.76 313.51 235.76 298.51 223.75 298.49 223.75 313.49"/><rect class="cls-2" x="224.77" y="302.46" width="9.93" height="2.5"/><rect class="cls-2" x="224.77" y="306.96" width="9.93" height="2.5"/><polygon class="cls-1" points="211.74 313.49 223.75 313.51 223.75 298.51 211.74 298.49 211.74 313.49"/><rect class="cls-2" x="212.75" y="302.46" width="9.93" height="2.5"/><rect class="cls-2" x="212.75" y="306.96" width="9.93" height="2.5"/><polygon class="cls-1" points="199.72 313.49 211.74 313.51 211.74 298.51 199.72 298.49 199.72 313.49"/><rect class="cls-2" x="200.74" y="302.46" width="9.93" height="2.5"/><rect class="cls-2" x="200.74" y="306.96" width="9.93" height="2.5"/><polygon class="cls-1" points="187.71 313.49 199.72 313.51 199.72 298.51 187.71 298.49 187.71 313.49"/><rect class="cls-2" x="188.72" y="302.46" width="9.93" height="2.5"/><rect class="cls-2" x="188.72" y="306.96" width="9.93" height="2.5"/><polygon class="cls-1" points="175.69 313.49 187.71 313.51 187.71 298.51 175.69 298.49 175.69 313.49"/><rect class="cls-2" x="176.71" y="302.46" width="9.93" height="2.5"/><rect class="cls-2" x="176.71" y="306.96" width="9.93" height="2.5"/><polygon class="cls-1" points="163.68 313.49 175.69 313.51 175.69 298.51 163.68 298.49 163.68 313.49"/><rect class="cls-2" x="164.69" y="302.46" width="9.93" height="2.5"/><rect class="cls-2" x="164.69" y="306.96" width="9.93" height="2.5"/><polygon class="cls-1" points="151.66 313.49 163.68 313.51 163.68 298.51 151.66 298.49 151.66 313.49"/><rect class="cls-2" x="152.68" y="302.46" width="9.93" height="2.5"/><rect class="cls-2" x="152.68" y="306.96" width="9.93" height="2.5"/><polygon class="cls-1" points="139.65 313.49 151.66 313.51 151.66 298.51 139.65 298.49 139.65 313.49"/><rect class="cls-2" x="140.67" y="302.46" width="9.93" height="2.5"/><rect class="cls-2" x="140.67" y="306.96" width="9.93" height="2.5"/><polygon class="cls-1" points="127.63 313.49 139.65 313.51 139.65 298.51 127.63 298.49 127.63 313.49"/><rect class="cls-2" x="128.65" y="302.46" width="9.93" height="2.5"/><rect class="cls-2" x="128.65" y="306.96" width="9.93" height="2.5"/><polygon class="cls-1" points="115.62 313.49 127.63 313.51 127.63 298.51 115.62 298.49 115.62 313.49"/><rect class="cls-2" x="116.64" y="302.46" width="9.93" height="2.5"/><rect class="cls-2" x="116.64" y="306.96" width="9.93" height="2.5"/><polygon class="cls-1" points="103.6 313.49 115.62 313.51 115.62 298.51 103.6 298.49 103.6 313.49"/><rect class="cls-2" x="104.62" y="302.46" width="9.93" height="2.5"/><rect class="cls-2" x="104.62" y="306.96" width="9.93" height="2.5"/><polygon class="cls-1" points="91.59 313.49 103.6 313.51 103.6 298.51 91.59 298.49 91.59 313.49"/><rect class="cls-2" x="92.61" y="302.46" width="9.93" height="2.5"/><rect class="cls-2" x="92.61" y="306.96" width="9.93" height="2.5"/><polygon class="cls-1" points="79.57 313.49 91.59 313.51 91.59 298.51 79.57 298.49 79.57 313.49"/><rect class="cls-2" x="80.59" y="302.46" width="9.93" height="2.5"/><rect class="cls-2" x="80.59" y="306.96" width="9.93" height="2.5"/><polygon class="cls-1" points="67.56 313.49 79.57 313.51 79.57 298.51 67.56 298.49 67.56 313.49"/><rect class="cls-2" x="68.58" y="302.46" width="9.93" height="2.5"/><rect class="cls-2" x="68.58" y="306.96" width="9.93" height="2.5"/><polygon class="cls-1" points="55.54 313.49 67.56 313.51 67.56 298.51 55.54 298.49 55.54 313.49"/><rect class="cls-2" x="56.56" y="302.46" width="9.93" height="2.5"/><rect class="cls-2" x="56.56" y="306.96" width="9.93" height="2.5"/><polygon class="cls-1" points="43.53 313.49 55.54 313.51 55.54 298.51 43.53 298.49 43.53 313.49"/><rect class="cls-2" x="44.55" y="302.46" width="9.93" height="2.5"/><rect class="cls-2" x="44.55" y="306.96" width="9.93" height="2.5"/><polygon class="cls-1" points="31.52 313.49 43.53 313.51 43.53 298.51 31.52 298.49 31.52 313.49"/><rect class="cls-2" x="32.53" y="302.46" width="9.93" height="2.5"/><rect class="cls-2" x="32.53" y="306.96" width="9.93" height="2.5"/><polygon class="cls-1" points="19.5 313.49 31.52 313.51 31.52 298.51 19.5 298.49 19.5 313.49"/><rect class="cls-2" x="20.52" y="302.46" width="9.93" height="2.5"/><rect class="cls-2" x="20.52" y="306.96" width="9.93" height="2.5"/><rect class="cls-1" x="828.91" y="283.5" width="3.98" height="4"/><path class="cls-3" d="M828.91,285.5a2,2,0,1,1,2,2A2,2,0,0,1,828.91,285.5Z"/><rect class="cls-1" x="817.72" y="283.5" width="3.98" height="4"/><path class="cls-3" d="M817.72,285.5a2,2,0,1,1,2,2A2,2,0,0,1,817.72,285.5Z"/><rect class="cls-1" x="806.53" y="283.5" width="3.98" height="4"/><path class="cls-3" d="M806.53,285.5a2,2,0,1,1,2,2A2,2,0,0,1,806.53,285.5Z"/><rect class="cls-1" x="795.34" y="283.5" width="3.98" height="4"/><path class="cls-3" d="M795.34,285.5a2,2,0,1,1,2,2A2,2,0,0,1,795.34,285.5Z"/><rect class="cls-1" x="784.15" y="283.5" width="3.98" height="4"/><path class="cls-3" d="M784.15,285.5a2,2,0,1,1,2,2A2,2,0,0,1,784.15,285.5Z"/><rect class="cls-1" x="772.96" y="283.5" width="3.98" height="4"/><path class="cls-3" d="M773,285.5a2,2,0,1,1,2,2A2,2,0,0,1,773,285.5Z"/><rect class="cls-1" x="761.76" y="283.5" width="3.98" height="4"/><path class="cls-3" d="M761.76,285.5a2,2,0,1,1,2,2A2,2,0,0,1,761.76,285.5Z"/><rect class="cls-1" x="750.57" y="283.5" width="3.98" height="4"/><path class="cls-3" d="M750.57,285.5a2,2,0,1,1,2,2A2,2,0,0,1,750.57,285.5Z"/><rect class="cls-1" x="739.38" y="283.5" width="3.98" height="4"/><ellipse class="cls-4" cx="741.37" cy="285.5" rx="1.99" ry="2"/><rect class="cls-1" x="728.19" y="283.5" width="3.98" height="4"/><ellipse class="cls-4" cx="730.18" cy="285.5" rx="1.99" ry="2"/><rect class="cls-1" x="717" y="283.5" width="3.98" height="4"/><path class="cls-3" d="M717,285.5a2,2,0,1,1,2,2A2,2,0,0,1,717,285.5Z"/><rect class="cls-1" x="705.8" y="283.5" width="3.98" height="4"/><path class="cls-3" d="M705.8,285.5a2,2,0,1,1,2,2A2,2,0,0,1,705.8,285.5Z"/><rect class="cls-1" x="694.61" y="283.5" width="3.98" height="4"/><path class="cls-3" d="M694.61,285.5a2,2,0,1,1,2,2A2,2,0,0,1,694.61,285.5Z"/><rect class="cls-1" x="683.42" y="283.5" width="3.98" height="4"/><path class="cls-3" d="M683.42,285.5a2,2,0,1,1,2,2A2,2,0,0,1,683.42,285.5Z"/><rect class="cls-1" x="672.23" y="283.5" width="3.98" height="4"/><path class="cls-3" d="M672.23,285.5a2,2,0,1,1,2,2A2,2,0,0,1,672.23,285.5Z"/><rect class="cls-1" x="661.04" y="283.5" width="3.98" height="4"/><path class="cls-3" d="M661,285.5a2,2,0,1,1,2,2A2,2,0,0,1,661,285.5Z"/><rect class="cls-1" x="649.85" y="283.5" width="3.98" height="4"/><path class="cls-3" d="M649.85,285.5a2,2,0,1,1,2,2A2,2,0,0,1,649.85,285.5Z"/><rect class="cls-1" x="638.65" y="283.5" width="3.98" height="4"/><path class="cls-3" d="M638.65,285.5a2,2,0,1,1,2,2A2,2,0,0,1,638.65,285.5Z"/><rect class="cls-1" x="627.46" y="283.5" width="3.98" height="4"/><path class="cls-3" d="M627.46,285.5a2,2,0,1,1,2,2A2,2,0,0,1,627.46,285.5Z"/><rect class="cls-1" x="616.27" y="283.5" width="3.98" height="4"/><path class="cls-3" d="M616.27,285.5a2,2,0,1,1,2,2A2,2,0,0,1,616.27,285.5Z"/><rect class="cls-1" x="605.08" y="283.5" width="3.98" height="4"/><path class="cls-3" d="M605.08,285.5a2,2,0,1,1,2,2A2,2,0,0,1,605.08,285.5Z"/><rect class="cls-1" x="593.89" y="283.5" width="3.98" height="4"/><path class="cls-3" d="M593.89,285.5a2,2,0,1,1,2,2A2,2,0,0,1,593.89,285.5Z"/><rect class="cls-1" x="582.69" y="283.5" width="3.98" height="4"/><path class="cls-3" d="M582.69,285.5a2,2,0,1,1,2,2A2,2,0,0,1,582.69,285.5Z"/><rect class="cls-1" x="571.5" y="283.5" width="3.98" height="4"/><ellipse class="cls-4" cx="573.49" cy="285.5" rx="1.99" ry="2"/><rect class="cls-1" x="560.31" y="283.5" width="3.98" height="4"/><path class="cls-3" d="M560.31,285.5a2,2,0,1,1,2,2A2,2,0,0,1,560.31,285.5Z"/><rect class="cls-1" x="549.12" y="283.5" width="3.98" height="4"/><path class="cls-3" d="M549.12,285.5a2,2,0,1,1,2,2A2,2,0,0,1,549.12,285.5Z"/><rect class="cls-1" x="537.93" y="283.5" width="3.98" height="4"/><path class="cls-3" d="M537.93,285.5a2,2,0,1,1,2,2A2,2,0,0,1,537.93,285.5Z"/><rect class="cls-1" x="526.74" y="283.5" width="3.98" height="4"/><path class="cls-3" d="M526.74,285.5a2,2,0,1,1,2,2A2,2,0,0,1,526.74,285.5Z"/><rect class="cls-1" x="515.54" y="283.5" width="3.98" height="4"/><path class="cls-3" d="M515.54,285.5a2,2,0,1,1,2,2A2,2,0,0,1,515.54,285.5Z"/><rect class="cls-1" x="504.35" y="283.5" width="3.98" height="4"/><path class="cls-3" d="M504.35,285.5a2,2,0,1,1,2,2A2,2,0,0,1,504.35,285.5Z"/><rect class="cls-1" x="493.16" y="283.5" width="3.98" height="4"/><path class="cls-3" d="M493.16,285.5a2,2,0,1,1,2,2A2,2,0,0,1,493.16,285.5Z"/><rect class="cls-1" x="481.97" y="283.5" width="3.98" height="4"/><path class="cls-3" d="M482,285.5a2,2,0,1,1,2,2A2,2,0,0,1,482,285.5Z"/><rect class="cls-1" x="470.78" y="283.5" width="3.98" height="4"/><path class="cls-3" d="M470.78,285.5a2,2,0,1,1,2,2A2,2,0,0,1,470.78,285.5Z"/><rect class="cls-1" x="459.59" y="283.5" width="3.98" height="4"/><path class="cls-3" d="M459.59,285.5a2,2,0,1,1,2,2A2,2,0,0,1,459.59,285.5Z"/><rect class="cls-1" x="448.39" y="283.5" width="3.98" height="4"/><path class="cls-3" d="M448.39,285.5a2,2,0,1,1,2,2A2,2,0,0,1,448.39,285.5Z"/><rect class="cls-1" x="437.2" y="283.5" width="3.98" height="4"/><path class="cls-3" d="M437.2,285.5a2,2,0,1,1,2,2A2,2,0,0,1,437.2,285.5Z"/><rect class="cls-1" x="426.01" y="283.5" width="3.98" height="4"/><path class="cls-3" d="M426,285.5a2,2,0,1,1,2,2A2,2,0,0,1,426,285.5Z"/><rect class="cls-1" x="414.82" y="283.5" width="3.98" height="4"/><ellipse class="cls-4" cx="416.81" cy="285.5" rx="1.99" ry="2"/><rect class="cls-1" x="403.63" y="283.5" width="3.98" height="4"/><ellipse class="cls-4" cx="405.62" cy="285.5" rx="1.99" ry="2"/><rect class="cls-1" x="392.43" y="283.5" width="3.98" height="4"/><path class="cls-3" d="M392.43,285.5a2,2,0,1,1,2,2A2,2,0,0,1,392.43,285.5Z"/><rect class="cls-1" x="381.24" y="283.5" width="3.98" height="4"/><path class="cls-3" d="M381.24,285.5a2,2,0,1,1,2,2A2,2,0,0,1,381.24,285.5Z"/><rect class="cls-1" x="370.05" y="283.5" width="3.98" height="4"/><path class="cls-3" d="M370.05,285.5a2,2,0,1,1,2,2A2,2,0,0,1,370.05,285.5Z"/><rect class="cls-1" x="358.86" y="283.5" width="3.98" height="4"/><path class="cls-3" d="M358.86,285.5a2,2,0,1,1,2,2A2,2,0,0,1,358.86,285.5Z"/><rect class="cls-1" x="347.67" y="283.5" width="3.98" height="4"/><path class="cls-3" d="M347.67,285.5a2,2,0,1,1,2,2A2,2,0,0,1,347.67,285.5Z"/><rect class="cls-1" x="336.48" y="283.5" width="3.98" height="4"/><path class="cls-3" d="M336.48,285.5a2,2,0,1,1,2,2A2,2,0,0,1,336.48,285.5Z"/><rect class="cls-1" x="325.28" y="283.5" width="3.98" height="4"/><path class="cls-3" d="M325.28,285.5a2,2,0,1,1,2,2A2,2,0,0,1,325.28,285.5Z"/><rect class="cls-1" x="314.09" y="283.5" width="3.98" height="4"/><path class="cls-3" d="M314.09,285.5a2,2,0,1,1,2,2A2,2,0,0,1,314.09,285.5Z"/><rect class="cls-1" x="302.9" y="283.5" width="3.98" height="4"/><path class="cls-3" d="M302.9,285.5a2,2,0,1,1,2,2A2,2,0,0,1,302.9,285.5Z"/><rect class="cls-1" x="291.71" y="283.5" width="3.98" height="4"/><path class="cls-3" d="M291.71,285.5a2,2,0,1,1,2,2A2,2,0,0,1,291.71,285.5Z"/><rect class="cls-1" x="280.52" y="283.5" width="3.98" height="4"/><path class="cls-3" d="M280.52,285.5a2,2,0,1,1,2,2A2,2,0,0,1,280.52,285.5Z"/><rect class="cls-1" x="269.32" y="283.5" width="3.98" height="4"/><path class="cls-3" d="M269.32,285.5a2,2,0,1,1,2,2A2,2,0,0,1,269.32,285.5Z"/><rect class="cls-1" x="258.13" y="283.5" width="3.98" height="4"/><path class="cls-3" d="M258.13,285.5a2,2,0,1,1,2,2A2,2,0,0,1,258.13,285.5Z"/><rect class="cls-1" x="246.94" y="283.5" width="3.98" height="4"/><ellipse class="cls-4" cx="248.93" cy="285.5" rx="1.99" ry="2"/><rect class="cls-1" x="235.75" y="283.5" width="3.98" height="4"/><path class="cls-3" d="M235.75,285.5a2,2,0,1,1,2,2A2,2,0,0,1,235.75,285.5Z"/><rect class="cls-1" x="224.56" y="283.5" width="3.98" height="4"/><path class="cls-3" d="M224.56,285.5a2,2,0,1,1,2,2A2,2,0,0,1,224.56,285.5Z"/><rect class="cls-1" x="213.37" y="283.5" width="3.98" height="4"/><path class="cls-3" d="M213.37,285.5a2,2,0,1,1,2,2A2,2,0,0,1,213.37,285.5Z"/><rect class="cls-1" x="202.17" y="283.5" width="3.98" height="4"/><path class="cls-3" d="M202.17,285.5a2,2,0,1,1,2,2A2,2,0,0,1,202.17,285.5Z"/><rect class="cls-1" x="190.98" y="283.5" width="3.98" height="4"/><path class="cls-3" d="M191,285.5a2,2,0,1,1,2,2A2,2,0,0,1,191,285.5Z"/><rect class="cls-1" x="179.79" y="283.5" width="3.98" height="4"/><path class="cls-3" d="M179.79,285.5a2,2,0,1,1,2,2A2,2,0,0,1,179.79,285.5Z"/><rect class="cls-1" x="168.6" y="283.5" width="3.98" height="4"/><path class="cls-3" d="M168.6,285.5a2,2,0,1,1,2,2A2,2,0,0,1,168.6,285.5Z"/><rect class="cls-1" x="157.41" y="283.5" width="3.98" height="4"/><path class="cls-3" d="M157.41,285.5a2,2,0,1,1,2,2A2,2,0,0,1,157.41,285.5Z"/><rect class="cls-1" x="146.22" y="283.5" width="3.98" height="4"/><path class="cls-3" d="M146.22,285.5a2,2,0,1,1,2,2A2,2,0,0,1,146.22,285.5Z"/><rect class="cls-1" x="135.02" y="283.5" width="3.98" height="4"/><path class="cls-3" d="M135,285.5a2,2,0,1,1,2,2A2,2,0,0,1,135,285.5Z"/><rect class="cls-1" x="123.83" y="283.5" width="3.98" height="4"/><path class="cls-3" d="M123.83,285.5a2,2,0,1,1,2,2A2,2,0,0,1,123.83,285.5Z"/><rect class="cls-1" x="112.64" y="283.5" width="3.98" height="4"/><path class="cls-3" d="M112.64,285.5a2,2,0,1,1,2,2A2,2,0,0,1,112.64,285.5Z"/><rect class="cls-1" x="101.45" y="283.5" width="3.98" height="4"/><path class="cls-3" d="M101.45,285.5a2,2,0,1,1,2,2A2,2,0,0,1,101.45,285.5Z"/><rect class="cls-1" x="90.26" y="283.5" width="3.98" height="4"/><ellipse class="cls-4" cx="92.25" cy="285.5" rx="1.99" ry="2"/><rect class="cls-1" x="79.06" y="283.5" width="3.98" height="4"/><ellipse class="cls-4" cx="81.05" cy="285.5" rx="1.99" ry="2"/><rect class="cls-1" x="67.87" y="283.5" width="3.98" height="4"/><path class="cls-3" d="M67.87,285.5a2,2,0,1,1,2,2A2,2,0,0,1,67.87,285.5Z"/><rect class="cls-1" x="56.68" y="283.5" width="3.98" height="4"/><path class="cls-3" d="M56.68,285.5a2,2,0,1,1,2,2A2,2,0,0,1,56.68,285.5Z"/><rect class="cls-1" x="45.49" y="283.5" width="3.98" height="4"/><path class="cls-3" d="M45.49,285.5a2,2,0,1,1,2,2A2,2,0,0,1,45.49,285.5Z"/><rect class="cls-1" x="34.3" y="283.5" width="3.98" height="4"/><path class="cls-3" d="M34.3,285.5a2,2,0,1,1,2,2A2,2,0,0,1,34.3,285.5Z"/><rect class="cls-1" x="23.11" y="283.5" width="3.98" height="4"/><path class="cls-3" d="M23.11,285.5a2,2,0,1,1,2,2A2,2,0,0,1,23.11,285.5Z"/><rect class="cls-1" x="21.45" y="89.2" width="1.6" height="1.6"/><path class="cls-3" d="M23,90a.8.8,0,1,1-.8-.8A.8.8,0,0,1,23,90Z"/><rect class="cls-1" x="25.94" y="89.2" width="1.6" height="1.6"/><path class="cls-3" d="M27.53,90a.8.8,0,0,1-.8.8.8.8,0,0,1,0-1.6A.8.8,0,0,1,27.53,90Z"/><rect class="cls-1" x="30.42" y="89.2" width="1.6" height="1.6"/><path class="cls-3" d="M32,90a.8.8,0,1,1-.8-.8A.8.8,0,0,1,32,90Z"/><rect class="cls-1" x="34.91" y="89.2" width="1.6" height="1.6"/><path class="cls-3" d="M36.51,90a.8.8,0,1,1-.8-.8A.8.8,0,0,1,36.51,90Z"/><rect class="cls-1" x="39.4" y="89.2" width="1.6" height="1.6"/><path class="cls-3" d="M41,90a.8.8,0,1,1-.8-.8A.8.8,0,0,1,41,90Z"/><rect class="cls-1" x="43.89" y="89.2" width="1.6" height="1.6"/><path class="cls-3" d="M45.49,90a.8.8,0,1,1-.8-.8A.8.8,0,0,1,45.49,90Z"/><rect class="cls-1" x="48.38" y="89.2" width="1.6" height="1.6"/><path class="cls-3" d="M50,90a.8.8,0,1,1-.8-.8A.8.8,0,0,1,50,90Z"/><rect class="cls-1" x="52.87" y="89.2" width="1.6" height="1.6"/><path class="cls-3" d="M54.47,90a.8.8,0,1,1-.8-.8A.8.8,0,0,1,54.47,90Z"/><rect class="cls-1" x="57.36" y="89.2" width="1.6" height="1.6"/><path class="cls-3" d="M59,90a.79.79,0,0,1-.79.8.8.8,0,0,1,0-1.6A.79.79,0,0,1,59,90Z"/><rect class="cls-1" x="61.85" y="89.2" width="1.6" height="1.6"/><path class="cls-3" d="M63.44,90a.8.8,0,1,1-.79-.8A.79.79,0,0,1,63.44,90Z"/><rect class="cls-1" x="66.34" y="89.2" width="1.6" height="1.6"/><path class="cls-3" d="M67.93,90a.8.8,0,1,1-.8-.8A.8.8,0,0,1,67.93,90Z"/><rect class="cls-1" x="70.83" y="89.2" width="1.6" height="1.6"/><path class="cls-3" d="M72.42,90a.8.8,0,0,1-.8.8.8.8,0,0,1,0-1.6A.8.8,0,0,1,72.42,90Z"/><rect class="cls-1" x="75.31" y="89.2" width="1.6" height="1.6"/><path class="cls-3" d="M76.91,90a.8.8,0,1,1-.8-.8A.8.8,0,0,1,76.91,90Z"/><rect class="cls-1" x="79.8" y="89.2" width="1.6" height="1.6"/><path class="cls-3" d="M81.4,90a.8.8,0,1,1-.8-.8A.8.8,0,0,1,81.4,90Z"/><rect class="cls-1" x="84.29" y="89.2" width="1.6" height="1.6"/><path class="cls-3" d="M85.89,90a.8.8,0,1,1-.8-.8A.8.8,0,0,1,85.89,90Z"/><rect class="cls-1" x="88.78" y="89.2" width="1.6" height="1.6"/><path class="cls-3" d="M90.38,90a.8.8,0,1,1-.8-.8A.8.8,0,0,1,90.38,90Z"/><rect class="cls-1" x="93.27" y="89.2" width="1.6" height="1.6"/><path class="cls-3" d="M94.87,90a.8.8,0,1,1-.8-.8A.8.8,0,0,1,94.87,90Z"/><rect class="cls-1" x="97.76" y="89.2" width="1.6" height="1.6"/><path class="cls-3" d="M99.36,90a.8.8,0,1,1-.8-.8A.8.8,0,0,1,99.36,90Z"/><rect class="cls-1" x="102.25" y="89.2" width="1.6" height="1.6"/><path class="cls-3" d="M103.84,90a.79.79,0,0,1-.79.8.8.8,0,0,1,0-1.6A.79.79,0,0,1,103.84,90Z"/><rect class="cls-1" x="106.74" y="89.2" width="1.6" height="1.6"/><path class="cls-3" d="M108.33,90a.8.8,0,1,1-.79-.8A.79.79,0,0,1,108.33,90Z"/><rect class="cls-1" x="111.23" y="89.2" width="1.6" height="1.6"/><path class="cls-3" d="M112.82,90a.8.8,0,1,1-.8-.8A.8.8,0,0,1,112.82,90Z"/><rect class="cls-1" x="115.72" y="89.2" width="1.6" height="1.6"/><path class="cls-3" d="M117.31,90a.8.8,0,0,1-.8.8.8.8,0,0,1,0-1.6A.8.8,0,0,1,117.31,90Z"/><rect class="cls-1" x="120.2" y="89.2" width="1.6" height="1.6"/><path class="cls-3" d="M121.8,90a.8.8,0,1,1-.8-.8A.8.8,0,0,1,121.8,90Z"/><rect class="cls-1" x="124.69" y="89.2" width="1.6" height="1.6"/><path class="cls-3" d="M126.29,90a.8.8,0,1,1-.8-.8A.8.8,0,0,1,126.29,90Z"/><rect class="cls-1" x="129.18" y="89.2" width="1.6" height="1.6"/><path class="cls-3" d="M130.78,90a.8.8,0,1,1-.8-.8A.8.8,0,0,1,130.78,90Z"/><rect class="cls-1" x="133.67" y="89.2" width="1.6" height="1.6"/><path class="cls-3" d="M135.27,90a.8.8,0,1,1-.8-.8A.8.8,0,0,1,135.27,90Z"/><rect class="cls-1" x="138.16" y="89.2" width="1.6" height="1.6"/><path class="cls-3" d="M139.76,90a.8.8,0,1,1-.8-.8A.8.8,0,0,1,139.76,90Z"/><rect class="cls-1" x="142.65" y="89.2" width="1.6" height="1.6"/><path class="cls-3" d="M144.25,90a.8.8,0,1,1-.8-.8A.8.8,0,0,1,144.25,90Z"/><rect class="cls-1" x="147.14" y="89.2" width="1.6" height="1.6"/><path class="cls-3" d="M148.74,90a.8.8,0,1,1-.8-.8A.8.8,0,0,1,148.74,90Z"/><rect class="cls-1" x="151.63" y="89.2" width="1.6" height="1.6"/><path class="cls-3" d="M153.22,90a.8.8,0,1,1-.79-.8A.79.79,0,0,1,153.22,90Z"/><rect class="cls-1" x="156.12" y="89.2" width="1.6" height="1.6"/><path class="cls-3" d="M157.71,90a.8.8,0,1,1-.8-.8A.8.8,0,0,1,157.71,90Z"/><rect class="cls-1" x="160.61" y="89.2" width="1.6" height="1.6"/><path class="cls-3" d="M162.2,90a.8.8,0,0,1-.8.8.8.8,0,0,1,0-1.6A.8.8,0,0,1,162.2,90Z"/><rect class="cls-1" x="165.09" y="89.2" width="1.6" height="1.6"/><path class="cls-3" d="M166.69,90a.8.8,0,1,1-.8-.8A.8.8,0,0,1,166.69,90Z"/><rect class="cls-1" x="169.58" y="89.2" width="1.6" height="1.6"/><path class="cls-3" d="M171.18,90a.8.8,0,1,1-.8-.8A.8.8,0,0,1,171.18,90Z"/><rect class="cls-1" x="174.07" y="89.2" width="1.6" height="1.6"/><path class="cls-3" d="M175.67,90a.8.8,0,1,1-.8-.8A.8.8,0,0,1,175.67,90Z"/><rect class="cls-1" x="178.56" y="89.2" width="1.6" height="1.6"/><path class="cls-3" d="M180.16,90a.8.8,0,1,1-.8-.8A.8.8,0,0,1,180.16,90Z"/><rect class="cls-1" x="183.05" y="89.2" width="1.6" height="1.6"/><path class="cls-3" d="M184.65,90a.8.8,0,1,1-.8-.8A.8.8,0,0,1,184.65,90Z"/><rect class="cls-1" x="187.54" y="89.2" width="1.6" height="1.6"/><path class="cls-3" d="M189.14,90a.8.8,0,1,1-.8-.8A.8.8,0,0,1,189.14,90Z"/><rect class="cls-1" x="192.03" y="89.2" width="1.6" height="1.6"/><path class="cls-3" d="M193.63,90a.8.8,0,1,1-.8-.8A.8.8,0,0,1,193.63,90Z"/><rect class="cls-1" x="196.52" y="89.2" width="1.6" height="1.6"/><path class="cls-3" d="M198.11,90a.79.79,0,0,1-.79.8.8.8,0,1,1,0-1.6A.79.79,0,0,1,198.11,90Z"/><rect class="cls-1" x="201.01" y="89.2" width="1.6" height="1.6"/><path class="cls-3" d="M202.6,90a.8.8,0,1,1-.8-.8A.8.8,0,0,1,202.6,90Z"/><rect class="cls-1" x="205.5" y="89.2" width="1.6" height="1.6"/><path class="cls-3" d="M207.09,90a.8.8,0,0,1-.8.8.8.8,0,0,1,0-1.6A.8.8,0,0,1,207.09,90Z"/><rect class="cls-1" x="209.98" y="89.2" width="1.6" height="1.6"/><path class="cls-3" d="M211.58,90a.8.8,0,1,1-.8-.8A.8.8,0,0,1,211.58,90Z"/><rect class="cls-1" x="214.47" y="89.2" width="1.6" height="1.6"/><path class="cls-3" d="M216.07,90a.8.8,0,1,1-.8-.8A.8.8,0,0,1,216.07,90Z"/><rect class="cls-1" x="218.96" y="89.2" width="1.6" height="1.6"/><path class="cls-3" d="M220.56,90a.8.8,0,1,1-.8-.8A.8.8,0,0,1,220.56,90Z"/><rect class="cls-1" x="223.45" y="89.2" width="1.6" height="1.6"/><path class="cls-3" d="M225.05,90a.8.8,0,1,1-.8-.8A.8.8,0,0,1,225.05,90Z"/><rect class="cls-1" x="227.94" y="89.2" width="1.6" height="1.6"/><path class="cls-3" d="M229.54,90a.8.8,0,1,1-.8-.8A.8.8,0,0,1,229.54,90Z"/><rect class="cls-1" x="232.43" y="89.2" width="1.6" height="1.6"/><path class="cls-3" d="M234,90a.8.8,0,1,1-.8-.8A.8.8,0,0,1,234,90Z"/><rect class="cls-1" x="236.92" y="89.2" width="1.6" height="1.6"/><path class="cls-3" d="M238.52,90a.8.8,0,1,1-.8-.8A.8.8,0,0,1,238.52,90Z"/><rect class="cls-1" x="241.41" y="89.2" width="1.6" height="1.6"/><path class="cls-3" d="M243,90a.79.79,0,0,1-.79.8.8.8,0,0,1,0-1.6A.79.79,0,0,1,243,90Z"/><rect class="cls-1" x="245.9" y="89.2" width="1.6" height="1.6"/><path class="cls-3" d="M247.49,90a.8.8,0,1,1-.79-.8A.79.79,0,0,1,247.49,90Z"/><rect class="cls-1" x="250.39" y="89.2" width="1.6" height="1.6"/><path class="cls-3" d="M252,90a.8.8,0,1,1-.8-.8A.8.8,0,0,1,252,90Z"/><rect class="cls-1" x="254.87" y="89.2" width="1.6" height="1.6"/><path class="cls-3" d="M256.47,90a.8.8,0,1,1-.8-.8A.8.8,0,0,1,256.47,90Z"/><rect class="cls-1" x="259.36" y="89.2" width="1.6" height="1.6"/><path class="cls-3" d="M261,90a.8.8,0,1,1-.8-.8A.8.8,0,0,1,261,90Z"/><rect class="cls-1" x="263.85" y="89.2" width="1.6" height="1.6"/><path class="cls-3" d="M265.45,90a.8.8,0,1,1-.8-.8A.8.8,0,0,1,265.45,90Z"/><rect class="cls-1" x="268.34" y="89.2" width="1.6" height="1.6"/><path class="cls-3" d="M269.94,90a.8.8,0,1,1-.8-.8A.8.8,0,0,1,269.94,90Z"/><rect class="cls-1" x="272.83" y="89.2" width="1.6" height="1.6"/><path class="cls-3" d="M274.43,90a.8.8,0,1,1-.8-.8A.8.8,0,0,1,274.43,90Z"/><rect class="cls-1" x="277.32" y="89.2" width="1.6" height="1.6"/><path class="cls-3" d="M278.92,90a.8.8,0,1,1-.8-.8A.8.8,0,0,1,278.92,90Z"/><rect class="cls-1" x="281.81" y="89.2" width="1.6" height="1.6"/><path class="cls-3" d="M283.41,90a.8.8,0,1,1-.8-.8A.8.8,0,0,1,283.41,90Z"/><rect class="cls-1" x="286.3" y="89.2" width="1.6" height="1.6"/><path class="cls-3" d="M287.89,90a.79.79,0,0,1-.79.8.8.8,0,0,1,0-1.6A.79.79,0,0,1,287.89,90Z"/><rect class="cls-1" x="290.79" y="89.2" width="1.6" height="1.6"/><path class="cls-3" d="M292.38,90a.8.8,0,1,1-.79-.8A.79.79,0,0,1,292.38,90Z"/><rect class="cls-1" x="295.28" y="89.2" width="1.6" height="1.6"/><path class="cls-3" d="M296.87,90a.8.8,0,1,1-.8-.8A.8.8,0,0,1,296.87,90Z"/><rect class="cls-1" x="299.76" y="89.2" width="1.6" height="1.6"/><path class="cls-3" d="M301.36,90a.8.8,0,1,1-.8-.8A.8.8,0,0,1,301.36,90Z"/><rect class="cls-1" x="304.25" y="89.2" width="1.6" height="1.6"/><path class="cls-3" d="M305.85,90a.8.8,0,1,1-.8-.8A.8.8,0,0,1,305.85,90Z"/><rect class="cls-1" x="308.74" y="89.2" width="1.6" height="1.6"/><path class="cls-3" d="M310.34,90a.8.8,0,1,1-.8-.8A.8.8,0,0,1,310.34,90Z"/><rect class="cls-1" x="313.23" y="89.2" width="1.6" height="1.6"/><path class="cls-3" d="M314.83,90a.8.8,0,1,1-.8-.8A.8.8,0,0,1,314.83,90Z"/><rect class="cls-1" x="317.72" y="89.2" width="1.6" height="1.6"/><path class="cls-3" d="M319.32,90a.8.8,0,1,1-.8-.8A.8.8,0,0,1,319.32,90Z"/><rect class="cls-1" x="322.21" y="89.2" width="1.6" height="1.6"/><path class="cls-3" d="M323.81,90a.8.8,0,1,1-.8-.8A.8.8,0,0,1,323.81,90Z"/><rect class="cls-1" x="326.7" y="89.2" width="1.6" height="1.6"/><path class="cls-3" d="M328.3,90a.8.8,0,1,1-.8-.8A.8.8,0,0,1,328.3,90Z"/><rect class="cls-1" x="331.19" y="89.2" width="1.6" height="1.6"/><path class="cls-3" d="M332.78,90a.79.79,0,0,1-.79.8.8.8,0,0,1,0-1.6A.79.79,0,0,1,332.78,90Z"/><rect class="cls-1" x="335.68" y="89.2" width="1.6" height="1.6"/><path class="cls-3" d="M337.27,90a.8.8,0,1,1-.79-.8A.79.79,0,0,1,337.27,90Z"/><rect class="cls-1" x="340.17" y="89.2" width="1.6" height="1.6"/><path class="cls-3" d="M341.76,90a.8.8,0,1,1-.8-.8A.8.8,0,0,1,341.76,90Z"/><rect class="cls-1" x="344.66" y="89.2" width="1.6" height="1.6"/><path class="cls-3" d="M346.25,90a.8.8,0,0,1-.8.8.8.8,0,0,1,0-1.6A.8.8,0,0,1,346.25,90Z"/><rect class="cls-1" x="349.14" y="89.2" width="1.6" height="1.6"/><path class="cls-3" d="M350.74,90a.8.8,0,1,1-.8-.8A.8.8,0,0,1,350.74,90Z"/><rect class="cls-1" x="353.63" y="89.2" width="1.6" height="1.6"/><path class="cls-3" d="M355.23,90a.8.8,0,1,1-.8-.8A.8.8,0,0,1,355.23,90Z"/><rect class="cls-1" x="358.12" y="89.2" width="1.6" height="1.6"/><path class="cls-3" d="M359.72,90a.8.8,0,1,1-.8-.8A.8.8,0,0,1,359.72,90Z"/><rect class="cls-1" x="362.61" y="89.2" width="1.6" height="1.6"/><path class="cls-3" d="M364.21,90a.8.8,0,1,1-.8-.8A.8.8,0,0,1,364.21,90Z"/><rect class="cls-1" x="367.1" y="89.2" width="1.6" height="1.6"/><path class="cls-3" d="M368.7,90a.8.8,0,1,1-.8-.8A.8.8,0,0,1,368.7,90Z"/><rect class="cls-1" x="371.59" y="89.2" width="1.6" height="1.6"/><path class="cls-3" d="M373.19,90a.8.8,0,1,1-.8-.8A.8.8,0,0,1,373.19,90Z"/><rect class="cls-1" x="376.08" y="89.2" width="1.6" height="1.6"/><path class="cls-3" d="M377.67,90a.79.79,0,0,1-.79.8.8.8,0,0,1,0-1.6A.79.79,0,0,1,377.67,90Z"/><rect class="cls-1" x="380.57" y="89.2" width="1.6" height="1.6"/><path class="cls-3" d="M382.16,90a.8.8,0,1,1-.79-.8A.79.79,0,0,1,382.16,90Z"/><rect class="cls-1" x="385.06" y="89.2" width="1.6" height="1.6"/><path class="cls-3" d="M386.65,90a.8.8,0,1,1-.8-.8A.8.8,0,0,1,386.65,90Z"/><rect class="cls-1" x="389.55" y="89.2" width="1.6" height="1.6"/><path class="cls-3" d="M391.14,90a.8.8,0,0,1-.8.8.8.8,0,0,1,0-1.6A.8.8,0,0,1,391.14,90Z"/><rect class="cls-1" x="394.03" y="89.2" width="1.6" height="1.6"/><path class="cls-3" d="M395.63,90a.8.8,0,1,1-.8-.8A.8.8,0,0,1,395.63,90Z"/><rect class="cls-1" x="398.52" y="89.2" width="1.6" height="1.6"/><path class="cls-3" d="M400.12,90a.8.8,0,1,1-.8-.8A.8.8,0,0,1,400.12,90Z"/><rect class="cls-1" x="403.01" y="89.2" width="1.6" height="1.6"/><path class="cls-3" d="M404.61,90a.8.8,0,1,1-.8-.8A.8.8,0,0,1,404.61,90Z"/><rect class="cls-1" x="407.5" y="89.2" width="1.6" height="1.6"/><path class="cls-3" d="M409.1,90a.8.8,0,1,1-.8-.8A.8.8,0,0,1,409.1,90Z"/><rect class="cls-1" x="411.99" y="89.2" width="1.6" height="1.6"/><path class="cls-3" d="M413.59,90a.8.8,0,1,1-.8-.8A.8.8,0,0,1,413.59,90Z"/><rect class="cls-1" x="416.48" y="89.2" width="1.6" height="1.6"/><path class="cls-3" d="M418.08,90a.8.8,0,1,1-.8-.8A.8.8,0,0,1,418.08,90Z"/><rect class="cls-1" x="420.97" y="89.2" width="1.6" height="1.6"/><path class="cls-3" d="M422.56,90a.79.79,0,0,1-.79.8.8.8,0,0,1,0-1.6A.79.79,0,0,1,422.56,90Z"/><rect class="cls-1" x="425.46" y="89.2" width="1.6" height="1.6"/><path class="cls-3" d="M427.05,90a.8.8,0,1,1-.79-.8A.79.79,0,0,1,427.05,90Z"/><rect class="cls-1" x="429.95" y="89.2" width="1.6" height="1.6"/><path class="cls-3" d="M431.54,90a.8.8,0,1,1-.8-.8A.8.8,0,0,1,431.54,90Z"/><rect class="cls-1" x="434.44" y="89.2" width="1.6" height="1.6"/><path class="cls-3" d="M436,90a.8.8,0,0,1-.8.8.8.8,0,0,1,0-1.6A.8.8,0,0,1,436,90Z"/><rect class="cls-1" x="438.92" y="89.2" width="1.6" height="1.6"/><path class="cls-3" d="M440.52,90a.8.8,0,1,1-.8-.8A.8.8,0,0,1,440.52,90Z"/><rect class="cls-1" x="443.41" y="89.2" width="1.6" height="1.6"/><path class="cls-3" d="M445,90a.8.8,0,1,1-.8-.8A.8.8,0,0,1,445,90Z"/><rect class="cls-1" x="447.9" y="89.2" width="1.6" height="1.6"/><path class="cls-3" d="M449.5,90a.8.8,0,1,1-.8-.8A.8.8,0,0,1,449.5,90Z"/><rect class="cls-1" x="452.39" y="89.2" width="1.6" height="1.6"/><path class="cls-3" d="M454,90a.8.8,0,1,1-.8-.8A.8.8,0,0,1,454,90Z"/><rect class="cls-1" x="456.88" y="89.2" width="1.6" height="1.6"/><path class="cls-3" d="M458.48,90a.8.8,0,1,1-.8-.8A.8.8,0,0,1,458.48,90Z"/><rect class="cls-1" x="461.37" y="89.2" width="1.6" height="1.6"/><path class="cls-3" d="M463,90a.8.8,0,1,1-.8-.8A.8.8,0,0,1,463,90Z"/><rect class="cls-1" x="465.86" y="89.2" width="1.6" height="1.6"/><path class="cls-3" d="M467.45,90a.79.79,0,0,1-.79.8.8.8,0,0,1,0-1.6A.79.79,0,0,1,467.45,90Z"/><rect class="cls-1" x="470.35" y="89.2" width="1.6" height="1.6"/><path class="cls-3" d="M471.94,90a.8.8,0,1,1-.79-.8A.79.79,0,0,1,471.94,90Z"/><rect class="cls-1" x="474.84" y="89.2" width="1.6" height="1.6"/><path class="cls-3" d="M476.43,90a.8.8,0,1,1-.8-.8A.8.8,0,0,1,476.43,90Z"/><rect class="cls-1" x="479.33" y="89.2" width="1.6" height="1.6"/><path class="cls-3" d="M480.92,90a.8.8,0,0,1-.8.8.8.8,0,0,1,0-1.6A.8.8,0,0,1,480.92,90Z"/><rect class="cls-1" x="483.81" y="89.2" width="1.6" height="1.6"/><path class="cls-3" d="M485.41,90a.8.8,0,1,1-.8-.8A.8.8,0,0,1,485.41,90Z"/><rect class="cls-1" x="488.3" y="89.2" width="1.6" height="1.6"/><path class="cls-3" d="M489.9,90a.8.8,0,1,1-.8-.8A.8.8,0,0,1,489.9,90Z"/><rect class="cls-1" x="492.79" y="89.2" width="1.6" height="1.6"/><path class="cls-3" d="M494.39,90a.8.8,0,1,1-.8-.8A.8.8,0,0,1,494.39,90Z"/><rect class="cls-1" x="497.28" y="89.2" width="1.6" height="1.6"/><path class="cls-3" d="M498.88,90a.8.8,0,1,1-.8-.8A.8.8,0,0,1,498.88,90Z"/><rect class="cls-1" x="501.77" y="89.2" width="1.6" height="1.6"/><path class="cls-3" d="M503.37,90a.8.8,0,1,1-.8-.8A.8.8,0,0,1,503.37,90Z"/><rect class="cls-1" x="506.26" y="89.2" width="1.6" height="1.6"/><path class="cls-3" d="M507.86,90a.8.8,0,1,1-.8-.8A.8.8,0,0,1,507.86,90Z"/><rect class="cls-1" x="510.75" y="89.2" width="1.6" height="1.6"/><path class="cls-3" d="M512.34,90a.79.79,0,0,1-.79.8.8.8,0,0,1,0-1.6A.79.79,0,0,1,512.34,90Z"/><rect class="cls-1" x="515.24" y="89.2" width="1.6" height="1.6"/><path class="cls-3" d="M516.83,90a.8.8,0,1,1-.79-.8A.79.79,0,0,1,516.83,90Z"/><rect class="cls-1" x="519.73" y="89.2" width="1.6" height="1.6"/><path class="cls-3" d="M521.32,90a.8.8,0,1,1-.8-.8A.8.8,0,0,1,521.32,90Z"/><rect class="cls-1" x="524.22" y="89.2" width="1.6" height="1.6"/><path class="cls-3" d="M525.81,90a.8.8,0,0,1-.8.8.8.8,0,0,1,0-1.6A.8.8,0,0,1,525.81,90Z"/><rect class="cls-1" x="528.7" y="89.2" width="1.6" height="1.6"/><path class="cls-3" d="M530.3,90a.8.8,0,1,1-.8-.8A.8.8,0,0,1,530.3,90Z"/><rect class="cls-1" x="533.19" y="89.2" width="1.6" height="1.6"/><path class="cls-3" d="M534.79,90a.8.8,0,1,1-.8-.8A.8.8,0,0,1,534.79,90Z"/><rect class="cls-1" x="537.68" y="89.2" width="1.6" height="1.6"/><path class="cls-3" d="M539.28,90a.8.8,0,1,1-.8-.8A.8.8,0,0,1,539.28,90Z"/><rect class="cls-1" x="542.17" y="89.2" width="1.6" height="1.6"/><path class="cls-3" d="M543.77,90a.8.8,0,1,1-.8-.8A.8.8,0,0,1,543.77,90Z"/><rect class="cls-1" x="546.66" y="89.2" width="1.6" height="1.6"/><path class="cls-3" d="M548.26,90a.8.8,0,1,1-.8-.8A.8.8,0,0,1,548.26,90Z"/><rect class="cls-1" x="551.15" y="89.2" width="1.6" height="1.6"/><path class="cls-3" d="M552.75,90a.8.8,0,1,1-.8-.8A.8.8,0,0,1,552.75,90Z"/><rect class="cls-1" x="555.64" y="89.2" width="1.6" height="1.6"/><path class="cls-3" d="M557.24,90a.8.8,0,1,1-.8-.8A.8.8,0,0,1,557.24,90Z"/><rect class="cls-1" x="560.13" y="89.2" width="1.6" height="1.6"/><path class="cls-3" d="M561.72,90a.8.8,0,1,1-.79-.8A.79.79,0,0,1,561.72,90Z"/><rect class="cls-1" x="564.62" y="89.2" width="1.6" height="1.6"/><path class="cls-3" d="M566.21,90a.8.8,0,1,1-.8-.8A.8.8,0,0,1,566.21,90Z"/><rect class="cls-1" x="569.11" y="89.2" width="1.6" height="1.6"/><path class="cls-3" d="M570.7,90a.8.8,0,0,1-.8.8.8.8,0,0,1,0-1.6A.8.8,0,0,1,570.7,90Z"/><rect class="cls-1" x="573.59" y="89.2" width="1.6" height="1.6"/><path class="cls-3" d="M575.19,90a.8.8,0,1,1-.8-.8A.8.8,0,0,1,575.19,90Z"/><rect class="cls-1" x="578.08" y="89.2" width="1.6" height="1.6"/><path class="cls-3" d="M579.68,90a.8.8,0,1,1-.8-.8A.8.8,0,0,1,579.68,90Z"/><rect class="cls-1" x="582.57" y="89.2" width="1.6" height="1.6"/><path class="cls-3" d="M584.17,90a.8.8,0,1,1-.8-.8A.8.8,0,0,1,584.17,90Z"/><rect class="cls-1" x="587.06" y="89.2" width="1.6" height="1.6"/><path class="cls-3" d="M588.66,90a.8.8,0,1,1-.8-.8A.8.8,0,0,1,588.66,90Z"/><rect class="cls-1" x="591.55" y="89.2" width="1.6" height="1.6"/><path class="cls-3" d="M593.15,90a.8.8,0,1,1-.8-.8A.8.8,0,0,1,593.15,90Z"/><rect class="cls-1" x="596.04" y="89.2" width="1.6" height="1.6"/><path class="cls-3" d="M597.64,90a.8.8,0,1,1-.8-.8A.8.8,0,0,1,597.64,90Z"/><rect class="cls-1" x="600.53" y="89.2" width="1.6" height="1.6"/><path class="cls-3" d="M602.13,90a.8.8,0,1,1-.8-.8A.8.8,0,0,1,602.13,90Z"/><rect class="cls-1" x="605.02" y="89.2" width="1.6" height="1.6"/><path class="cls-3" d="M606.61,90a.79.79,0,0,1-.79.8.8.8,0,1,1,0-1.6A.79.79,0,0,1,606.61,90Z"/><rect class="cls-1" x="609.51" y="89.2" width="1.6" height="1.6"/><path class="cls-3" d="M611.1,90a.8.8,0,1,1-.8-.8A.8.8,0,0,1,611.1,90Z"/><rect class="cls-1" x="614" y="89.2" width="1.6" height="1.6"/><path class="cls-3" d="M615.59,90a.8.8,0,0,1-.8.8.8.8,0,0,1,0-1.6A.8.8,0,0,1,615.59,90Z"/><rect class="cls-1" x="618.48" y="89.2" width="1.6" height="1.6"/><path class="cls-3" d="M620.08,90a.8.8,0,1,1-.8-.8A.8.8,0,0,1,620.08,90Z"/><rect class="cls-1" x="622.97" y="89.2" width="1.6" height="1.6"/><path class="cls-3" d="M624.57,90a.8.8,0,1,1-.8-.8A.8.8,0,0,1,624.57,90Z"/><rect class="cls-1" x="627.46" y="89.2" width="1.6" height="1.6"/><path class="cls-3" d="M629.06,90a.8.8,0,1,1-.8-.8A.8.8,0,0,1,629.06,90Z"/><rect class="cls-1" x="631.95" y="89.2" width="1.6" height="1.6"/><path class="cls-3" d="M633.55,90a.8.8,0,1,1-.8-.8A.8.8,0,0,1,633.55,90Z"/><rect class="cls-1" x="636.44" y="89.2" width="1.6" height="1.6"/><path class="cls-3" d="M638,90a.8.8,0,1,1-.8-.8A.8.8,0,0,1,638,90Z"/><rect class="cls-1" x="640.93" y="89.2" width="1.6" height="1.6"/><path class="cls-3" d="M642.53,90a.8.8,0,1,1-.8-.8A.8.8,0,0,1,642.53,90Z"/><rect class="cls-1" x="645.42" y="89.2" width="1.6" height="1.6"/><path class="cls-3" d="M647,90a.8.8,0,1,1-.8-.8A.8.8,0,0,1,647,90Z"/><rect class="cls-1" x="649.91" y="89.2" width="1.6" height="1.6"/><path class="cls-3" d="M651.5,90a.79.79,0,0,1-.79.8.8.8,0,1,1,0-1.6A.79.79,0,0,1,651.5,90Z"/><rect class="cls-1" x="654.4" y="89.2" width="1.6" height="1.6"/><path class="cls-3" d="M656,90a.8.8,0,1,1-.79-.8A.79.79,0,0,1,656,90Z"/><rect class="cls-1" x="658.89" y="89.2" width="1.6" height="1.6"/><path class="cls-3" d="M660.48,90a.8.8,0,1,1-.8-.8A.8.8,0,0,1,660.48,90Z"/><rect class="cls-1" x="663.37" y="89.2" width="1.6" height="1.6"/><path class="cls-3" d="M665,90a.8.8,0,1,1-.8-.8A.8.8,0,0,1,665,90Z"/><rect class="cls-1" x="667.86" y="89.2" width="1.6" height="1.6"/><path class="cls-3" d="M669.46,90a.8.8,0,1,1-.8-.8A.8.8,0,0,1,669.46,90Z"/><rect class="cls-1" x="672.35" y="89.2" width="1.6" height="1.6"/><path class="cls-3" d="M674,90a.8.8,0,1,1-.8-.8A.8.8,0,0,1,674,90Z"/><rect class="cls-1" x="676.84" y="89.2" width="1.6" height="1.6"/><path class="cls-3" d="M678.44,90a.8.8,0,1,1-.8-.8A.8.8,0,0,1,678.44,90Z"/><rect class="cls-1" x="681.33" y="89.2" width="1.6" height="1.6"/><path class="cls-3" d="M682.93,90a.8.8,0,1,1-.8-.8A.8.8,0,0,1,682.93,90Z"/><rect class="cls-1" x="685.82" y="89.2" width="1.6" height="1.6"/><path class="cls-3" d="M687.42,90a.8.8,0,1,1-.8-.8A.8.8,0,0,1,687.42,90Z"/><rect class="cls-1" x="690.31" y="89.2" width="1.6" height="1.6"/><path class="cls-3" d="M691.91,90a.8.8,0,1,1-.8-.8A.8.8,0,0,1,691.91,90Z"/><rect class="cls-1" x="694.8" y="89.2" width="1.6" height="1.6"/><path class="cls-3" d="M696.39,90a.79.79,0,0,1-.79.8.8.8,0,1,1,0-1.6A.79.79,0,0,1,696.39,90Z"/><rect class="cls-1" x="699.29" y="89.2" width="1.6" height="1.6"/><path class="cls-3" d="M700.88,90a.8.8,0,1,1-.79-.8A.79.79,0,0,1,700.88,90Z"/><rect class="cls-1" x="703.78" y="89.2" width="1.6" height="1.6"/><path class="cls-3" d="M705.37,90a.8.8,0,1,1-.8-.8A.8.8,0,0,1,705.37,90Z"/><rect class="cls-1" x="708.26" y="89.2" width="1.6" height="1.6"/><path class="cls-3" d="M709.86,90a.8.8,0,1,1-.8-.8A.8.8,0,0,1,709.86,90Z"/><rect class="cls-1" x="712.75" y="89.2" width="1.6" height="1.6"/><path class="cls-3" d="M714.35,90a.8.8,0,1,1-.8-.8A.8.8,0,0,1,714.35,90Z"/><rect class="cls-1" x="717.24" y="89.2" width="1.6" height="1.6"/><path class="cls-3" d="M718.84,90a.8.8,0,1,1-.8-.8A.8.8,0,0,1,718.84,90Z"/><rect class="cls-1" x="721.73" y="89.2" width="1.6" height="1.6"/><path class="cls-3" d="M723.33,90a.8.8,0,1,1-.8-.8A.8.8,0,0,1,723.33,90Z"/><rect class="cls-1" x="726.22" y="89.2" width="1.6" height="1.6"/><path class="cls-3" d="M727.82,90a.8.8,0,1,1-.8-.8A.8.8,0,0,1,727.82,90Z"/><rect class="cls-1" x="730.71" y="89.2" width="1.6" height="1.6"/><path class="cls-3" d="M732.31,90a.8.8,0,1,1-.8-.8A.8.8,0,0,1,732.31,90Z"/><rect class="cls-1" x="735.2" y="89.2" width="1.6" height="1.6"/><path class="cls-3" d="M736.8,90a.8.8,0,1,1-.8-.8A.8.8,0,0,1,736.8,90Z"/><rect class="cls-1" x="739.69" y="89.2" width="1.6" height="1.6"/><path class="cls-3" d="M741.28,90a.79.79,0,0,1-.79.8.8.8,0,1,1,0-1.6A.79.79,0,0,1,741.28,90Z"/><rect class="cls-1" x="744.18" y="89.2" width="1.6" height="1.6"/><path class="cls-3" d="M745.77,90a.8.8,0,1,1-.79-.8A.79.79,0,0,1,745.77,90Z"/><rect class="cls-1" x="748.67" y="89.2" width="1.6" height="1.6"/><path class="cls-3" d="M750.26,90a.8.8,0,1,1-.8-.8A.8.8,0,0,1,750.26,90Z"/><rect class="cls-1" x="753.16" y="89.2" width="1.6" height="1.6"/><path class="cls-3" d="M754.75,90a.8.8,0,0,1-.8.8.8.8,0,0,1,0-1.6A.8.8,0,0,1,754.75,90Z"/><rect class="cls-1" x="757.64" y="89.2" width="1.6" height="1.6"/><path class="cls-3" d="M759.24,90a.8.8,0,1,1-.8-.8A.8.8,0,0,1,759.24,90Z"/><rect class="cls-1" x="762.13" y="89.2" width="1.6" height="1.6"/><path class="cls-3" d="M763.73,90a.8.8,0,1,1-.8-.8A.8.8,0,0,1,763.73,90Z"/><rect class="cls-1" x="766.62" y="89.2" width="1.6" height="1.6"/><path class="cls-3" d="M768.22,90a.8.8,0,1,1-.8-.8A.8.8,0,0,1,768.22,90Z"/><rect class="cls-1" x="771.11" y="89.2" width="1.6" height="1.6"/><path class="cls-3" d="M772.71,90a.8.8,0,1,1-.8-.8A.8.8,0,0,1,772.71,90Z"/><rect class="cls-1" x="775.6" y="89.2" width="1.6" height="1.6"/><path class="cls-3" d="M777.2,90a.8.8,0,1,1-.8-.8A.8.8,0,0,1,777.2,90Z"/><rect class="cls-1" x="780.09" y="89.2" width="1.6" height="1.6"/><path class="cls-3" d="M781.69,90a.8.8,0,1,1-.8-.8A.8.8,0,0,1,781.69,90Z"/><rect class="cls-1" x="784.58" y="89.2" width="1.6" height="1.6"/><path class="cls-3" d="M786.17,90a.79.79,0,0,1-.79.8.8.8,0,1,1,0-1.6A.79.79,0,0,1,786.17,90Z"/><rect class="cls-1" x="789.07" y="89.2" width="1.6" height="1.6"/><path class="cls-3" d="M790.66,90a.8.8,0,1,1-.79-.8A.79.79,0,0,1,790.66,90Z"/><rect class="cls-1" x="793.56" y="89.2" width="1.6" height="1.6"/><path class="cls-3" d="M795.15,90a.8.8,0,1,1-.8-.8A.8.8,0,0,1,795.15,90Z"/><rect class="cls-1" x="798.05" y="89.2" width="1.6" height="1.6"/><path class="cls-3" d="M799.64,90a.8.8,0,0,1-.8.8.8.8,0,0,1,0-1.6A.8.8,0,0,1,799.64,90Z"/><rect class="cls-1" x="802.53" y="89.2" width="1.6" height="1.6"/><path class="cls-3" d="M804.13,90a.8.8,0,1,1-.8-.8A.8.8,0,0,1,804.13,90Z"/><rect class="cls-1" x="807.02" y="89.2" width="1.6" height="1.6"/><path class="cls-3" d="M808.62,90a.8.8,0,1,1-.8-.8A.8.8,0,0,1,808.62,90Z"/><rect class="cls-1" x="811.51" y="89.2" width="1.6" height="1.6"/><path class="cls-3" d="M813.11,90a.8.8,0,1,1-.8-.8A.8.8,0,0,1,813.11,90Z"/><rect class="cls-1" x="816" y="89.2" width="1.6" height="1.6"/><path class="cls-3" d="M817.6,90a.8.8,0,1,1-.8-.8A.8.8,0,0,1,817.6,90Z"/><rect class="cls-1" x="820.49" y="89.2" width="1.6" height="1.6"/><path class="cls-3" d="M822.09,90a.8.8,0,1,1-.8-.8A.8.8,0,0,1,822.09,90Z"/><rect class="cls-1" x="824.98" y="89.2" width="1.6" height="1.6"/><path class="cls-3" d="M826.58,90a.8.8,0,1,1-.8-.8A.8.8,0,0,1,826.58,90Z"/><rect class="cls-1" x="829.47" y="89.2" width="1.6" height="1.6"/><path class="cls-3" d="M831.06,90a.79.79,0,0,1-.79.8.8.8,0,1,1,0-1.6A.79.79,0,0,1,831.06,90Z"/><rect class="cls-1" x="833.96" y="89.2" width="1.6" height="1.6"/><path class="cls-3" d="M835.55,90a.8.8,0,1,1-.79-.8A.79.79,0,0,1,835.55,90Z"/><path class="cls-5" d="M20.27,133.18l27.8-16.06a.72.72,0,0,0,0-1.25L20.27,99.82"/><path class="cls-5" d="M48.42,133.18l27.8-16.06a.72.72,0,0,0,0-1.25L48.42,99.82"/><path class="cls-5" d="M76.56,133.18l27.81-16.06a.72.72,0,0,0,0-1.25L76.56,99.82"/><path class="cls-5" d="M104.71,133.18l27.81-16.06a.72.72,0,0,0,0-1.25L104.71,99.82"/><path class="cls-5" d="M132.86,133.18l27.8-16.06a.72.72,0,0,0,0-1.25l-27.8-16.05"/><path class="cls-5" d="M161,133.18l27.8-16.06a.72.72,0,0,0,0-1.25L161,99.82"/><path class="cls-5" d="M189.16,133.18,217,117.12a.72.72,0,0,0,0-1.25l-27.8-16.05"/><path class="cls-5" d="M217.31,133.18l27.8-16.06a.72.72,0,0,0,0-1.25l-27.8-16.05"/><path class="cls-5" d="M245.45,133.18l27.81-16.06a.72.72,0,0,0,0-1.25L245.45,99.82"/><path class="cls-5" d="M273.6,133.18l27.81-16.06a.72.72,0,0,0,0-1.25L273.6,99.82"/><path class="cls-5" d="M301.75,133.18l27.8-16.06a.72.72,0,0,0,0-1.25l-27.8-16.05"/><path class="cls-5" d="M329.9,133.18l27.8-16.06a.72.72,0,0,0,0-1.25L329.9,99.82"/><path class="cls-5" d="M358.05,133.18l27.8-16.06a.72.72,0,0,0,0-1.25l-27.8-16.05"/><path class="cls-5" d="M386.2,133.18,414,117.12a.72.72,0,0,0,0-1.25L386.2,99.82"/><path class="cls-5" d="M414.34,133.18l27.81-16.06a.72.72,0,0,0,0-1.25L414.34,99.82"/><path class="cls-5" d="M442.49,133.18l27.81-16.06a.72.72,0,0,0,0-1.25L442.49,99.82"/><path class="cls-5" d="M442.91,133.18l27.8-16.06a.72.72,0,0,0,0-1.25l-27.8-16.05"/><path class="cls-5" d="M471.05,133.18l27.81-16.06a.72.72,0,0,0,0-1.25L471.05,99.82"/><path class="cls-5" d="M499.2,133.18,527,117.12a.72.72,0,0,0,0-1.25L499.2,99.82"/><path class="cls-5" d="M527.35,133.18l27.8-16.06a.72.72,0,0,0,0-1.25l-27.8-16.05"/><path class="cls-5" d="M555.5,133.18l27.8-16.06a.72.72,0,0,0,0-1.25L555.5,99.82"/><path class="cls-5" d="M583.65,133.18l27.8-16.06a.72.72,0,0,0,0-1.25l-27.8-16.05"/><path class="cls-5" d="M611.8,133.18l27.8-16.06a.72.72,0,0,0,0-1.25L611.8,99.82"/><path class="cls-5" d="M639.94,133.18l27.81-16.06a.72.72,0,0,0,0-1.25L639.94,99.82"/><path class="cls-5" d="M668.09,133.18l27.81-16.06a.72.72,0,0,0,0-1.25L668.09,99.82"/><path class="cls-5" d="M696.24,133.18,724,117.12a.72.72,0,0,0,0-1.25l-27.8-16.05"/><path class="cls-5" d="M724.39,133.18l27.8-16.06a.72.72,0,0,0,0-1.25l-27.8-16.05"/><path class="cls-5" d="M752.54,133.18l27.8-16.06a.72.72,0,0,0,0-1.25l-27.8-16.05"/><path class="cls-5" d="M780.69,133.18l27.8-16.06a.72.72,0,0,0,0-1.25l-27.8-16.05"/><path class="cls-5" d="M808.83,133.18l27.81-16.06a.72.72,0,0,0,0-1.25L808.83,99.82"/><path class="cls-5" d="M837,235.82l-27.8,16.05a.72.72,0,0,0,0,1.25L837,269.18"/><path class="cls-5" d="M808.85,235.82l-27.8,16.05a.72.72,0,0,0,0,1.25l27.8,16.06"/><path class="cls-5" d="M780.7,235.82l-27.8,16.05a.72.72,0,0,0,0,1.25l27.8,16.06"/><path class="cls-5" d="M752.55,235.82l-27.8,16.05a.72.72,0,0,0,0,1.25l27.8,16.06"/><path class="cls-5" d="M724.41,235.82,696.6,251.87a.72.72,0,0,0,0,1.25l27.81,16.06"/><path class="cls-5" d="M696.26,235.82l-27.8,16.05a.72.72,0,0,0,0,1.25l27.8,16.06"/><path class="cls-5" d="M668.11,235.82l-27.8,16.05a.72.72,0,0,0,0,1.25l27.8,16.06"/><path class="cls-5" d="M640,235.82l-27.8,16.05a.72.72,0,0,0,0,1.25L640,269.18"/><path class="cls-5" d="M611.81,235.82,584,251.87a.72.72,0,0,0,0,1.25l27.8,16.06"/><path class="cls-5" d="M583.66,235.82l-27.8,16.05a.72.72,0,0,0,0,1.25l27.8,16.06"/><path class="cls-5" d="M555.52,235.82l-27.81,16.05a.72.72,0,0,0,0,1.25l27.81,16.06"/><path class="cls-5" d="M527.37,235.82l-27.8,16.05a.72.72,0,0,0,0,1.25l27.8,16.06"/><path class="cls-5" d="M499.22,235.82l-27.8,16.05a.72.72,0,0,0,0,1.25l27.8,16.06"/><path class="cls-5" d="M471.07,235.82l-27.8,16.05a.72.72,0,0,0,0,1.25l27.8,16.06"/><path class="cls-5" d="M442.92,235.82l-27.8,16.05a.72.72,0,0,0,0,1.25l27.8,16.06"/><path class="cls-5" d="M414.77,235.82,387,251.87a.72.72,0,0,0,0,1.25l27.8,16.06"/><path class="cls-5" d="M414.36,235.82l-27.8,16.05a.72.72,0,0,0,0,1.25l27.8,16.06"/><path class="cls-5" d="M386.21,235.82l-27.8,16.05a.72.72,0,0,0,0,1.25l27.8,16.06"/><path class="cls-5" d="M358.06,235.82l-27.8,16.05a.72.72,0,0,0,0,1.25l27.8,16.06"/><path class="cls-5" d="M329.92,235.82l-27.81,16.05a.72.72,0,0,0,0,1.25l27.81,16.06"/><path class="cls-5" d="M301.77,235.82,274,251.87a.72.72,0,0,0,0,1.25l27.81,16.06"/><path class="cls-5" d="M273.62,235.82l-27.8,16.05a.72.72,0,0,0,0,1.25l27.8,16.06"/><path class="cls-5" d="M245.47,235.82l-27.8,16.05a.72.72,0,0,0,0,1.25l27.8,16.06"/><path class="cls-5" d="M217.32,235.82l-27.8,16.05a.72.72,0,0,0,0,1.25l27.8,16.06"/><path class="cls-5" d="M189.17,235.82l-27.8,16.05a.72.72,0,0,0,0,1.25l27.8,16.06"/><path class="cls-5" d="M161,235.82l-27.81,16.05a.72.72,0,0,0,0,1.25L161,269.18"/><path class="cls-5" d="M132.88,235.82l-27.81,16.05a.72.72,0,0,0,0,1.25l27.81,16.06"/><path class="cls-5" d="M104.73,235.82l-27.8,16.05a.72.72,0,0,0,0,1.25l27.8,16.06"/><path class="cls-5" d="M76.58,235.82l-27.8,16.05a.72.72,0,0,0,0,1.25l27.8,16.06"/><path class="cls-5" d="M48.43,235.82l-27.8,16.05a.72.72,0,0,0,0,1.25l27.8,16.06"/><line class="cls-5" x1="19.5" y1="189.5" x2="49.5" y2="219.5"/><line class="cls-5" x1="48.5" y1="189.5" x2="78.5" y2="219.5"/><line class="cls-5" x1="76.5" y1="189.5" x2="106.5" y2="219.5"/><line class="cls-5" x1="105.5" y1="189.5" x2="135.5" y2="219.5"/><line class="cls-5" x1="132.5" y1="189.5" x2="162.5" y2="219.5"/><line class="cls-5" x1="161.5" y1="189.5" x2="191.5" y2="219.5"/><line class="cls-5" x1="189.5" y1="189.5" x2="219.5" y2="219.5"/><line class="cls-5" x1="218.5" y1="189.5" x2="248.5" y2="219.5"/><line class="cls-5" x1="248.5" y1="189.5" x2="278.5" y2="219.5"/><line class="cls-5" x1="277.5" y1="189.5" x2="307.5" y2="219.5"/><line class="cls-5" x1="305.5" y1="189.5" x2="335.5" y2="219.5"/><line class="cls-5" x1="334.5" y1="189.5" x2="364.5" y2="219.5"/><line class="cls-5" x1="358.5" y1="189.5" x2="388.5" y2="219.5"/><line class="cls-5" x1="387.5" y1="189.5" x2="417.5" y2="219.5"/><line class="cls-5" x1="415.5" y1="189.5" x2="445.5" y2="219.5"/><line class="cls-5" x1="444.5" y1="189.5" x2="474.5" y2="219.5"/><line class="cls-5" x1="471.5" y1="189.5" x2="501.5" y2="219.5"/><line class="cls-5" x1="500.5" y1="189.5" x2="530.5" y2="219.5"/><line class="cls-5" x1="528.5" y1="189.5" x2="558.5" y2="219.5"/><line class="cls-5" x1="557.5" y1="189.5" x2="587.5" y2="219.5"/><line class="cls-5" x1="587.5" y1="189.5" x2="617.5" y2="219.5"/><line class="cls-5" x1="616.5" y1="189.5" x2="646.5" y2="219.5"/><line class="cls-5" x1="644.5" y1="189.5" x2="674.5" y2="219.5"/><line class="cls-5" x1="673.5" y1="189.5" x2="703.5" y2="219.5"/><line class="cls-5" x1="696.5" y1="189.5" x2="726.5" y2="219.5"/><line class="cls-5" x1="726.5" y1="189.5" x2="756.5" y2="219.5"/><line class="cls-5" x1="755.5" y1="189.5" x2="785.5" y2="219.5"/><line class="cls-5" x1="783.5" y1="189.5" x2="813.5" y2="219.5"/><line class="cls-5" x1="812.5" y1="189.5" x2="842.5" y2="219.5"/><line class="cls-5" x1="842.5" y1="147.5" x2="812.5" y2="177.5"/><line class="cls-5" x1="813.5" y1="147.5" x2="783.5" y2="177.5"/><line class="cls-5" x1="785.5" y1="147.5" x2="755.5" y2="177.5"/><line class="cls-5" x1="756.5" y1="147.5" x2="726.5" y2="177.5"/><line class="cls-5" x1="729.5" y1="147.5" x2="699.5" y2="177.5"/><line class="cls-5" x1="700.5" y1="147.5" x2="670.5" y2="177.5"/><line class="cls-5" x1="672.5" y1="147.5" x2="642.5" y2="177.5"/><line class="cls-5" x1="643.5" y1="147.5" x2="613.5" y2="177.5"/><line class="cls-5" x1="613.5" y1="147.5" x2="583.5" y2="177.5"/><line class="cls-5" x1="584.5" y1="147.5" x2="554.5" y2="177.5"/><line class="cls-5" x1="556.5" y1="147.5" x2="526.5" y2="177.5"/><line class="cls-5" x1="527.5" y1="147.5" x2="497.5" y2="177.5"/><line class="cls-5" x1="503.5" y1="147.5" x2="473.5" y2="177.5"/><line class="cls-5" x1="474.5" y1="147.5" x2="444.5" y2="177.5"/><line class="cls-5" x1="446.5" y1="147.5" x2="416.5" y2="177.5"/><line class="cls-5" x1="417.5" y1="147.5" x2="387.5" y2="177.5"/><line class="cls-5" x1="390.5" y1="147.5" x2="360.5" y2="177.5"/><line class="cls-5" x1="361.5" y1="147.5" x2="331.5" y2="177.5"/><line class="cls-5" x1="333.5" y1="147.5" x2="303.5" y2="177.5"/><line class="cls-5" x1="304.5" y1="147.5" x2="274.5" y2="177.5"/><line class="cls-5" x1="274.5" y1="147.5" x2="244.5" y2="177.5"/><line class="cls-5" x1="245.5" y1="147.5" x2="215.5" y2="177.5"/><line class="cls-5" x1="217.5" y1="147.5" x2="187.5" y2="177.5"/><line class="cls-5" x1="188.5" y1="147.5" x2="158.5" y2="177.5"/><line class="cls-5" x1="165.5" y1="147.5" x2="135.5" y2="177.5"/><line class="cls-5" x1="135.5" y1="147.5" x2="105.5" y2="177.5"/><line class="cls-5" x1="106.5" y1="147.5" x2="76.5" y2="177.5"/><line class="cls-5" x1="78.5" y1="147.5" x2="48.5" y2="177.5"/><line class="cls-5" x1="49.5" y1="147.5" x2="19.5" y2="177.5"/></g></svg>