<svg id="Capa_1" data-name="Capa 1" xmlns="http://www.w3.org/2000/svg" viewBox="0 0 452 452"><defs><style>.cls-1,.cls-3{fill:none;stroke:#fbf5e7;}.cls-1{stroke-linecap:round;stroke-linejoin:round;stroke-width:25px;}.cls-2{fill:#fbf5e7;}.cls-3{stroke-miterlimit:10;stroke-width:7px;}</style></defs><title>machine-tattoo-white</title><path class="cls-1" d="M399.59,191.87c7.32-33.85,1.64-75.09-22-101.53l0,0c-36.21-40.4-94.93-40.42-131.15,0l0,0-17.87,19.93L210.58,90.31c-36.22-40.4-95-40.4-131.17,0-24.5,27.33-32.59,64.76-23.95,99.52C233.64,159.19,324.19,176.89,399.59,191.87Z"/><path class="cls-1" d="M123.22,285.87l105.24,117L339,285.45C263.6,274.94,178.15,278.54,123.22,285.87Z"/><path class="cls-1" d="M433.78,303.14s-86.7-24.6-204.74-24.6c-99.37,0-207.76,24.6-207.76,24.6"/><path class="cls-1" d="M21.28,197.87s90.65-24.6,206.75-24.6c109.32,0,205.75,24.6,205.75,24.6"/><path class="cls-2" d="M132.28,215.22l1.37,43.57-6.81,1.06-1.37-43.58"/><path class="cls-2" d="M170.66,241.25l-19,1.85L146,256.81l-6.59.64,22.93-54.37.42,0,20.41,50.14-7.69.75Zm-2.15-5.61-6.6-17.29L154.18,237Z"/><path class="cls-2" d="M198.9,209.34l-3.23,43.47-6.88.33L192,209.67"/><path class="cls-2" d="M231.88,208.8l-5.11,43.29-6.9,0L225,208.83"/><path class="cls-2" d="M251.86,250.13a21.52,21.52,0,0,1-8.41-8.51,23.82,23.82,0,0,1-2.72-13,28.07,28.07,0,0,1,3.76-12.51,26.63,26.63,0,0,1,9.79-9.9,27.54,27.54,0,0,1,26.43-.09,21.48,21.48,0,0,1,8.41,8.52,23.7,23.7,0,0,1,2.71,13,28,28,0,0,1-3.75,12.51,26.55,26.55,0,0,1-9.79,9.9,27.54,27.54,0,0,1-26.43.09Zm23.22-5.69a19.38,19.38,0,0,0,7.15-7.41,21.69,21.69,0,0,0,2.7-9.39,17.6,17.6,0,0,0-1.81-8.82,17.2,17.2,0,0,0-5.88-6.73,16.64,16.64,0,0,0-8.72-2.85,18.76,18.76,0,0,0-18.22,10,22.41,22.41,0,0,0-2.67,9.42,17.9,17.9,0,0,0,1.78,8.82,16.73,16.73,0,0,0,14.51,9.5A19.3,19.3,0,0,0,275.08,244.44Z"/><path class="cls-2" d="M301.67,253.53a21.43,21.43,0,0,1-7.69-9.17,23.78,23.78,0,0,1-1.65-13.14,28.16,28.16,0,0,1,4.77-12.17A26.56,26.56,0,0,1,307.67,210a25.75,25.75,0,0,1,15.05-2.16,26.2,26.2,0,0,1,11.3,4.23,21.56,21.56,0,0,1,7.68,9.18,23.76,23.76,0,0,1,1.65,13.14,28.07,28.07,0,0,1-4.77,12.16A26.58,26.58,0,0,1,328,255.61a27.47,27.47,0,0,1-26.34-2.08Zm23.6-3.77A19.32,19.32,0,0,0,333,243a21.82,21.82,0,0,0,3.46-9.14,17.73,17.73,0,0,0-1.08-8.93,17.22,17.22,0,0,0-5.31-7.2,16.71,16.71,0,0,0-8.47-3.54,18.73,18.73,0,0,0-19,8.45,22.36,22.36,0,0,0-3.43,9.17,17.8,17.8,0,0,0,1.05,8.93,16.75,16.75,0,0,0,5.25,7.15,16.56,16.56,0,0,0,8.43,3.51A19.29,19.29,0,0,0,325.27,249.76Z"/><path class="cls-3" d="M180.18,207.5s21.6-1.71,33.29-1.71c15.68,0,32.74,1.71,32.74,1.71"/><path class="cls-3" d="M112.5,215.22s13.14-2.06,16.45-2.38c4.42-.43,16.48-1.53,16.48-1.53"/></svg>