<svg id="Capa_1" data-name="Capa 1" xmlns="http://www.w3.org/2000/svg" viewBox="0 0 452 452"><defs><style>.cls-1,.cls-5{fill:#fbf5e7;}.cls-2,.cls-3,.cls-4{fill:none;stroke:#fbf5e7;}.cls-2,.cls-3{stroke-linecap:round;stroke-linejoin:round;}.cls-2{stroke-width:16px;}.cls-3{stroke-width:20px;}.cls-4{stroke-width:18px;}.cls-5{font-size:114px;font-family:JosefinSans-Regular, Josefin Sans;letter-spacing:-0.18em;}.cls-6{letter-spacing:-0.12em;}.cls-7{letter-spacing:-0.15em;}</style></defs><title>machine-tattoo-white</title><path class="cls-1" d="M144.44,324.71c-13.23,1.42-24,13.27-24.84,26.83-.27,4.4-3.25,10.28-6.82,12.5C105,368.88,96,371.81,86.88,375.8c5.42-29,27-44.49,45.49-63.42l-8.06-8.24c-6,5.93-11.79,11.64-17.7,17.23C94.9,332.44,83.85,343.9,79.38,360.1,74.53,377.7,62.54,390,49.16,401.23v11.82H60.9c10.94-13.16,22.6-25.23,39.73-30.32a70,70,0,0,0,17-7.47c8.28-5.16,16.3-10.58,14.2-23-1.46-8.63,5.51-12.88,12.18-15.34a97.61,97.61,0,0,1,9.56-2.9Z"/><path class="cls-1" d="M431.44,23.87a23.28,23.28,0,0,0-27.12-4.07C394.51,25,390.45,35.19,392.8,47.45c.49,2.55.52,6.36-1,7.93-10,10.63-20.56,20.81-31.33,31.54L347,74.43c-12.34,12.49-16.45,16.77-28.7,29.15a78.38,78.38,0,0,1,13.94,7.59c8.35-8.25,8.78-8.61,17.34-17.06l13.91,14.37c-8,8-8.14,8-16.24,16a105.9,105.9,0,0,1,7.89,10c11.42-11.21,14.8-14.42,26.21-25.63l-13-14.09c10.74-10.32,20.71-20.21,31.12-29.6,1.92-1.74,5.8-2.44,8.47-2,12.59,2.29,22.36-1.43,27.66-11.21A24.09,24.09,0,0,0,431.44,23.87ZM415.12,52.59c-7.05-1.07-11.61-5-11.46-12.2.13-6.63,4.35-11.16,11.06-11.32,7.18-.18,11.73,4.26,11.9,11.43S422.08,51.54,415.12,52.59Z"/><path class="cls-2" d="M353.62,138.14c-6.26-17.11-22.4-32.08-38.43-36.13"/><path class="cls-3" d="M423.36,157.15c-.82-25.44-10.93-53.44-30.35-72.86l0,0a103.89,103.89,0,0,0-146.93,0l0,0-20,20-20-20a103.92,103.92,0,0,0-147,0c-19.43,19.43-29.55,47.45-30.37,72.9"/><polyline class="cls-3" points="113.28 295.02 226 398.2 338.72 295.02"/><line class="cls-4" x1="4.71" y1="162.14" x2="447.29" y2="162.14"/><text class="cls-5" transform="translate(31.58 268.82)">TA<tspan class="cls-6" x="105.68" y="0">T</tspan><tspan class="cls-7" x="158.23" y="0">T</tspan><tspan class="cls-6" x="207.25" y="0">OO</tspan></text><line class="cls-4" x1="447.29" y1="290.54" x2="4.71" y2="290.54"/></svg>