<svg id="Capa_1" data-name="Capa 1" xmlns="http://www.w3.org/2000/svg" viewBox="0 0 452 452"><defs><style>.cls-1,.cls-2,.cls-4{fill:none;}.cls-1,.cls-4{stroke:#211915;}.cls-1,.cls-2{stroke-linecap:round;stroke-linejoin:round;stroke-width:25px;}.cls-2{stroke:#070308;}.cls-3{fill:#211915;}.cls-4{stroke-miterlimit:10;stroke-width:7px;}</style></defs><title>machine-black</title><path class="cls-1" d="M399.59,192.15c7.32-33.86,1.64-75.1-22-101.53l0,0c-36.21-40.41-94.93-40.42-131.15,0l0,0-17.87,19.93L210.58,90.59c-36.22-40.41-95-40.41-131.17,0-24.5,27.32-32.59,64.76-23.95,99.52C233.64,159.47,324.19,177.17,399.59,192.15Z"/><path class="cls-1" d="M123.22,286.14l105.24,117L339,285.73C263.6,275.21,178.15,278.81,123.22,286.14Z"/><path class="cls-2" d="M433.78,303.41s-86.7-24.6-204.74-24.6c-99.37,0-207.76,24.6-207.76,24.6"/><path class="cls-2" d="M21.28,198.14s90.65-24.6,206.75-24.6c109.32,0,205.75,24.6,205.75,24.6"/><path class="cls-3" d="M132.28,215.5l1.37,43.57-6.81,1.05-1.37-43.57"/><path class="cls-3" d="M170.66,241.52l-19,1.86L146,257.08l-6.59.65,22.93-54.38.42,0,20.41,50.14-7.69.75Zm-2.15-5.61-6.6-17.28-7.73,18.69Z"/><path class="cls-3" d="M198.9,209.61l-3.23,43.48-6.88.33L192,209.94"/><path class="cls-3" d="M231.88,209.07l-5.11,43.3-6.9,0L225,209.1"/><path class="cls-3" d="M251.86,250.41a21.48,21.48,0,0,1-8.41-8.52,23.81,23.81,0,0,1-2.72-13,28,28,0,0,1,3.76-12.51,26.58,26.58,0,0,1,9.79-9.91,27.5,27.5,0,0,1,26.43-.08,21.45,21.45,0,0,1,8.41,8.51,23.73,23.73,0,0,1,2.71,13,28.05,28.05,0,0,1-3.75,12.51,26.63,26.63,0,0,1-9.79,9.9,27.54,27.54,0,0,1-26.43.09Zm23.22-5.7a19.24,19.24,0,0,0,7.15-7.41,21.61,21.61,0,0,0,2.7-9.39,17.56,17.56,0,0,0-1.81-8.81,17.23,17.23,0,0,0-5.88-6.74,16.72,16.72,0,0,0-8.72-2.84,18.76,18.76,0,0,0-18.22,10,22.41,22.41,0,0,0-2.67,9.42,17.84,17.84,0,0,0,1.78,8.81,16.76,16.76,0,0,0,14.51,9.51A19.22,19.22,0,0,0,275.08,244.71Z"/><path class="cls-3" d="M301.67,253.81a21.45,21.45,0,0,1-7.69-9.18,23.76,23.76,0,0,1-1.65-13.14,28.12,28.12,0,0,1,4.77-12.16,26.66,26.66,0,0,1,10.57-9.07A27.56,27.56,0,0,1,334,212.34a21.48,21.48,0,0,1,7.68,9.17,23.8,23.8,0,0,1,1.65,13.15,28.12,28.12,0,0,1-4.77,12.16A26.66,26.66,0,0,1,328,255.89a27.54,27.54,0,0,1-26.34-2.08Zm23.6-3.78a19.24,19.24,0,0,0,7.74-6.8,21.78,21.78,0,0,0,3.46-9.13,17.7,17.7,0,0,0-1.08-8.93,17.22,17.22,0,0,0-5.31-7.2,16.73,16.73,0,0,0-8.47-3.55,18.78,18.78,0,0,0-19,8.45,22.35,22.35,0,0,0-3.43,9.18,17.81,17.81,0,0,0,1.05,8.93,16.78,16.78,0,0,0,13.68,10.66A19.21,19.21,0,0,0,325.27,250Z"/><path class="cls-4" d="M180.18,207.78s21.6-1.71,33.29-1.71c15.68,0,32.74,1.71,32.74,1.71"/><path class="cls-4" d="M112.5,215.5s13.14-2.07,16.45-2.39c4.42-.42,16.48-1.52,16.48-1.52"/></svg>