<?xml version="1.0" encoding="utf-8"?>
<!-- Generator: Adobe Illustrator 23.0.1, SVG Export Plug-In . SVG Version: 6.00 Build 0)  -->
<svg version="1.1" id="Capa_1" xmlns="http://www.w3.org/2000/svg" xmlns:xlink="http://www.w3.org/1999/xlink" x="0px" y="0px"
	 viewBox="0 0 1024 1024" style="enable-background:new 0 0 1024 1024;" xml:space="preserve">
<style type="text/css">
	.st0{fill:#FCF6E8;}
	.st1{fill:#F83C3C;}
</style>
<path class="st0" d="M833.6,833.3H175.4c-6.6,0-12-5.4-12-12V191.6c0-6.6,5.4-12,12-12h658.2c6.6,0,12,5.4,12,12v629.6
	C845.6,827.9,840.2,833.3,833.6,833.3z"/>
<path class="st1" d="M512,0C229.3,0,0,229.3,0,512s229.3,512,512,512s512-229.3,512-512S794.7,0,512,0z M731.4,539.4
	c0,5-4.1,9.1-9.1,9.1H548.6v173.7c0,5-4.1,9.1-9.1,9.1h-54.9c-5,0-9.1-4.1-9.1-9.1V548.6H301.7c-5,0-9.1-4.1-9.1-9.1v-54.9
	c0-5,4.1-9.1,9.1-9.1h173.7V301.7c0-5,4.1-9.1,9.1-9.1h54.9c5,0,9.1,4.1,9.1,9.1v173.7h173.7c5,0,9.1,4.1,9.1,9.1V539.4z"/>
</svg>
