<svg id="Capa_1" data-name="Capa 1" xmlns="http://www.w3.org/2000/svg" viewBox="0 0 1024 1024"><defs><style>.cls-1{fill:#fcf6e8;}</style></defs><title>plus-circle-white</title><path d="M841.1,833.3H182.9a12,12,0,0,1-12-12V191.6a12,12,0,0,1,12-12H841.1a12,12,0,0,1,12,12V821.2A12.06,12.06,0,0,1,841.1,833.3Z"/><path class="cls-1" d="M512,0C229.3,0,0,229.3,0,512s229.3,512,512,512,512-229.3,512-512S794.7,0,512,0ZM731.4,539.4a9.13,9.13,0,0,1-9.1,9.1H548.6V722.2a9.13,9.13,0,0,1-9.1,9.1H484.6a9.13,9.13,0,0,1-9.1-9.1V548.6H301.7a9.13,9.13,0,0,1-9.1-9.1V484.6a9.13,9.13,0,0,1,9.1-9.1H475.4V301.7a9.13,9.13,0,0,1,9.1-9.1h54.9a9.13,9.13,0,0,1,9.1,9.1V475.4H722.2a9.13,9.13,0,0,1,9.1,9.1v54.9Z"/></svg>