<svg xmlns="http://www.w3.org/2000/svg" viewBox="0 0 749 446"><defs><style>.cls-1{fill:none;}.cls-1,.cls-2{stroke:#000;stroke-width:3px;}.cls-2{fill:#fcf6e8;}</style></defs><title>prop-valor-homepage</title><g id="Capa_9" data-name="Capa 9"><path d="M91.47,356v69.78H87.65V349.38h4.56l44.06,76.35h-4.4Zm3.81,10.5,3.82,7v52.28H95.28Zm1.33-17.07h4.45l44.22,76.35h-4.45Zm6.31,30.8,3.82,6.95v38.6h-3.82Zm2.7-30.8h4.51l44.17,76.35h-4.56Zm9,0H119l40.29,69.72V349.38h3.82v76.35h-4.51Zm33.3,45.54L144.06,388v-38.6h3.82Zm7.64,13.21-3.82-6.47V349.38h3.82Z"/><path d="M217.18,425.73H173.12V349.38h44.06A36.45,36.45,0,0,1,236,354.5a38.53,38.53,0,0,1,13.89,13.89A36.94,36.94,0,0,1,255,387.45a37.48,37.48,0,0,1-3,14.9,37.82,37.82,0,0,1-20.28,20.36A36.38,36.38,0,0,1,217.18,425.73Zm-40.24-3.82h40.24A32.76,32.76,0,0,0,234,417.33a34.37,34.37,0,0,0,12.43-12.54,33.75,33.75,0,0,0,4.64-17.34,33.28,33.28,0,0,0-4.64-17.15A34.31,34.31,0,0,0,234,357.78a32.75,32.75,0,0,0-16.83-4.58H176.94Zm3.81-3.81V357h36.43a28.82,28.82,0,0,1,14.93,4.09,30.37,30.37,0,0,1,11,11.11,29.8,29.8,0,0,1,4.08,15.24A30.78,30.78,0,0,1,232.11,414a28.92,28.92,0,0,1-14.93,4.09Zm3.82-3.82h32.61a25.07,25.07,0,0,0,13-3.55,26.36,26.36,0,0,0,9.54-9.76,26.73,26.73,0,0,0,3.56-13.52,26.16,26.16,0,0,0-3.56-13.31,26.5,26.5,0,0,0-9.57-9.73,25,25,0,0,0-13-3.58H184.57Zm3.82-3.82V364.65h28.79a21.1,21.1,0,0,1,15.62,6.71,22.22,22.22,0,0,1,6.54,16.09,22.49,22.49,0,0,1-6.52,16.3,21.05,21.05,0,0,1-15.64,6.71Zm3.82-3.82h25a17.18,17.18,0,0,0,12.88-5.59,18.94,18.94,0,0,0,5.36-13.6A18.62,18.62,0,0,0,230,374a17.28,17.28,0,0,0-12.86-5.56h-25Zm3.81-3.82V372.28h21.16a13.43,13.43,0,0,1,10.1,4.46,15,15,0,0,1,4.22,10.71,15.36,15.36,0,0,1-4.19,10.92,13.41,13.41,0,0,1-10.13,4.45Zm3.82-3.81h17.34a9.61,9.61,0,0,0,7.34-3.34,11.72,11.72,0,0,0,3-8.22,11.45,11.45,0,0,0-3-8,9.61,9.61,0,0,0-7.34-3.34H199.84Z"/><path d="M344.49,388.08v37.65h-3.82V388.08a37.17,37.17,0,0,0-5-19.32,34.66,34.66,0,0,0-13.73-13.15A40.63,40.63,0,0,0,302.49,351a36.91,36.91,0,0,0-18.82,4.93,36.8,36.8,0,0,0-16.2,44,33.65,33.65,0,0,0,5.73,10.24,39.34,39.34,0,0,0,8.37,7.55,38,38,0,0,0,10.24,4.83A38.56,38.56,0,0,0,303,424.19a30.12,30.12,0,0,0,11.88-2.38v3.92a36.24,36.24,0,0,1-12.09,2.07,43.72,43.72,0,0,1-12.49-1.8A40.32,40.32,0,0,1,279,420.67a42.66,42.66,0,0,1-9.09-8.33,36.14,36.14,0,0,1-6.15-11.21,41,41,0,0,1-2.23-13.58A40.87,40.87,0,0,1,273.14,359a39.76,39.76,0,0,1,13.05-8.64,41.76,41.76,0,0,1,16.3-3.21,45.76,45.76,0,0,1,16.54,3,40.38,40.38,0,0,1,13.37,8.25,37.5,37.5,0,0,1,8.85,13A42.71,42.71,0,0,1,344.49,388.08Zm-7.64,0v37.65H333V388.08a29.8,29.8,0,0,0-4-15.5,26.87,26.87,0,0,0-10.95-10.37,33.38,33.38,0,0,0-15.59-3.61,29.55,29.55,0,0,0-15,3.9A28.57,28.57,0,0,0,273,387.55a30.06,30.06,0,0,0,2.49,12.38,25.66,25.66,0,0,0,6.71,9.2,31.3,31.3,0,0,0,9.6,5.6,32.38,32.38,0,0,0,11.27,2,29.37,29.37,0,0,0,11.77-2.5v3.88A33.5,33.5,0,0,1,303,420.37a35,35,0,0,1-16.86-4.13,32.75,32.75,0,0,1-14.34-41.41,31.82,31.82,0,0,1,17.57-17.44,33.57,33.57,0,0,1,13.15-2.6A37,37,0,0,1,320,358.92a30.74,30.74,0,0,1,12.32,11.77A33.52,33.52,0,0,1,336.85,388.08Zm-7.64,0v37.65H325.4V388.08q0-10-6.42-15.93t-16.49-5.91a21.28,21.28,0,0,0-15.59,6.2,20.49,20.49,0,0,0-6.25,15.11,23.89,23.89,0,0,0,1.88,9.71,17.74,17.74,0,0,0,5.12,6.89,23.32,23.32,0,0,0,7.23,4,26.31,26.31,0,0,0,8.46,1.35,24.77,24.77,0,0,0,11.51-2.81v4a29.85,29.85,0,0,1-11.56,2.39,30.47,30.47,0,0,1-10-1.62,26.24,26.24,0,0,1-8.43-4.72,21.52,21.52,0,0,1-5.89-8.06,27.33,27.33,0,0,1-2.17-11.11,24.12,24.12,0,0,1,7.4-17.78,24.89,24.89,0,0,1,18.26-7.35,29.63,29.63,0,0,1,13.68,3.1,23.36,23.36,0,0,1,9.55,9A26.06,26.06,0,0,1,329.21,388.08Zm-11.45,0q0-6.78-4.19-10.49t-11.08-3.72a14,14,0,0,0-10,4,13,13,0,0,0-4.19,9.65,17.61,17.61,0,0,0,.85,5.7,11.74,11.74,0,0,0,5.78,6.95,15.45,15.45,0,0,0,4.22,1.56,21.92,21.92,0,0,0,4.69.48,21.16,21.16,0,0,0,11-3v3.82a23.52,23.52,0,0,1-11.09,2.7,24.3,24.3,0,0,1-7.18-1,19.28,19.28,0,0,1-6.12-3.13,14.25,14.25,0,0,1-4.38-5.73,20.29,20.29,0,0,1-1.62-8.35,16.79,16.79,0,0,1,5.15-12.4,17.54,17.54,0,0,1,12.88-5.09q8.53,0,13.81,4.8t5.28,13.22v37.65h-3.82Z"/><path d="M404.19,402.82h-4.3l-30.38-57.63v80.54h-3.82v-87.8H370Zm-30.86-45,3.82,7.27v60.6h-3.82Zm39.5,45h-4.35l-34.14-64.89h4.34ZM381,372.39l3.82,7.21v46.13H381Zm70.84-27.2-30.38,57.63h-4.35L383,337.93h4.29l32,60.87,32-60.87h4.35v87.8H451.8Zm-63.2,41.73,3.82,7.21v31.6H388.6Zm25.56-3.34-2.23-4L434,337.93h4.34Zm4.4,8.32-2.18-4,26.3-50H447Zm10.34,1.81,3.81-7.22v39.24H428.9Zm7.63-14.64,3.82-7.21v53.87h-3.82Zm7.64-14.42,3.81-7.26v68.34h-3.81Z"/><path d="M546.6,388.08v37.65h-3.81V388.08a37.17,37.17,0,0,0-5-19.32A34.66,34.66,0,0,0,524,355.61,40.63,40.63,0,0,0,504.61,351a36.91,36.91,0,0,0-18.82,4.93,36.8,36.8,0,0,0-16.2,44,33.45,33.45,0,0,0,5.73,10.24,39.34,39.34,0,0,0,8.37,7.55,38,38,0,0,0,10.24,4.83,38.46,38.46,0,0,0,11.16,1.64A30,30,0,0,0,517,421.81v3.92a36.14,36.14,0,0,1-12.08,2.07,43.72,43.72,0,0,1-12.49-1.8,40.18,40.18,0,0,1-11.24-5.33,42.66,42.66,0,0,1-9.09-8.33,36.37,36.37,0,0,1-6.16-11.21,41.23,41.23,0,0,1-2.22-13.58A40.87,40.87,0,0,1,475.26,359a39.76,39.76,0,0,1,13.05-8.64,41.72,41.72,0,0,1,16.3-3.21,45.76,45.76,0,0,1,16.54,3,40.34,40.34,0,0,1,13.36,8.25,37.39,37.39,0,0,1,8.86,13A42.89,42.89,0,0,1,546.6,388.08Zm-7.63,0v37.65h-3.82V388.08a29.8,29.8,0,0,0-4-15.5,26.87,26.87,0,0,0-10.95-10.37,33.38,33.38,0,0,0-15.59-3.61,29.55,29.55,0,0,0-15,3.9,28.52,28.52,0,0,0-14.48,25.05,30.06,30.06,0,0,0,2.49,12.38,25.54,25.54,0,0,0,6.71,9.2,31.3,31.3,0,0,0,9.6,5.6,32.32,32.32,0,0,0,11.26,2,29.3,29.3,0,0,0,11.77-2.5v3.88a33.45,33.45,0,0,1-11.87,2.27,35,35,0,0,1-16.86-4.13,32.19,32.19,0,0,1-16.92-28.69,32.24,32.24,0,0,1,2.57-12.72,31.88,31.88,0,0,1,17.58-17.44,33.57,33.57,0,0,1,13.15-2.6,37,37,0,0,1,17.52,4.13,30.7,30.7,0,0,1,12.33,11.77A33.52,33.52,0,0,1,539,388.08Zm-7.64,0v37.65h-3.81V388.08q0-10-6.42-15.93t-16.49-5.91a21.28,21.28,0,0,0-15.59,6.2,20.49,20.49,0,0,0-6.25,15.11,23.89,23.89,0,0,0,1.88,9.71,17.81,17.81,0,0,0,5.11,6.89,23.49,23.49,0,0,0,7.24,4,26.31,26.31,0,0,0,8.46,1.35,24.7,24.7,0,0,0,11.5-2.81v4a29.8,29.8,0,0,1-11.55,2.39,30.47,30.47,0,0,1-10-1.62,26.24,26.24,0,0,1-8.43-4.72,21.52,21.52,0,0,1-5.89-8.06A27.33,27.33,0,0,1,479,387.55a24.11,24.11,0,0,1,7.39-17.78,24.91,24.91,0,0,1,18.27-7.35,29.63,29.63,0,0,1,13.68,3.1,23.27,23.27,0,0,1,9.54,9A26,26,0,0,1,531.33,388.08Zm-11.45,0q0-6.78-4.19-10.49t-11.08-3.72a14,14,0,0,0-10,4,13,13,0,0,0-4.19,9.65,17.61,17.61,0,0,0,.85,5.7A11.74,11.74,0,0,0,497,400.2a15.51,15.51,0,0,0,4.21,1.56,22,22,0,0,0,4.7.48,21.1,21.1,0,0,0,11-3v3.82a23.45,23.45,0,0,1-11.08,2.7,24.3,24.3,0,0,1-7.18-1,19.44,19.44,0,0,1-6.13-3.13,14.32,14.32,0,0,1-4.37-5.73,20.29,20.29,0,0,1-1.62-8.35,16.79,16.79,0,0,1,5.15-12.4,17.52,17.52,0,0,1,12.88-5.09q8.53,0,13.81,4.8t5.28,13.22v37.65h-3.82Z"/><path d="M559.86,356v69.78H556V349.38h4.56l44.06,76.35h-4.4Zm3.82,10.5,3.81,7v52.28h-3.81ZM565,349.38h4.46l44.22,76.35h-4.46Zm6.31,30.8,3.82,6.95v38.6h-3.82Zm2.71-30.8h4.5l44.17,76.35h-4.56Zm9,0h4.45l40.3,69.72V349.38h3.81v76.35H627Zm33.29,45.54L612.46,388v-38.6h3.81Zm7.64,13.21-3.82-6.47V349.38h3.82Z"/><path d="M642.84,403.86a41.47,41.47,0,0,1,0-32.61,41.43,41.43,0,0,1,22.35-22.35,41.44,41.44,0,0,1,32.6,0,41.43,41.43,0,0,1,22.35,22.35,41.47,41.47,0,0,1,0,32.61,41.43,41.43,0,0,1-22.35,22.35,41.44,41.44,0,0,1-32.6,0,41.43,41.43,0,0,1-22.35-22.35Zm3.5-31.12a37.73,37.73,0,0,0,0,29.63,37.49,37.49,0,0,0,20.33,20.34,37.87,37.87,0,0,0,29.64,0,37.49,37.49,0,0,0,20.33-20.34,37.73,37.73,0,0,0,0-29.63,37.49,37.49,0,0,0-20.33-20.34,37.87,37.87,0,0,0-29.64,0,37.49,37.49,0,0,0-20.33,20.34Zm3.52,28.18a34.08,34.08,0,0,1,0-26.73,33.73,33.73,0,0,1,18.27-18.26,34.06,34.06,0,0,1,26.72,0,33.73,33.73,0,0,1,18.27,18.26,34.08,34.08,0,0,1,0,26.73,33.73,33.73,0,0,1-18.27,18.26,34.06,34.06,0,0,1-26.72,0,33.73,33.73,0,0,1-18.27-18.26Zm3.5-25.22a30.34,30.34,0,0,0,0,23.7,30.07,30.07,0,0,0,16.28,16.28,30.22,30.22,0,0,0,23.7,0,30.07,30.07,0,0,0,16.28-16.28,30.34,30.34,0,0,0,0-23.7,30.09,30.09,0,0,0-16.28-16.27,30.22,30.22,0,0,0-23.7,0,30.09,30.09,0,0,0-16.28,16.27Zm5,25.27a26.92,26.92,0,0,1,0-26.83,26.74,26.74,0,0,1,46.28,0,26.76,26.76,0,0,1-36.55,36.56A26.48,26.48,0,0,1,658.35,401Zm6.94-29.59a22.86,22.86,0,1,0,16.2-6.73A22.1,22.1,0,0,0,665.29,371.38ZM668,401.05a19.07,19.07,0,1,1,13.49,5.59A18.4,18.4,0,0,1,668,401.05Zm2.7-24.28a15.21,15.21,0,1,0,10.79-4.49A14.67,14.67,0,0,0,670.7,376.77Z"/><path d="M56.05,404.52H51.59q11.19-14.79,16.2-22.24A69.22,69.22,0,0,0,74.34,371a21.22,21.22,0,0,0,1.54-7.92,26.73,26.73,0,0,0-1.57-9.41,19.86,19.86,0,0,0-4.4-7.11,25,25,0,0,0-6.81-4.85,33.82,33.82,0,0,0-8.72-2.86,55.19,55.19,0,0,0-10.26-.9,76.46,76.46,0,0,0-21.21,3.18l-.8-3.77A78.88,78.88,0,0,1,44,334.11a55.75,55.75,0,0,1,14.4,1.72A34.46,34.46,0,0,1,69.65,341a22.81,22.81,0,0,1,7.42,9.07,30.37,30.37,0,0,1,2.63,13,25.39,25.39,0,0,1-1.52,8.8q-1.5,4.14-6.57,11.72T56.05,404.52Zm-32.56,5.94v-3.82H75.24v3.82Zm0,7.64v-3.82H75.24v3.82Zm0,7.63v-3.82H75.24v3.82Zm23.38-21.21H42.42q18.07-24.7,22-30.78t3.87-10.15A17.92,17.92,0,0,0,66.31,355a14.07,14.07,0,0,0-5.41-5.62,26.22,26.22,0,0,0-7.64-2.92,43.84,43.84,0,0,0-9.25-.9,66.81,66.81,0,0,0-19.56,3l-.8-3.87a71.42,71.42,0,0,1,20.2-3.08,54.46,54.46,0,0,1,8.86.69,31.88,31.88,0,0,1,7.71,2.31,20.56,20.56,0,0,1,6.15,4.11,17.89,17.89,0,0,1,4,6.28,23.71,23.71,0,0,1,1.48,8.62,16.9,16.9,0,0,1-1.62,7,79.54,79.54,0,0,1-6.68,10.9Q58.71,388.83,46.87,404.52Zm-17.49,0H24.92q3.72-5,7.32-9.86t6-8q2.41-3.21,4.69-6.29t3.69-4.93c.93-1.24,1.83-2.44,2.67-3.6s1.49-2.08,1.91-2.73.81-1.28,1.14-1.89a7.44,7.44,0,0,0,.67-1.45,4.26,4.26,0,0,0,.15-1.09,3,3,0,0,0-2-3.13,24.88,24.88,0,0,0-7.11-.69A64.86,64.86,0,0,0,27.52,363l-.79-3.66a38,38,0,0,1,6.7-1.51,61,61,0,0,1,10.37-.93,34.93,34.93,0,0,1,5.25.34,15.55,15.55,0,0,1,4.05,1.17,6.12,6.12,0,0,1,2.79,2.38,7.35,7.35,0,0,1,1,3.85q0,2.28-2.33,5.83t-12,16.44Q34.68,397.36,29.38,404.52Zm8.64,0H33.57q19.77-26.61,22-29.74,4.45-6.37,5-9.07a7.26,7.26,0,0,0,.16-1.59q0-11-16.65-11a62.2,62.2,0,0,0-10.34.9A48.28,48.28,0,0,0,26,355.85l-.74-3.66a63.35,63.35,0,0,1,18.82-2.81,41,41,0,0,1,6.29.45,25.35,25.35,0,0,1,5.54,1.51,15.12,15.12,0,0,1,4.51,2.73,11.93,11.93,0,0,1,2.94,4.22,14.79,14.79,0,0,1,1.08,5.83q0,3.39-3.34,8.54t-20,27.67C39.75,402.14,38.73,403.53,38,404.52Z"/><path d="M653.81,244.38h9.47a21.81,21.81,0,0,1,11.66,2.87,17.5,17.5,0,0,1,6.76,7.3,21.13,21.13,0,0,1,2.13,9.25,19,19,0,0,1-2.57,9.95,17.7,17.7,0,0,1-6.87,6.68,19,19,0,0,1-9.28,2.36h-11.3Zm10.6,35.86a17.78,17.78,0,0,0,8.47-2,15.19,15.19,0,0,0,6-5.79,17,17,0,0,0,2.22-8.79,17.42,17.42,0,0,0-2-8.3,15,15,0,0,0-6-6.09,18.59,18.59,0,0,0-9.46-2.27h-7.2v33.27Z"/><path d="M717.28,244.38v2.55h-21v15.26h18.93v2.54H696.24v15.53H718v2.54H693.58V244.38Z"/><path d="M659.26,244.38h9.47a21.75,21.75,0,0,1,11.65,2.87,17.46,17.46,0,0,1,6.77,7.3,21.13,21.13,0,0,1,2.13,9.25,19.13,19.13,0,0,1-2.57,9.95,17.7,17.7,0,0,1-6.87,6.68,19,19,0,0,1-9.28,2.36h-11.3Zm10.6,35.86a17.81,17.81,0,0,0,8.47-2,15.19,15.19,0,0,0,6-5.79,17,17,0,0,0,2.22-8.79,17.42,17.42,0,0,0-2-8.3,15.09,15.09,0,0,0-6-6.09,18.61,18.61,0,0,0-9.46-2.27h-7.2v33.27Z"/><path d="M722.73,244.38v2.55h-21v15.26h18.93v2.54H701.69v15.53h21.8v2.54H699V244.38Z"/><path d="M65.85,265l-6.5-14.7-3,14.7-9.61,48.47H31.09L52.57,209.61h1.7l28.54,56.11,8.48,18.79,8.48-18.79,28-56.11h1.56l22.33,103.87H136.09L125.63,265l-3.11-14.7L116.87,265,91.72,313.48h-.85Z"/><path d="M203.64,209.47l50,104H235.44l-8.91-20.35H178.91L170,313.48H152.34l49.75-104Zm-7.07,44.23-11.3,25.16h35l-11.17-25-6.07-14.28h-.29Z"/><path d="M273.74,223.46H247.17V209.61h69.1v13.85H289.42v90H273.74Z"/><path d="M331.39,209.61H376.9v13.85H347.08v28.69h24v14.13h-24v33.21h34.48v14H331.39Z"/><path d="M449.4,313.48,428.48,274.2q-6.5.29-11.59.28h-3.95v39H397.53V209.61h23.6q18,0,29.54,7.42t11.59,24.1a32.48,32.48,0,0,1-4.88,18q-4.87,7.58-14.48,11.66l24.73,42.68ZM423,261.62q13.84,0,19-6a21.26,21.26,0,0,0,5.16-14.34q0-18.51-24.73-18.52h-9.47v38.87Z"/><path d="M485.57,209.61H501.4V313.48H485.57Z"/><path d="M563.3,209.47l50,104H595.09l-8.9-20.35H538.57l-8.91,20.35H512l49.74-104Zm-7.07,44.23-11.3,25.16h35l-11.16-25-6.08-14.28h-.28Z"/><path d="M622.09,209.61h16v89.74h29.82v14.13H622.08Z"/><path d="M90.7,237.9V223L80.53,208.21h3.56L92.71,221l-.94-.25,8.46-12.5h3.55L93.16,223.65l.49-1.88V237.9Z"/><path class="cls-1" d="M98.82,122.92H80.55V113H142v9.92H123.73v54.53H98.82Z"/><path class="cls-1" d="M175.38,129.29,168,113h26.24l31.38,64.45H197.45l-4.74-10.31H167.45l-4.7,10.31h-10.9Zm12.8,28-8.1-17.68L172,157.25Z"/><path class="cls-1" d="M251.94,122.92H233.66V113h61.46v9.92H276.85v54.53H251.94Z"/><path class="cls-1" d="M310.52,113h24.91V154a17.43,17.43,0,0,0,.93,6,11.37,11.37,0,0,0,2.59,4.2,10.41,10.41,0,0,0,3.9,2.5,13.82,13.82,0,0,0,4.82.82,14.85,14.85,0,0,0,5.11-.82,9.82,9.82,0,0,0,3.86-2.52,11.42,11.42,0,0,0,2.46-4.25,19,19,0,0,0,.86-6V113h9.48V152.4a28.92,28.92,0,0,1-1.92,10.79,23.06,23.06,0,0,1-5.45,8.21,24.05,24.05,0,0,1-8.53,5.23,32.59,32.59,0,0,1-11.17,1.82,51,51,0,0,1-14.44-1.8,26.51,26.51,0,0,1-9.91-5.16,20.07,20.07,0,0,1-5.69-8.13,30.26,30.26,0,0,1-1.81-10.75Z"/><path class="cls-1" d="M406.56,129.29,399.15,113H425.4l31.37,64.45H428.63l-4.74-10.31H398.63l-4.7,10.31H383Zm12.8,28-8.1-17.68-8.06,17.68Z"/><path class="cls-1" d="M471.87,113H498.2a77.84,77.84,0,0,1,19.27,2.1A37.33,37.33,0,0,1,531,121.32a24.92,24.92,0,0,1,7.93,10,33.72,33.72,0,0,1,2.59,13.61,31.45,31.45,0,0,1-2.59,12.77A27.57,27.57,0,0,1,531,168a39.05,39.05,0,0,1-13.49,6.91,65.5,65.5,0,0,1-19.27,2.52H471.87Zm24.91,55a21.34,21.34,0,0,0,7.76-1.34,14.48,14.48,0,0,0,5.84-4.16,19.07,19.07,0,0,0,3.66-7.18,37.37,37.37,0,0,0,1.28-10.42,35.72,35.72,0,0,0-1.3-10.28,18.33,18.33,0,0,0-3.7-7,14.18,14.18,0,0,0-5.84-4,22.57,22.57,0,0,0-7.65-1.23Z"/><path class="cls-1" d="M556.66,145.11A37.31,37.31,0,0,1,559,131.7a28,28,0,0,1,6.94-10.47,31.71,31.71,0,0,1,11.51-6.8,54.09,54.09,0,0,1,32.06,0,31.79,31.79,0,0,1,11.51,6.8A28.08,28.08,0,0,1,628,131.7a37.31,37.31,0,0,1,2.33,13.41A38.08,38.08,0,0,1,628,158.68,27.91,27.91,0,0,1,621,169.21,31.81,31.81,0,0,1,609.5,176a54.09,54.09,0,0,1-32.06,0,31.73,31.73,0,0,1-11.51-6.81A27.8,27.8,0,0,1,559,158.68,38.08,38.08,0,0,1,556.66,145.11Zm36.81,24.36a10.84,10.84,0,0,0,4.57-.91,7.32,7.32,0,0,0,3.32-3.55,24.72,24.72,0,0,0,2-7.41,90.7,90.7,0,0,0,.69-12.49,88.87,88.87,0,0,0-.69-12.35,24,24,0,0,0-2-7.32,7.3,7.3,0,0,0-3.32-3.51,11.86,11.86,0,0,0-9.16,0,7.2,7.2,0,0,0-3.34,3.51,24,24,0,0,0-2,7.32,88.87,88.87,0,0,0-.69,12.35,90.7,90.7,0,0,0,.69,12.49,24.69,24.69,0,0,0,2,7.41,7.22,7.22,0,0,0,3.34,3.55A10.9,10.9,0,0,0,593.47,169.47Z"/><path class="cls-1" d="M646.69,113h36.93a46.24,46.24,0,0,1,12.52,1.52,26.69,26.69,0,0,1,9,4.24,17.74,17.74,0,0,1,5.41,6.55,19.32,19.32,0,0,1,1.81,8.41,19.08,19.08,0,0,1-2.67,10.08,18.79,18.79,0,0,1-7.93,7l13.44,26.65H687l-10.17-23.4H671.6v23.36H646.69Zm26.42,33.2a16.06,16.06,0,0,0,5.47-.87,11.56,11.56,0,0,0,4.1-2.44,10.78,10.78,0,0,0,2.58-3.78,13,13,0,0,0,0-9.57,10.78,10.78,0,0,0-2.58-3.78,11.56,11.56,0,0,0-4.1-2.44,16.06,16.06,0,0,0-5.47-.87h-1.47l0,23.75Z"/><path class="cls-2" d="M107.65,122.92H89.37V113h61.46v9.92H132.56v54.53H107.65Z"/><path class="cls-2" d="M184.21,129.29,176.79,113H203l31.38,64.45H206.27l-4.74-10.31H176.28l-4.7,10.31H160.67Zm12.8,28-8.11-17.68-8.06,17.68Z"/><path class="cls-2" d="M260.76,122.92H242.49V113H304v9.92H285.68v54.53H260.76Z"/><path class="cls-2" d="M319.35,113h24.91V154a17.43,17.43,0,0,0,.93,6,11.48,11.48,0,0,0,2.58,4.2,10.57,10.57,0,0,0,3.9,2.5,13.92,13.92,0,0,0,4.83.82,14.85,14.85,0,0,0,5.11-.82,9.89,9.89,0,0,0,3.86-2.52,11.27,11.27,0,0,0,2.45-4.25,18.71,18.71,0,0,0,.86-6V113h9.49V152.4a28.92,28.92,0,0,1-1.92,10.79,23.19,23.19,0,0,1-5.45,8.21,24,24,0,0,1-8.54,5.23,32.49,32.49,0,0,1-11.16,1.82,50.91,50.91,0,0,1-14.44-1.8,26.44,26.44,0,0,1-9.91-5.16,20,20,0,0,1-5.69-8.13,30,30,0,0,1-1.81-10.75Z"/><path class="cls-2" d="M415.39,129.29,408,113h26.24l31.38,64.45H437.46l-4.75-10.31H407.46l-4.7,10.31h-10.9Zm12.8,28-8.1-17.68L412,157.25Z"/><path class="cls-2" d="M480.7,113H507a77.89,77.89,0,0,1,19.27,2.1,37.41,37.41,0,0,1,13.49,6.18,25,25,0,0,1,7.93,10,33.89,33.89,0,0,1,2.58,13.61,31.61,31.61,0,0,1-2.58,12.77A27.67,27.67,0,0,1,539.79,168a39.14,39.14,0,0,1-13.49,6.91A65.55,65.55,0,0,1,507,177.45H480.7Zm24.91,55a21.37,21.37,0,0,0,7.76-1.34,14.55,14.55,0,0,0,5.84-4.16,19.36,19.36,0,0,0,3.66-7.18,37.4,37.4,0,0,0,1.27-10.42,35.75,35.75,0,0,0-1.29-10.28,18.21,18.21,0,0,0-3.71-7,14.12,14.12,0,0,0-5.84-4,22.49,22.49,0,0,0-7.65-1.23Z"/><path class="cls-2" d="M565.49,145.11a37.1,37.1,0,0,1,2.33-13.41,28.06,28.06,0,0,1,6.93-10.47,31.79,31.79,0,0,1,11.51-6.8,54.12,54.12,0,0,1,32.07,0,31.79,31.79,0,0,1,11.51,6.8,28.2,28.2,0,0,1,6.94,10.47,37.31,37.31,0,0,1,2.32,13.41,38.08,38.08,0,0,1-2.32,13.57,28,28,0,0,1-6.94,10.53A31.81,31.81,0,0,1,618.33,176a54.12,54.12,0,0,1-32.07,0,31.81,31.81,0,0,1-11.51-6.81,27.89,27.89,0,0,1-6.93-10.53A37.86,37.86,0,0,1,565.49,145.11Zm36.81,24.36a10.76,10.76,0,0,0,4.56-.91,7.23,7.23,0,0,0,3.32-3.55,24.69,24.69,0,0,0,2-7.41,90.7,90.7,0,0,0,.69-12.49,88.87,88.87,0,0,0-.69-12.35,24,24,0,0,0-2-7.32,7.22,7.22,0,0,0-3.32-3.51,10.76,10.76,0,0,0-4.56-.92,10.9,10.9,0,0,0-4.59.92,7.26,7.26,0,0,0-3.35,3.51,24,24,0,0,0-2,7.32,88.87,88.87,0,0,0-.69,12.35,90.7,90.7,0,0,0,.69,12.49,24.72,24.72,0,0,0,2,7.41,7.28,7.28,0,0,0,3.35,3.55A10.9,10.9,0,0,0,602.3,169.47Z"/><path class="cls-2" d="M655.51,113h36.94A46.3,46.3,0,0,1,705,114.56a26.69,26.69,0,0,1,9,4.24,17.83,17.83,0,0,1,5.41,6.55,19.46,19.46,0,0,1,1.81,8.41,19.08,19.08,0,0,1-2.68,10.08,18.67,18.67,0,0,1-7.93,7L724,177.49H695.86l-10.18-23.4h-5.25v23.36H655.51Zm26.42,33.2a16.12,16.12,0,0,0,5.48-.87,11.51,11.51,0,0,0,4.09-2.44,10.81,10.81,0,0,0,2.59-3.78,13.17,13.17,0,0,0,0-9.57,10.81,10.81,0,0,0-2.59-3.78,11.51,11.51,0,0,0-4.09-2.44,16.12,16.12,0,0,0-5.48-.87h-1.46l0,23.75Z"/><path d="M44.15,115.66l-9.51-.14-.2,65.54L30.51,181l.2-65.54-9.5-.14,0-3.11,23,.33Z"/><path d="M60.72,179.69a11.37,11.37,0,0,1-7.4,2.22A11.34,11.34,0,0,1,46,179.47,7.87,7.87,0,0,1,43.23,173l.12-60.37,3.89,0-.12,60.27a5.46,5.46,0,0,0,1.6,4.31,6.7,6.7,0,0,0,4.65,1.57,6.65,6.65,0,0,0,4.68-1.44,5.46,5.46,0,0,0,1.7-4.25l.12-60.27,3.94.06-.13,60.37A7.9,7.9,0,0,1,60.72,179.69Z"/><path d="M49,54.85V82.08a12.27,12.27,0,0,0,.3,3.57c.2.48.85.9,1.93,1.28a13.66,13.66,0,0,0,3.75.66q2.13.1,7.6.1,11.57,0,17.5-6.88t7.45-22.1h1.32v30.2H22.78v-1c6,0,10-.38,12-1.13a2.5,2.5,0,0,0,1.37-1.07,9.84,9.84,0,0,0,.36-3.52V30a9.63,9.63,0,0,0-.41-3.67c-.13-.28-.57-.55-1.32-.82a25.44,25.44,0,0,0-4.57-.82,64.09,64.09,0,0,0-7.43-.4v-.92H85.52V48.75H84.2a30.55,30.55,0,0,0-4-15q-5.26-9.5-14.9-9.49c-2.57,0-5.15,0-7.76.05a25.11,25.11,0,0,0-6.94,1,2.55,2.55,0,0,0-1.27,1.07A10.56,10.56,0,0,0,49,30V53.83q10.51,0,13-2.13,3.84-3.26,5.36-17.49h1.22V74.27H67.42q-1.52-13.92-5.26-17.18Q59.54,54.86,49,54.85Z"/><path d="M156.49,68.78V40.45q0-9.27-3.16-12.74T142,24.25v-.92h28.87v.92q-7.22,0-10.06,3.46t-2.85,12.73V89.32h-2.44L115.1,35.63,114,34.31c-.2,0-.3.61-.3,1.84V69.36q0,11.2,3,14.87t11.34,3.67v1H98.43v-1q7.93,0,10.88-3.27t3-12.85V37.1q0-5.72-3.05-9-3.66-3.87-10.78-3.87v-.92h21l35.08,45.76c.88,1.15,1.42,1.72,1.62,1.72S156.49,70.14,156.49,68.78Z"/><path d="M227.05,61.66q0,14.75-5.64,21.46t-16.32,6.71q-12.1,0-20.44-7.32-10-8.74-10-25.12,0-16,10.08-26.13,8.65-8.75,18.54-8.74a18.89,18.89,0,0,1,8.36,1.73A23.29,23.29,0,0,1,220,31.57L225,22h.51V51.5l-.81-.51q0-13.08-7.24-21-6-6.59-12.64-6.59-8.88,0-12.75,8.17t-3.87,24.62q0,16.14,4.18,24.42t12.74,8.27q9.69,0,14.89-5.69,6.21-6.7,6.21-21.56Z"/><path d="M294.26,69.36q0,11-8,16.6a20.21,20.21,0,0,1-11.69,3.87Q263,89.83,255.31,85q-8.53-5.3-8.54-14.66V30a10.27,10.27,0,0,0-.4-3.67,2.37,2.37,0,0,0-1.22-.81Q241.9,24.24,234,24.25v-.92h39.15v.92c-3.12,0-5.64.1-7.58.3a18.38,18.38,0,0,0-4.22.81c-.88.34-1.39.65-1.52.92a8.62,8.62,0,0,0-.51,3.66V68.27q0,10.17,3.05,14.54,3.66,5.3,13.22,5.29a16.86,16.86,0,0,0,10.27-3.76q7-5.3,7-15V42.75q0-10.47-3.25-14.49t-10.68-4v-.92h27.35v.92q-7.62,0-10.16,4.27-1.83,3.06-1.83,10.29Z"/><path d="M337.77,54.85V82.08a11.77,11.77,0,0,0,.31,3.57c.2.48.84.9,1.92,1.28a13.81,13.81,0,0,0,3.76.66q2.13.1,7.6.1,11.56,0,17.49-6.88t7.46-22.1h1.32v30.2H311.54v-1q9,0,12-1.13a2.54,2.54,0,0,0,1.37-1.07,9.84,9.84,0,0,0,.36-3.52V30a9.63,9.63,0,0,0-.41-3.67c-.14-.28-.58-.55-1.32-.82a25.61,25.61,0,0,0-4.58-.82,63.91,63.91,0,0,0-7.42-.4v-.92h62.73V48.75H373a30.65,30.65,0,0,0-3.95-15q-5.28-9.5-14.91-9.49c-2.56,0-5.15,0-7.75.05a25.05,25.05,0,0,0-6.94,1,2.51,2.51,0,0,0-1.27,1.07,10.46,10.46,0,0,0-.36,3.64V53.83q10.51,0,13.05-2.13,3.84-3.26,5.36-17.49h1.22V74.27h-1.22q-1.53-13.92-5.26-17.18Q348.28,54.86,337.77,54.85Z"/><path d="M445.24,68.78V40.45q0-9.27-3.15-12.74T430.7,24.25v-.92h28.88v.92q-7.23,0-10.07,3.46t-2.84,12.73V89.32h-2.44L403.85,35.63l-1.11-1.32c-.2,0-.3.61-.3,1.84V69.36q0,11.2,3,14.87T416.8,87.9v1H387.19v-1q7.92,0,10.88-3.27T401,71.78V37.1q0-5.72-3.05-9-3.66-3.87-10.77-3.87v-.92h21l35.09,45.76c.88,1.15,1.42,1.72,1.62,1.72S445.24,70.14,445.24,68.78Z"/><path d="M523.13,23.33v29H521.7q-2.34-16.64-7.42-22.86-4.17-5.2-12.3-5.2a5.73,5.73,0,0,0-2.24.2c-.27.2-.41,1.09-.41,2.65V82.18a10.63,10.63,0,0,0,.41,3.78c.13.27.61.56,1.42.86a20.34,20.34,0,0,0,4.68.77c2.3.2,5.42.31,9.35.31v1H471v-1c3.86,0,6.94-.11,9.25-.31a20.45,20.45,0,0,0,4.68-.77,2.81,2.81,0,0,0,1.57-1.12,9.84,9.84,0,0,0,.36-3.52v-55c0-1.76-.21-2.72-.61-2.85a11.48,11.48,0,0,0-2.14-.1q-7.93,0-12.1,5.1-5.09,6.33-7.62,22.76h-1.43V23.33Z"/><path d="M598.36,74.27v3.36q0,6-1.12,8.33-1.85,3.87-7.26,3.87-7.05,0-9.3-5.29-1.83-4.28-1.84-16.27V66.14c0-.68,0-1.39.1-2.14q0-5.39-2.53-7.27t-7.28-1.88H557.19V82.18a12.53,12.53,0,0,0,.35,3.88,2.57,2.57,0,0,0,1.53,1.27,16.81,16.81,0,0,0,4.77.57c2.41.06,4.94.1,7.58.1v.91H530v-1q10.68,0,12.81-.82a2.6,2.6,0,0,0,1.42-1.17,10.14,10.14,0,0,0,.41-3.73V29.75a9.27,9.27,0,0,0-.41-3.57q-.19-.41-1.32-.81-3-1.12-12.91-1.12v-.92h41.58q11,0,17.49,5.91,5.19,4.68,5.19,9.67a12.54,12.54,0,0,1-4.09,9.67q-4.89,4.59-15.52,5.81Q585.53,56.52,589,66.47q1.75,5,1.75,15a12.83,12.83,0,0,0,.51,4.26,2.34,2.34,0,0,0,2.47,1.32q2.16,0,3-3.4a42,42,0,0,0,.82-9.41ZM557.19,53.73h9.41q7.39,0,10.94-2.76,4.25-3.27,4.25-11.06,0-8.59-3.49-12.13t-11.6-3.53h-4.86a12,12,0,0,0-3.14.3,1.76,1.76,0,0,0-1.26,1.28,19.3,19.3,0,0,0-.25,3.94Z"/><path d="M644.36,66H624.77l-3.13,9a17.63,17.63,0,0,0-1.21,5.83,5.74,5.74,0,0,0,2.85,5.41q2.84,1.63,8,1.64v1H605.48v-1a12.69,12.69,0,0,0,10.88-5.3q2.13-3,5.49-12.22L639,22.52h2l22,59.67c1,2.79,2,4.43,3.05,4.94s4.07.77,9.15.77v1H637.71v-1a63.15,63.15,0,0,0,10.48-.57C650.08,87,651,86.19,651,85l-.2-1Zm-.5-1.12L634.57,39l-9.29,25.89Z"/><path d="M723.48,43.67V73.16h-3.54V66.89a14,14,0,0,1-5.28,4.87,16,16,0,0,1-15.35.07,14,14,0,0,1-5.43-5.43,15.92,15.92,0,0,1-2-8A16,16,0,0,1,694,50a13.85,13.85,0,0,1,5.73-5.39A17.73,17.73,0,0,1,708,42.76a13.09,13.09,0,0,1,6.94,2,13.67,13.67,0,0,1,5.05,5.28l.38-6.41Zm-7.31,24a11.12,11.12,0,0,0,3.77-7.92V55.51a11.93,11.93,0,0,0-4.38-6.94,12.27,12.27,0,0,0-7.91-2.79,12.55,12.55,0,0,0-6.19,1.54,11.32,11.32,0,0,0-4.41,4.38,12.87,12.87,0,0,0-1.62,6.52,12.22,12.22,0,0,0,1.66,6.26,12.66,12.66,0,0,0,4.48,4.57,11.77,11.77,0,0,0,6.15,1.69A12.25,12.25,0,0,0,716.17,67.65Z"/></g></svg>