<svg xmlns="http://www.w3.org/2000/svg" viewBox="0 0 220.6 228.77"><defs><style>.cls-1{fill:#fbf5e7;}.cls-2{fill:none;stroke:#fbf5e7;stroke-miterlimit:10;stroke-width:6px;}</style></defs><title>tagora-white-logo</title><g id="Capa_3_copia_2" data-name="Capa 3 copia 2"><path class="cls-1" d="M45.7,222.9a1.61,1.61,0,0,1-1.15,1.44h0v-9H45.7Z"/><path class="cls-1" d="M53.9,222.9a1.61,1.61,0,0,1-1.15,1.44h0v-9H53.9Z"/><path class="cls-1" d="M49.8,222.9a1.61,1.61,0,0,1-1.15,1.44h0v-9H49.8Z"/><rect class="cls-1" x="4.24" y="9.9" width="153.77" height="5.97"/><rect class="cls-1" x="-50.35" y="108" width="199.16" height="9.35" transform="translate(161.9 63.45) rotate(90)"/><rect class="cls-1" x="37.32" y="12.86" width="24.68" height="105.52" rx="2.18"/></g><g id="Capa_3_copia_3" data-name="Capa 3 copia 3"><rect class="cls-1" x="129.44" y="83.84" width="102.5" height="5.97" transform="translate(267.51 -93.87) rotate(90)"/><path class="cls-2" d="M158,12.88A22.69,22.69,0,0,1,180.7,35.57"/><circle class="cls-2" cx="149.08" cy="29.57" r="16.71"/><path class="cls-2" d="M125.32,68.13c28.24,0,55.38,6.38,55.38-19"/><path class="cls-2" d="M211.06,167.4c-5.64,0-30.57,3.81-30.37-32.19"/><path class="cls-1" d="M125.75,65.05a52.39,52.39,0,1,0,52.38,52.38A52.38,52.38,0,0,0,125.75,65.05Zm0,53.34-.12,24.49a24.49,24.49,0,0,1,.12-49Z"/><path class="cls-1" d="M211.06,164.4l5.18-.2s-.35,6.21-5.18,6.21S211.06,164.4,211.06,164.4Z"/></g></svg>