<svg xmlns="http://www.w3.org/2000/svg" viewBox="0 0 220.6 228.77"><defs><style>.cls-1{fill:#fbf5e7;}.cls-2{fill:none;stroke:#fbf5e7;stroke-miterlimit:10;stroke-width:6px;}</style></defs><title>tagora-white-logo</title><g id="Capa_3_copia_2" data-name="Capa 3 copia 2"><path class="cls-1" d="M44.42,222.61a1.92,1.92,0,0,1-1.14,1.73h0V213.62h1.14Z"/><path class="cls-1" d="M52.62,222.61a1.92,1.92,0,0,1-1.14,1.73h0V213.62h1.14Z"/><path class="cls-1" d="M48.52,222.61a1.92,1.92,0,0,1-1.14,1.73h0V213.62h1.14Z"/><rect class="cls-1" x="2.96" y="9.9" width="153.77" height="5.97" rx="0.64"/><path class="cls-1" d="M28,187.62H66.89a1,1,0,0,1,1,1V196a1,1,0,0,1-1,1H28a0,0,0,0,1,0,0v-9.35A0,0,0,0,1,28,187.62Z" transform="translate(240.25 144.35) rotate(90)"/><rect class="cls-1" x="34.61" y="12.86" width="25.53" height="156.95" rx="1.13"/></g><g id="Capa_3_copia_3" data-name="Capa 3 copia 3"><rect class="cls-1" x="128.16" y="83.84" width="102.5" height="5.97" transform="translate(266.23 -92.59) rotate(90)"/><path class="cls-2" d="M156.74,12.88a22.69,22.69,0,0,1,22.69,22.69"/><circle class="cls-2" cx="147.8" cy="29.57" r="16.71"/><path class="cls-2" d="M124.05,68.13c28.24,0,55.38,6.38,55.38-19"/><path class="cls-2" d="M209.79,167.4c-5.65,0-30.57,3.81-30.38-32.19"/><path class="cls-1" d="M209.79,164.4l5.17-.2s-.34,6.21-5.17,6.21S209.79,164.4,209.79,164.4Z"/><path class="cls-1" d="M124.47,65.05a52.39,52.39,0,1,0,52.39,52.38A52.38,52.38,0,0,0,124.47,65.05Zm0,74.38A23.33,23.33,0,1,1,147.8,116.1,23.34,23.34,0,0,1,124.47,139.43Z"/></g></svg>