<svg xmlns="http://www.w3.org/2000/svg" viewBox="0 0 220.6 228.77"><defs><style>.cls-1{fill:#211915;}.cls-2{fill:none;stroke:#211915;stroke-miterlimit:10;stroke-width:6px;}</style></defs><title>tagora-black-logo</title><g id="Capa_3_copia_2" data-name="Capa 3 copia 2"><path class="cls-1" d="M45.7,222.61a1.91,1.91,0,0,1-1.15,1.73h0V213.62H45.7Z"/><path class="cls-1" d="M53.9,222.61a1.91,1.91,0,0,1-1.15,1.73h0V213.62H53.9Z"/><path class="cls-1" d="M49.8,222.61a1.91,1.91,0,0,1-1.15,1.73h0V213.62H49.8Z"/><rect class="cls-1" x="4.24" y="9.9" width="153.77" height="5.97" rx="0.64"/><path class="cls-1" d="M29.27,187.62H68.16a1,1,0,0,1,1,1V196a1,1,0,0,1-1,1H29.27a0,0,0,0,1,0,0v-9.35A0,0,0,0,1,29.27,187.62Z" transform="translate(241.52 143.07) rotate(90)"/><rect class="cls-1" x="35.89" y="12.86" width="25.53" height="156.95" rx="1.13"/></g><g id="Capa_3_copia_3" data-name="Capa 3 copia 3"><rect class="cls-1" x="129.44" y="83.84" width="102.5" height="5.97" transform="translate(267.51 -93.87) rotate(90)"/><path class="cls-2" d="M158,12.88A22.69,22.69,0,0,1,180.7,35.57"/><circle class="cls-2" cx="149.08" cy="29.57" r="16.71"/><path class="cls-2" d="M125.32,68.13c28.24,0,55.38,6.38,55.38-19"/><path class="cls-2" d="M211.06,167.4c-5.64,0-30.57,3.81-30.37-32.19"/><path class="cls-1" d="M211.06,164.4l5.18-.2s-.35,6.21-5.18,6.21S211.06,164.4,211.06,164.4Z"/><path class="cls-1" d="M125.75,65.05a52.39,52.39,0,1,0,52.38,52.38A52.38,52.38,0,0,0,125.75,65.05Zm0,74.38a23.33,23.33,0,1,1,23.33-23.33A23.34,23.34,0,0,1,125.75,139.43Z"/></g></svg>